<svg width="191" height="177" viewBox="0 0 191 177" fill="none" xmlns="http://www.w3.org/2000/svg">
<g clip-path="url(#clip0)">
<path d="M151.119 5.63632C151.119 5.63632 156.748 1.35273 168.681 7.21449C180.615 13.0763 189.171 8.1163 189.171 8.1163L187.82 27.7307C187.82 27.7307 175.661 32.4652 164.403 25.7016C153.146 18.938 149.543 25.7016 149.543 25.7016L151.119 5.63632Z" fill="#B91D21"/>
<path d="M161.927 95.1409C161.924 108.339 157.976 121.234 150.59 132.166C143.205 143.097 132.72 151.565 120.487 156.477C118.255 157.376 115.974 158.149 113.656 158.793C102.08 161.999 89.8518 162 78.2748 158.797C76.692 158.358 75.1339 157.861 73.6006 157.307C70.1135 156.051 66.7397 154.5 63.5159 152.67C43.4974 141.332 29.9859 119.817 29.9859 95.1409C29.9761 78.1499 36.5089 61.8093 48.2251 49.5187C59.9414 37.228 75.939 29.9337 92.8897 29.1533C93.9074 29.1059 94.9296 29.0826 95.9563 29.0834C97.0843 29.0834 98.2063 29.1112 99.3223 29.1668C116.215 30.0288 132.132 37.3561 143.783 49.6344C155.434 61.9128 161.93 78.2038 161.927 95.1409V95.1409Z" fill="#B91D21"/>
<path d="M178.929 29.3605C174.595 29.3607 169.429 28.4905 164.456 25.5027C159.906 22.7688 156.134 21.8657 153.246 22.818C152.494 23.0543 151.798 23.4388 151.198 23.9489C150.598 24.459 150.106 25.0844 149.751 25.7881L149.166 27.197L151.507 3.99805L151.568 3.94048C151.767 3.75115 156.585 -0.623832 169.192 5.56939C181.54 11.6348 190.545 6.58151 190.634 6.52966L191 6.31786L190.971 6.74036L189.534 27.612L189.4 27.6638C189.325 27.6931 184.925 29.3602 178.929 29.3605ZM155.642 22.0008C158.207 22.0008 161.237 23.0426 164.688 25.1161C175.715 31.741 187.712 27.7886 189.104 27.2923L190.494 7.10716C188.667 7.98959 180.161 11.4595 168.994 5.97429C157.407 0.282161 152.522 3.7431 151.938 4.21646L149.869 24.7148C150.677 23.619 151.809 22.8055 153.105 22.3897C153.925 22.1253 154.781 21.994 155.642 22.0008V22.0008Z" fill="#3F3D56"/>
<path d="M94.6054 160.973C88.2428 160.977 81.9091 160.117 75.7774 158.416C74.0802 157.945 72.4055 157.411 70.7997 156.829C67.0868 155.491 63.4944 153.839 60.0611 151.891C48.9345 145.589 39.7349 136.368 33.4523 125.221C27.1698 114.074 24.0422 101.422 24.4062 88.6268C24.7702 75.8319 28.612 63.3788 35.5182 52.6076C42.4244 41.8363 52.1333 33.1549 63.6002 27.4977C72.2527 23.2193 81.6995 20.7903 91.3402 20.3651C93.515 20.2636 95.8184 20.2644 98.1891 20.3795C114.183 21.2034 129.415 27.4734 141.363 38.1506C153.312 48.8279 161.259 63.2718 163.888 79.0898C166.518 94.9078 163.673 111.151 155.823 125.128C147.974 139.105 135.591 149.978 120.727 155.946C118.349 156.902 115.921 157.725 113.452 158.412C107.315 160.115 100.974 160.977 94.6054 160.973ZM94.6054 20.7416C93.5061 20.7416 92.4145 20.7665 91.3608 20.8156C81.7821 21.2379 72.3959 23.6513 63.799 27.9023C51.5085 33.9648 41.2704 43.5134 34.3596 55.3593C27.4488 67.2052 24.1705 80.8249 24.9331 94.5227C25.6956 108.22 30.4652 121.391 38.648 132.394C46.8309 143.398 58.0654 151.748 70.9527 156.405C72.548 156.983 74.2116 157.514 75.8978 157.982C88.1466 161.371 101.084 161.369 113.332 157.977C115.784 157.295 118.197 156.477 120.559 155.527C135.331 149.601 147.638 138.798 155.44 124.91C163.242 111.022 166.07 94.8808 163.457 79.1622C160.844 63.4436 152.946 49.0908 141.072 38.482C129.198 27.8731 114.06 21.6451 98.1669 20.8298C96.9596 20.7713 95.7611 20.7416 94.6054 20.7416V20.7416Z" fill="#3F3D56"/>
<path d="M103.019 176.227H0V176.678H103.019V176.227Z" fill="#3F3D56"/>
<path d="M17.599 176.605L17.3574 176.515C17.3043 176.495 12.0193 174.467 9.54355 169.87C7.06773 165.272 8.28002 159.737 8.29255 159.681L8.34962 159.429L8.59115 159.52C8.64425 159.54 13.9291 161.568 16.405 166.165C18.8808 170.762 17.6685 176.298 17.6559 176.353L17.599 176.605ZM9.93999 169.656C12.0331 173.543 16.2095 175.535 17.2676 175.99C17.4688 174.854 18.0998 170.262 16.0085 166.379C13.9175 162.496 9.73946 160.5 8.68086 160.044C8.47958 161.181 7.84885 165.773 9.94 169.656H9.93999Z" fill="#3F3D56"/>
<path d="M11.4356 168.257C15.8847 170.937 17.5983 176.261 17.5983 176.261C17.5983 176.261 12.0982 177.239 7.64904 174.559C3.19985 171.879 1.48633 166.555 1.48633 166.555C1.48633 166.555 6.98636 165.577 11.4356 168.257Z" fill="#B91D21"/>
<path d="M77.0921 54.0254C88.7321 54.0254 98.1683 44.5768 98.1683 32.9213C98.1683 21.2659 88.7321 11.8173 77.0921 11.8173C65.452 11.8173 56.0159 21.2659 56.0159 32.9213C56.0159 44.5768 65.452 54.0254 77.0921 54.0254Z" fill="#2F2E41"/>
<path d="M81.4802 53.7499C89.7271 53.7499 96.4125 47.0556 96.4125 38.7978C96.4125 30.5401 89.7271 23.8458 81.4802 23.8458C73.2333 23.8458 66.5479 30.5401 66.5479 38.7978C66.5479 47.0556 73.2333 53.7499 81.4802 53.7499Z" fill="#A0616A"/>
<path d="M69.5899 42.1205C69.5899 42.1205 67.3777 59.8414 59.3585 63.441C51.3393 67.0406 81.4804 65.1023 81.4804 65.1023C81.4804 65.1023 81.4804 49.0427 82.5865 48.489C83.6926 47.9352 69.5899 42.1205 69.5899 42.1205Z" fill="#A0616A"/>
<path d="M66.2717 159.245L65.1656 165.059C65.1656 165.059 49.6802 174.197 57.1464 176.689C64.6125 179.181 73.7378 165.89 73.7378 165.89L72.0787 159.245H66.2717Z" fill="#A0616A"/>
<path d="M77.0559 115.496L89.223 128.51L122.682 105.251C122.682 105.251 114.94 99.1597 112.451 99.1597C109.962 99.1597 77.0559 115.496 77.0559 115.496Z" fill="#A0616A"/>
<path d="M142.869 47.1045C142.869 47.1045 146.463 21.9076 152.824 23.8458C159.184 25.784 149.229 50.7041 149.229 50.7041L142.869 47.1045Z" fill="#A0616A"/>
<path d="M98.0717 60.3952C98.0717 60.3952 86.0055 58.457 81.5307 60.3952C77.0559 62.3334 63.5388 63.8756 61.8634 61.7201C60.1879 59.5645 45.2556 66.7637 45.2556 69.8094C45.2556 72.8552 77.6089 118.819 77.6089 118.819C77.6089 118.819 111.068 109.405 115.493 99.4366C115.493 99.4366 111.621 96.6677 111.621 94.4526C111.621 92.2375 109.686 90.0224 109.686 90.0224C109.686 90.0224 111.898 84.4846 108.027 79.5006C104.155 74.5165 98.0717 60.3952 98.0717 60.3952Z" fill="#D0CDE1"/>
<path d="M94.4768 61.2259L98.0716 60.3952C98.0716 60.3952 106.92 62.6103 113.004 70.0863C119.087 77.5623 129.595 80.0543 129.595 80.0543L142.315 45.4432L152.823 49.0427C152.823 49.0427 144.528 93.0681 135.126 93.6219C125.724 94.1757 102.496 83.9308 102.496 83.9308L94.4768 61.2259Z" fill="#D0CDE1"/>
<path d="M49.68 67.0406C49.68 67.0406 43.873 67.3174 43.873 72.3014C43.873 77.2855 44.7026 94.4526 49.6801 101.929C54.6575 109.405 59.0819 126.295 59.3584 126.572C59.6349 126.849 64.8889 161.737 64.8889 161.737L73.7376 160.906L72.0785 117.434L63.5062 95.2833L49.68 67.0406Z" fill="#D0CDE1"/>
<path d="M147.35 136.559C140.248 145.393 130.997 152.252 120.487 156.478L119.089 153.429L113.656 158.793C102.08 161.999 89.8517 162 78.2748 158.797L75.949 157.307L88.3933 142.908C88.3933 142.908 88.6702 135.709 88.3933 134.602C88.1163 133.495 84.4868 123.444 84.4868 123.444C97.0978 122.644 115.13 106.625 119.307 102.763C119.881 102.231 120.194 101.929 120.194 101.929C143.421 105.25 146.74 132.386 146.74 132.386L147.35 136.559Z" fill="#2F2E41"/>
<path d="M66.461 42.1596C67.2071 42.1596 67.812 40.8979 67.812 39.3414C67.812 37.785 67.2071 36.5233 66.461 36.5233C65.7149 36.5233 65.1101 37.785 65.1101 39.3414C65.1101 40.8979 65.7149 42.1596 66.461 42.1596Z" fill="#A0616A"/>
<path d="M57.9051 21.6434C62.7547 21.6434 66.6861 17.7068 66.6861 12.8508C66.6861 7.99475 62.7547 4.05815 57.9051 4.05815C53.0554 4.05815 49.124 7.99475 49.124 12.8508C49.124 17.7068 53.0554 21.6434 57.9051 21.6434Z" fill="#2F2E41"/>
<path d="M48.6735 8.79265C48.6738 6.6366 49.4653 4.55581 50.8974 2.94581C52.3296 1.33581 54.3026 0.308831 56.4414 0.0600815C55.2102 -0.0847874 53.9624 0.033007 52.7799 0.405714C51.5975 0.778421 50.5073 1.39759 49.581 2.2225C48.6547 3.04741 47.9133 4.05935 47.4056 5.19176C46.898 6.32417 46.6355 7.55137 46.6355 8.79265C46.6355 10.0339 46.898 11.2611 47.4056 12.3935C47.9133 13.5259 48.6547 14.5379 49.581 15.3628C50.5073 16.1877 51.5975 16.8069 52.7799 17.1796C53.9624 17.5523 55.2102 17.6701 56.4414 17.5252C54.3026 17.2765 52.3296 16.2495 50.8974 14.6395C49.4653 13.0295 48.6738 10.9487 48.6735 8.79265V8.79265Z" fill="#2F2E41"/>
<path d="M152.02 5.1854H148.868V38.3269H152.02V5.1854Z" fill="#2F2E41"/>
<path d="M63.5339 25.927C63.5339 25.927 67.5867 34.4942 72.5401 34.7197C77.4936 34.9451 95.9563 31.3379 95.9563 31.3379L89.8771 18.7125L73.6659 20.7416L63.5339 25.927Z" fill="#2F2E41"/>
</g>
<defs>
<clipPath id="clip0">
<rect width="191" height="177" fill="white"/>
</clipPath>
</defs>
</svg>
