<svg width="232" height="202" viewBox="0 0 232 202" fill="none" xmlns="http://www.w3.org/2000/svg">
<g clip-path="url(#clip0)">
<path d="M231.999 2.3657V68.2904C229.489 68.8296 226.891 69.619 225.149 71.4972C222.791 74.0331 222.612 77.8358 222.563 81.3005L222.005 121.401C221.961 124.469 221.891 127.655 220.521 130.402C218.481 134.494 214.017 136.761 211.152 140.327C206.271 146.4 206.775 155.135 208.526 162.722C210.276 170.309 213.039 177.982 211.842 185.683C210.842 192.117 207.236 197.55 202.427 202.013H6.16259C2.34681 197.901 -0.54088 193.154 0.0847428 187.775C0.798263 181.632 6.01523 176.839 7.2613 170.782C8.7142 163.726 4.55458 156.866 3.12496 149.81C1.20156 140.386 4.18231 130.72 7.12946 121.574C8.26178 118.053 9.45616 114.431 11.8527 111.611C14.7739 108.185 19.3265 106.149 21.3611 102.135C24.1764 96.5782 21.0302 89.6101 23.0596 83.7203C25.2725 77.2966 32.6249 74.433 39.2017 72.6632C50.5907 69.5951 62.2001 67.4086 73.9263 66.1234C77.4293 65.739 81.1054 65.3804 84.0423 63.4326C86.4 61.8667 88.0235 59.4365 89.4712 57.0011C96.1126 45.6551 101.704 31.3035 114.431 27.9911C123.069 25.7415 132.244 29.6267 141.075 28.3213C157.219 25.9272 165.983 7.99228 180.127 0H223.011C226.015 0.753308 229.011 1.54187 231.999 2.3657Z" fill="#6C63FF"/>
<path opacity="0.7" d="M231.999 2.3657V68.2904C229.489 68.8296 226.891 69.619 225.149 71.4972C222.791 74.0331 222.612 77.8358 222.563 81.3005L222.005 121.401C221.961 124.469 221.891 127.655 220.521 130.402C218.481 134.494 214.017 136.761 211.152 140.327C206.271 146.4 206.775 155.135 208.526 162.722C210.276 170.309 213.039 177.982 211.842 185.683C210.842 192.117 207.236 197.55 202.427 202.013H6.16259C2.34681 197.901 -0.54088 193.154 0.0847428 187.775C0.798263 181.632 6.01523 176.839 7.2613 170.782C8.7142 163.726 4.55458 156.866 3.12496 149.81C1.20156 140.386 4.18231 130.72 7.12946 121.574C8.26178 118.053 9.45616 114.431 11.8527 111.611C14.7739 108.185 19.3265 106.149 21.3611 102.135C24.1764 96.5782 21.0302 89.6101 23.0596 83.7203C25.2725 77.2966 32.6249 74.433 39.2017 72.6632C50.5907 69.5951 62.2001 67.4086 73.9263 66.1234C77.4293 65.739 81.1054 65.3804 84.0423 63.4326C86.4 61.8667 88.0235 59.4365 89.4712 57.0011C96.1126 45.6551 101.704 31.3035 114.431 27.9911C123.069 25.7415 132.244 29.6267 141.075 28.3213C157.219 25.9272 165.983 7.99228 180.127 0H223.011C226.015 0.753308 229.011 1.54187 231.999 2.3657Z" fill="black"/>
<path d="M32.6797 136.178C32.5662 136.758 32.5723 137.355 32.6978 137.933C33.1372 139.514 34.9883 140.187 36.6092 140.458C38.8971 140.84 41.3453 140.874 43.4238 139.844C44.2333 139.411 44.9995 138.901 45.7117 138.322L48.633 136.098C49.1208 135.78 49.5342 135.36 49.8455 134.868C50.0467 134.446 50.156 133.986 50.1661 133.519C50.2438 132.325 50.0788 131.128 49.681 129.999C49.2832 128.871 48.6609 127.835 47.8514 126.952C47.0419 126.07 46.062 125.36 44.9706 124.866C43.8792 124.371 42.6988 124.102 41.5004 124.074C41.1796 124.05 40.8574 124.093 40.5542 124.2C40.2158 124.376 39.9133 124.613 39.6623 124.899C38.0802 126.432 36.0249 126.705 35.0089 128.725C33.8268 131.065 33.0398 133.583 32.6797 136.178Z" fill="#FFC095"/>
<path d="M44.166 78.5943C42.315 79.6623 40.8207 81.254 39.5126 82.9413C38.5199 84.2312 37.5944 85.6165 37.31 87.2083C36.8964 89.5301 37.7986 92.2828 36.2268 94.0396C35.5184 94.8291 34.4326 95.2186 33.7682 96.0493C33.2926 96.6427 33.0857 97.4011 32.8918 98.1364C32.5222 99.5295 32.1473 100.954 32.2455 102.391C32.38 104.362 33.3908 106.185 33.595 108.151C33.838 110.473 32.9358 112.769 32.0439 114.941L30.2937 119.239C31.894 118.677 33.6545 118.917 35.3375 119.017C41.3067 119.373 47.4285 117.918 53.2117 119.443C53.9045 119.626 54.587 119.851 55.2798 120.006C58.9664 120.823 62.777 119.675 66.3704 118.538C66.8875 118.378 67.5002 118.055 67.4329 117.526C67.3874 117.321 67.2874 117.131 67.1434 116.977C64.4315 113.499 62.2186 109.237 62.8002 104.852C63.3173 101.039 65.9025 97.4656 65.2226 93.681C64.8296 91.5011 63.4129 89.6772 62.3349 87.7346C61.6757 86.5324 61.1431 85.2579 60.3779 84.1228C59.6127 82.9877 58.6018 81.9738 57.6117 80.9909C56.6216 80.008 55.5797 78.9786 54.3647 78.2408C51.6295 76.5768 46.8986 77.0231 44.166 78.5943Z" fill="#D67820"/>
<path d="M46.19 109.998C46.2029 110.586 46.0855 111.169 45.8462 111.706C45.5153 112.32 44.8896 112.712 44.295 113.074C41.4427 114.802 38.5731 116.503 35.6863 118.176C37.3796 122.529 39.122 126.966 42.1183 130.56C47.8058 137.363 57.459 140.056 66.2487 138.794C67.5698 138.603 68.958 138.294 69.9068 137.36C70.6824 136.607 71.0417 135.554 71.3157 134.522C72.2237 131.07 72.3263 127.456 71.6156 123.958C71.0986 121.486 70.0645 118.927 67.9162 117.596C67.1008 117.136 66.2328 116.776 65.331 116.523L58.0251 114.155C57.6658 114.038 57.2728 113.897 57.097 113.559C56.9936 113.299 56.9667 113.015 57.0195 112.741L57.5831 106.859C57.702 105.626 57.7873 104.263 57.0505 103.268C56.4378 102.437 55.3908 102.06 54.3955 101.789C52.878 101.377 47.8885 99.8675 46.72 101.292C46.1176 102.029 46.4615 104.733 46.4123 105.677L46.19 109.998Z" fill="#FFC095"/>
<path d="M66.8047 116.479C69.6226 117.157 72.6964 118.246 74.0045 120.829C74.7801 122.376 74.7801 124.162 74.7646 125.882L74.506 152.261L67.3657 152.553C68.2072 147.917 68.7255 143.228 68.9168 138.521C69.0341 136.552 68.9814 134.576 68.7591 132.616C68.1929 128.351 66.3032 124.417 64.0618 120.79C63.5447 119.962 60.7889 116.92 61.218 115.94C61.7403 114.787 65.7292 116.221 66.8047 116.479Z" fill="#FFC095"/>
<path opacity="0.05" d="M72.3498 129.995C72.8358 130.97 73.0581 132.058 73.2779 133.116C73.5131 134.256 73.7484 135.412 73.6889 136.576C73.6247 137.376 73.4906 138.169 73.2882 138.947L72.5127 142.38C72.1973 143.753 71.8612 145.172 71.0029 146.286C70.9237 146.411 70.807 146.508 70.6694 146.562C70.545 146.589 70.4154 146.578 70.2971 146.531C69.444 146.255 68.8313 145.471 68.5392 144.625C68.247 143.779 68.2341 142.865 68.2393 141.968C68.2574 138.173 68.5676 134.367 68.2186 130.58C68.1204 129.512 67.2207 126.832 69.0252 126.95C70.3411 127.033 71.825 128.937 72.3498 129.995Z" fill="black"/>
<path d="M72.8618 177.247C72.8618 177.37 72.8618 177.505 72.8437 177.621C72.8437 177.938 72.8179 178.255 72.8049 178.58C72.5257 185.83 72.58 194.957 70.3205 201.984H35.8932C35.782 201.639 35.689 201.285 35.5959 200.937C34.1508 195.489 32.6953 189.906 33.1658 184.29C33.2143 183.547 33.3232 182.809 33.4915 182.084C33.4915 182.042 33.5122 182.001 33.5251 181.96C33.6217 181.576 33.7695 181.208 33.9646 180.864C34.0234 180.759 34.09 180.659 34.1637 180.564C34.205 180.513 34.249 180.461 34.2929 180.415C34.43 180.266 34.5929 180.144 34.7738 180.053C35.6735 179.615 38.0622 180.198 39.4039 180.415C39.5823 180.443 39.7426 180.464 39.8796 180.477L43.6204 180.809L44.5847 180.894L51.9215 181.547L52.9065 181.635C55.2099 181.834 57.5211 181.996 59.8297 181.844C64.4598 181.537 68.1981 177.149 72.8334 177.234L72.8618 177.247Z" fill="#0E0D15"/>
<path opacity="0.05" d="M35.7483 147.13C35.9707 147.832 35.9474 148.585 36.0069 149.317C36.2111 151.681 37.3176 153.876 37.6924 156.218C38.2819 159.902 37.0306 163.602 35.8828 167.154C34.7349 170.707 33.6957 174.324 33.8146 178.031C33.8973 180.353 34.5074 182.755 36.1155 184.424C38.3775 186.774 41.9658 187.112 45.2283 187.305L56.9962 188.004C59.2997 188.141 61.6238 188.278 63.9014 187.914C66.1789 187.55 68.4384 186.64 70.0232 184.968C70.9504 183.95 71.661 182.754 72.112 181.454C72.5601 180.282 72.8015 179.041 72.8255 177.786C72.8255 176.3 72.4688 174.842 72.1689 173.387C70.8763 167.072 70.8065 160.576 70.747 154.129C70.7212 151.162 70.6953 148.167 71.3442 145.272C71.6803 143.773 72.1922 142.316 72.5412 140.82C73.6968 135.859 72.7376 130.064 68.8417 126.772C68.5056 126.489 68.0661 126.21 67.6525 126.375C67.3475 126.496 67.1846 126.819 67.0321 127.11C66.3028 128.489 65.2827 129.694 64.042 130.642C62.8013 131.59 61.3695 132.258 59.8452 132.6C58.2139 132.956 56.5206 132.923 54.8557 132.799C52.6789 132.639 50.4815 132.316 48.4831 131.444C46.4848 130.573 44.6803 129.092 43.7858 127.105C41.5496 128.741 41.8314 132.136 40.5724 134.6C39.7606 136.186 38.3258 137.321 36.8212 138.211C35.6527 138.905 33.22 139.331 32.4263 140.456C30.7873 142.816 35.1176 145.133 35.7483 147.13Z" fill="black"/>
<path d="M35.7485 146.485C35.9708 147.187 35.9475 147.94 36.007 148.673C36.2112 151.036 37.3177 153.231 37.6925 155.574C38.282 159.258 37.0307 162.957 35.8829 166.509C34.7351 170.062 33.6958 173.679 33.8147 177.386C33.8974 179.708 34.5076 182.11 36.1156 183.779C38.4009 186.134 41.9866 186.469 45.2491 186.65L57.017 187.349C59.3205 187.486 61.6446 187.623 63.9222 187.259C66.1997 186.895 68.4592 185.984 70.0439 184.313C70.9712 183.295 71.6818 182.099 72.1328 180.799C72.5808 179.626 72.8222 178.385 72.8463 177.131C72.8463 175.645 72.4896 174.187 72.1897 172.732C70.8971 166.417 70.8273 159.921 70.7678 153.474C70.742 150.507 70.7161 147.512 71.365 144.617C71.7011 143.118 72.2129 141.661 72.5619 140.164C73.7175 135.203 72.7584 129.409 68.8625 126.117C68.5264 125.833 68.0869 125.555 67.6733 125.72C67.3682 125.841 67.2054 126.164 67.0528 126.455C66.325 127.836 65.3056 129.044 64.0648 129.994C62.824 130.944 61.3914 131.614 59.8659 131.958C58.2347 132.314 56.5414 132.28 54.8765 132.157C52.6997 131.997 50.5023 131.674 48.5039 130.802C46.5055 129.93 44.7011 128.449 43.8066 126.463C41.5704 128.098 41.8521 131.493 40.5931 133.957C39.7814 135.544 38.3466 136.679 36.842 137.569C35.6735 138.263 33.2408 138.689 32.4471 139.813C30.7874 142.171 35.1177 144.488 35.7485 146.485Z" fill="#252036"/>
<path opacity="0.05" d="M64.7778 152.929C64.7778 152.24 65.1087 151.598 65.45 151C65.9205 150.179 66.4255 149.379 66.9649 148.6C67.3522 147.968 67.8641 147.42 68.4695 146.99C69.0977 146.598 69.9379 146.475 70.5791 146.836C70.7194 146.947 70.8874 147.018 71.0651 147.042C71.3236 147.042 71.4942 146.784 71.7243 146.686C72.1379 146.495 72.6136 146.8 72.9032 147.153C73.1927 147.506 73.4202 147.927 73.8364 148.131C73.9864 148.203 74.1544 148.237 74.3069 148.304C74.8369 148.536 75.1187 149.106 75.3565 149.635C75.5452 149.984 75.6554 150.371 75.6797 150.767C75.6797 151.459 75.1627 152.024 74.674 152.519L73.4228 153.809C73.1053 154.17 72.7349 154.48 72.3241 154.73C72.1173 154.853 71.8855 154.929 71.6457 154.95C71.4058 154.972 71.1641 154.94 70.9384 154.856C70.8286 154.786 70.699 154.752 70.5687 154.761C70.4713 154.795 70.3878 154.861 70.3309 154.947C70.054 155.285 69.7951 155.638 69.5553 156.004C69.3525 156.391 69.0589 156.723 68.6996 156.972C68.317 157.183 67.7405 157.114 67.5673 156.714C67.5465 156.635 67.5065 156.562 67.4509 156.502C67.2932 156.378 67.0916 156.58 66.908 156.657C66.6004 156.789 66.2385 156.531 66.1325 156.213C66.0594 155.886 66.0791 155.545 66.1894 155.228C65.9593 155.042 65.6232 155.153 65.3259 155.168C64.7132 155.202 64.8373 154.81 64.8528 154.454C64.8916 153.93 64.783 153.445 64.7778 152.929Z" fill="black"/>
<path opacity="0.05" d="M46.7225 101.593C46.2856 102.125 46.3451 103.686 46.3916 104.872C46.5338 105.004 46.676 105.13 46.8233 105.257C49.0791 107.132 51.9026 108.194 54.8375 108.27C55.4237 108.316 56.0127 108.228 56.5593 108.012C56.9584 107.815 57.3108 107.535 57.5934 107.192V107.161C57.7123 105.927 57.7976 104.565 57.0608 103.569C56.4481 102.739 55.4011 102.362 54.4058 102.091C52.8831 101.678 47.891 100.169 46.7225 101.593Z" fill="black"/>
<path opacity="0.03" d="M37.9095 134.06C37.7699 135.278 37.2348 136.408 36.7074 137.515L33.6517 143.923C33.1656 143.095 32.6615 142.187 32.7753 141.235C32.8574 140.769 33.0136 140.318 33.238 139.901L35.9086 134.246C36.1102 133.82 36.7953 131.437 37.2555 131.408C37.9431 131.38 37.9586 133.64 37.9095 134.06Z" fill="black"/>
<path opacity="0.05" d="M46.1021 89.0374C44.5303 91.5527 44.2382 94.7465 44.9879 97.6153C45.5489 99.7668 46.6657 102.001 45.9108 104.101C45.342 105.677 43.7573 107.248 44.5432 108.729C44.719 109.059 45.0034 109.333 45.1068 109.691C45.2826 110.303 44.887 110.909 44.613 111.482C43.1808 114.464 44.8922 117.893 45.7298 121.092C46.3503 123.46 46.477 125.924 46.601 128.369L45.0499 124.414C44.4085 127.733 43.0217 130.863 40.9937 133.57C42.1328 133.583 43.2643 133.757 44.3545 134.086C43.5477 133.989 42.734 134.199 42.0748 134.673C41.4157 135.147 40.9594 135.851 40.7966 136.646C40.6338 137.44 40.7764 138.267 41.1961 138.961C41.6157 139.656 42.2818 140.167 43.0619 140.394C41.4746 140.745 39.8355 139.666 39.0755 138.232C38.3154 136.798 38.256 135.103 38.3465 133.483L37.0538 133.588C38.3462 130.49 38.8959 127.133 38.6593 123.785C38.5533 122.304 38.0647 120.555 36.6428 120.119L36.2162 124.048L34.4893 120.56C34.3774 120.254 34.1652 119.994 33.887 119.822C33.6752 119.756 33.4593 119.705 33.2406 119.668C32.5607 119.459 32.297 118.574 32.509 117.898C32.721 117.222 33.2665 116.709 33.7861 116.224C35.5441 114.583 37.2969 112.834 38.2482 110.628C39.1324 108.58 39.259 106.296 39.3521 104.067C39.4624 101.455 39.5486 98.8407 39.6106 96.2247C39.6546 94.1609 39.683 92.0816 40.1277 90.0693C40.9032 86.6614 42.9714 83.4959 46.0142 81.7545C49.057 80.0132 53.0279 79.8558 56.0216 81.6642C57.8312 82.7529 59.1678 84.435 60.4733 86.0809L64.2193 90.802C64.9949 91.7797 65.7859 92.7858 66.1453 93.9777C66.8071 96.1757 65.8868 98.526 64.7648 100.536C63.6428 102.545 62.2959 104.524 62.0219 106.802C61.7065 109.436 62.8827 111.993 64.0306 114.384C65.4886 117.423 66.97 120.501 69.1648 123.06C70.2816 124.363 71.6311 125.627 71.9465 127.312C71.7086 127.505 71.4283 127.641 71.1283 127.707C70.8284 127.773 70.5171 127.767 70.2196 127.691C71.1055 131.223 71.8155 134.796 72.3498 138.407C69.17 136.314 66.0867 134.087 63.0999 131.726C62.9755 132.312 62.7049 132.858 62.3132 133.313C61.9214 133.767 61.4211 134.116 60.8585 134.326C60.768 133.325 61.117 132.34 61.1662 131.336C61.2153 130.333 60.8275 129.161 59.8735 128.859C59.3151 128.684 58.6533 128.834 58.1802 128.491C57.8338 128.233 57.6994 127.794 57.5856 127.379L55.4296 119.479C54.1192 119.417 52.8184 119.73 51.681 120.382C53.3028 119.479 54.5083 117.981 55.0418 116.205L50.5564 116.136C51.7405 115.018 52.8874 113.863 53.9973 112.671C55.6131 110.937 57.1565 109.116 58.3328 107.06C61.6341 101.299 61.6806 93.8152 58.4491 88.0132C57.914 87.0509 57.2754 86.1144 56.3809 85.4824C53.1468 83.2405 47.8756 86.2021 46.1021 89.0374Z" fill="black"/>
<path opacity="0.05" d="M37.7829 172.567L40.5801 176.331C41.7072 177.848 42.8421 179.38 44.264 180.626C47.2499 183.25 51.2441 184.429 54.442 186.818C56.4352 188.306 58.0635 190.226 59.204 192.434C59.7624 193.518 60.0959 195.068 59.1031 195.788C58.2216 196.417 57.0091 195.86 56.0836 195.3L51.0735 192.279C49.6154 191.399 48.1315 190.499 47.0147 189.214C46.1409 188.208 45.5282 187.006 44.7991 185.889C43.6828 184.179 42.2924 182.663 40.6835 181.403C39.6985 180.629 38.6153 179.95 37.7958 179.009C36.4696 177.502 35.9086 175.482 35.5105 173.514C35.3786 172.858 34.3833 168.72 35.1511 168.669C35.588 168.625 37.3925 172.041 37.7829 172.567Z" fill="black"/>
<path opacity="0.1" d="M35.6165 146.529C35.6165 146.529 46.7665 151.851 59.3694 147.174H61.1481C61.1481 147.174 66.4814 150.076 70.5195 146.689L70.8013 156.595L37.7105 155.563L35.6165 146.529Z" fill="black"/>
<path d="M97.5919 75.354C97.2532 75.1708 96.8758 74.9825 96.4983 75.0599C95.609 75.2431 95.3557 76.7368 94.4457 76.6955C94.0088 76.6749 93.696 76.2827 93.303 76.0867C92.9101 75.8906 92.2457 76.1408 92.4008 76.5485C91.6614 77.245 90.5394 75.323 89.6811 75.8648C89.4898 75.9861 89.3838 76.2079 89.1977 76.3343C88.8823 76.551 88.4532 76.4427 88.1016 76.2931C87.75 76.1434 87.3751 75.9577 87.0029 76.0351C86.6306 76.1125 86.385 76.6697 86.6952 76.8941L83.8101 76.8787C83.7364 77.0796 83.7052 77.2936 83.7185 77.5072C83.7319 77.7208 83.7895 77.9293 83.8877 78.1196L81.7833 78.1995C81.7748 78.5774 81.8792 78.9492 82.0832 79.2676C81.5073 79.1832 80.9202 79.217 80.3579 79.3669C79.7956 79.5168 79.2698 79.7798 78.8129 80.1396L79.7048 80.8258C78.8038 80.873 77.9186 81.0809 77.0911 81.4398L77.5513 82.2137C77.0418 82.2139 76.55 82.4004 76.1689 82.7379C75.7878 83.0754 75.5438 83.5406 75.4831 84.0454L76.3001 84.3524C75.818 84.4881 75.3698 84.7231 74.9842 85.0421C74.5986 85.3611 74.2842 85.7571 74.0613 86.2047L74.6895 86.4833C74.2235 87.5297 73.3759 88.3599 72.3188 88.8052C72.7961 88.9323 73.2191 89.211 73.5236 89.5991C73.8282 89.9873 73.9978 90.4638 74.007 90.9568C73.3193 90.5337 72.3628 91.1322 72.1534 91.9087C71.944 92.6852 72.2542 93.5056 72.6239 94.2306C72.8804 93.7089 72.9383 93.1121 72.7867 92.5511C72.9887 92.659 73.1642 92.8103 73.3006 92.9939C73.437 93.1776 73.531 93.3891 73.5757 93.6133C73.6204 93.8375 73.6149 94.0689 73.5594 94.2907C73.5038 94.5125 73.3998 94.7193 73.2547 94.8961C73.0558 95.0535 72.8815 95.2396 72.7376 95.4482C72.4791 95.9642 72.9263 96.5214 73.3348 96.9187C72.6859 97.2309 71.9801 97.6024 71.7294 98.2757C71.5407 98.7917 71.6518 99.3412 71.7604 99.87C71.869 100.399 71.9646 100.966 71.7604 101.459C71.5562 101.952 70.8814 102.282 70.4445 101.975C70.4074 102.223 70.4525 102.475 70.573 102.695C70.6934 102.914 70.8825 103.088 71.1114 103.191C71.3403 103.293 71.5965 103.317 71.8406 103.26C72.0848 103.203 72.3036 103.068 72.4636 102.876C72.735 102.545 73.1668 102.014 73.4253 102.36C72.3757 103.149 72.4119 104.988 73.4951 105.734C73.1487 105.54 72.7195 105.868 72.5411 106.216C72.2232 106.802 72.1921 107.586 72.6239 108.095C73.0556 108.603 73.994 108.631 74.3379 108.058C73.9759 108.799 75.0281 109.529 75.8373 109.369C76.6465 109.209 77.3057 108.595 78.1045 108.391C78.9034 108.187 80.015 108.727 79.8082 109.524C79.4856 109.372 79.1297 109.306 78.7741 109.33C78.5981 109.348 78.4348 109.43 78.3155 109.56C78.1963 109.691 78.1294 109.861 78.1278 110.037C78.7146 110.538 79.3739 111.069 80.1469 111.056C80.9198 111.043 81.6644 110.145 81.2275 109.508C81.4524 109.114 82.109 109.423 82.2461 109.857C82.3831 110.29 82.2771 110.783 82.4632 111.198C82.546 111.348 82.6636 111.476 82.8061 111.571C82.9486 111.666 83.1119 111.726 83.2823 111.745C83.4527 111.764 83.6253 111.742 83.7855 111.681C83.9457 111.62 84.0889 111.522 84.2031 111.394C84.4047 111.629 84.7821 111.551 85.0769 111.453C86.8374 110.868 88.8384 110.037 89.3399 108.254C89.495 107.697 89.4924 107.073 89.8569 106.614C90.1277 106.301 90.489 106.08 90.891 105.982C92.6671 105.442 94.5801 106.044 96.2708 106.807C97.9616 107.571 99.6316 108.52 101.47 108.716C102.674 108.845 103.941 108.652 105.063 109.106C105.342 109.256 105.646 109.353 105.96 109.392C106.276 109.392 106.627 109.155 106.591 108.843C106.568 108.647 106.41 108.497 106.317 108.327C106.267 108.222 106.238 108.108 106.233 107.992C106.227 107.876 106.245 107.76 106.286 107.652C106.327 107.543 106.389 107.443 106.469 107.359C106.549 107.274 106.645 107.207 106.751 107.161C106.719 107.416 106.754 107.674 106.852 107.912C106.951 108.149 107.109 108.357 107.312 108.515C107.522 108.664 107.779 108.732 108.035 108.707C108.291 108.682 108.529 108.565 108.706 108.378C109.031 107.981 108.876 107.272 108.39 107.109C108.852 106.848 109.192 106.416 109.337 105.907C109.483 105.398 109.421 104.852 109.166 104.387C110.409 103.665 110.699 101.725 109.717 100.675C110.275 100.395 110.723 99.9365 110.988 99.3722C111.253 98.8079 111.321 98.1709 111.18 97.5637C111.697 97.3625 112.214 97.138 112.563 96.7072C112.912 96.2763 112.958 95.5746 112.54 95.2212C113.064 93.8493 113.358 92.4008 113.411 90.9335C113.426 90.5105 113.274 89.9403 112.852 89.9635C113.209 89.3624 113.563 88.5885 113.173 88.008C113.02 87.7836 112.775 87.6288 112.656 87.3889C112.351 86.8161 112.863 86.099 112.679 85.4798C112.514 84.9148 111.87 84.6697 111.366 84.3627C110.619 83.9113 110.073 83.2018 109.37 82.6807C108.667 82.1596 107.685 81.8397 106.94 82.2911C106.847 81.5679 106.594 80.8744 106.199 80.2612C105.803 79.6479 105.276 79.1305 104.655 78.7465C103.362 77.9725 102.912 76.8297 101.162 76.6129C100.596 76.5433 99.9031 76.7548 99.368 76.5743C98.7346 76.3369 98.1865 75.6739 97.5919 75.354Z" fill="#8C5B79"/>
<path opacity="0.05" d="M94.9604 92.337C94.4045 92.889 94.8595 93.9648 94.3296 94.5401C94.071 94.8213 93.629 94.909 93.4247 95.2341C93.1662 95.6546 93.4247 96.2299 93.2593 96.6969C93.0447 97.2644 92.2692 97.4321 91.9977 97.9868C91.6616 98.6627 92.1864 99.723 91.535 100.107C91.2919 100.252 90.9404 100.234 90.7878 100.471C90.6353 100.708 90.7878 101.018 90.7878 101.299C90.7878 101.815 90.2423 102.135 89.8856 102.514C89.5288 102.894 89.4849 103.711 90.0045 103.75C89.735 104.186 89.3328 104.525 88.8567 104.718C89.3427 105.004 89.2289 105.749 88.8799 106.204C88.5309 106.658 88.0035 106.934 87.7683 107.45C87.6442 107.708 87.6003 107.996 87.4813 108.257C87.0729 109.155 85.8216 109.431 84.9271 109.013C84.0327 108.595 83.4743 107.666 83.2002 106.719C82.5953 104.632 83.1278 102.36 82.616 100.249C82.3212 99.0264 81.6801 97.8604 81.7292 96.604C81.7706 95.603 82.2463 94.6794 82.7375 93.8049C83.9545 91.6279 85.2977 89.5235 86.7601 87.5024C88.1612 85.5649 89.8623 83.5836 92.2019 83.0883C93.585 82.7968 95.0224 83.0677 96.39 83.4263C100.394 84.4788 104.267 86.3492 107.147 89.3186C108.038 90.1846 108.741 91.2232 109.215 92.3705C109.652 93.5288 109.714 94.8678 109.182 95.9822C108.877 96.622 108.37 97.2722 108.572 97.9636C108.663 98.1726 108.743 98.3861 108.812 98.6033C109.001 99.6353 107.261 100.151 107.261 101.183C107.261 101.467 107.4 101.74 107.364 102.022C107.289 102.594 106.589 102.832 106.26 103.312C105.798 104.011 106.203 105.135 105.547 105.657C105.231 105.915 104.712 105.964 104.593 106.351C104.515 106.609 104.663 106.867 104.65 107.124C104.626 107.589 104.133 107.87 103.874 108.244C103.616 108.618 103.812 109.384 104.241 109.204L103.05 110.042L103.365 110.692C103.106 111.237 102.271 111.286 101.845 110.868C101.418 110.45 101.369 109.759 101.563 109.194C101.794 108.642 102.116 108.133 102.514 107.687C103.26 106.735 103.945 105.737 104.564 104.699C105.081 103.84 105.562 102.876 105.428 101.885C105.319 101.083 104.815 100.283 105.081 99.5166L105.942 99.207L104.487 97.4992L105.213 97.3263C104.973 97.1203 104.795 96.8526 104.696 96.5524C104.654 96.4026 104.673 96.2424 104.748 96.106C104.823 95.9695 104.948 95.8677 105.097 95.8223C105.529 94.5504 103.029 93.5005 103.693 92.3137H103.037C103.027 91.6674 102.765 91.0502 102.308 90.593C101.795 90.1101 101.125 89.828 100.42 89.7984C99.575 89.7494 97.3181 89.881 96.6123 90.4356C96.1935 90.7633 96.3926 91.1606 96.1134 91.5166C95.8135 91.9551 95.3119 91.9861 94.9604 92.337Z" fill="black"/>
<path d="M108.323 126.994C108.182 127.915 107.866 128.8 107.392 129.602C106.836 130.382 106.099 131.015 105.244 131.447C104.673 131.764 104.065 132.035 103.471 132.293L99.2232 134.135C97.9095 134.862 96.3731 135.08 94.9085 134.747L87.0442 133.65C86.1032 133.519 85.1518 133.392 84.2005 133.209C83.6007 133.101 83.0035 132.974 82.4193 132.825C81.1798 132.523 79.9861 132.058 78.8698 131.442C76.4061 130.038 75.4366 127.265 75.69 124.443C75.9304 121.757 77.0162 119.779 78.9809 117.926L79.5238 117.41L79.573 117.366L80.8914 116.12L82.8174 114.314C83.6871 113.542 84.4841 112.691 85.1984 111.773C86.7779 109.611 87.3389 106.242 89.4536 104.511C91.2478 103.043 95.3221 105.159 96.9663 106.263C97.2373 106.418 97.4635 106.64 97.6229 106.908C97.7438 107.216 97.7786 107.551 97.7237 107.878C97.5362 109.909 96.9569 111.886 96.0175 113.698C95.834 114.051 95.6323 114.436 95.6995 114.828C95.7224 114.958 95.7717 115.081 95.8443 115.192C96.0696 115.484 96.3634 115.717 96.7 115.87C97.1619 116.108 97.6356 116.323 98.1193 116.512C99.8669 117.204 101.723 117.648 103.463 118.38C105.681 119.317 107.842 120.924 108.421 123.256C108.737 124.476 108.574 125.766 108.323 126.994Z" fill="#C6866B"/>
<path d="M98.1297 116.51C98.4658 117.702 100.128 123.424 101.139 123.71C101.519 123.819 103.184 127.113 105.234 131.45C109.3 140.048 114.872 152.738 114.872 152.738L91.2194 152.176L80.938 151.918L82.422 132.814L82.7167 129.022L85.3872 128.096L86.4342 127.732L86.2713 121.765C86.2713 121.765 83.9731 115.94 79.5679 117.351L80.8863 116.105C83.0553 116.082 85.4441 117.485 87.7242 121.765C87.7242 121.765 100.973 139.501 99.6809 123.055C99.6809 123.055 97.4188 115.96 95.1567 114.83L95.8496 115.176L98.1297 116.51Z" fill="#252036"/>
<path opacity="0.05" d="M96.6097 111.714C96.9294 110.67 97.1399 109.595 97.2379 108.507C97.2927 108.181 97.2579 107.846 97.137 107.537C96.9776 107.269 96.7514 107.047 96.4804 106.892C94.8362 105.788 90.7645 103.673 88.9678 105.141C88.7776 105.3 88.5988 105.472 88.4326 105.657C90.2956 108.632 93.2162 110.796 96.6097 111.714Z" fill="black"/>
<path d="M87.4296 101.364C88.5412 106.358 92.9852 110.323 98.029 111.283C99.1432 111.497 100.498 111.49 101.175 110.579C101.612 109.991 101.628 109.191 101.951 108.515C102.227 107.932 102.726 107.483 103.153 107.011C103.735 106.349 104.246 105.628 104.678 104.859C106.152 102.318 107.093 99.3902 106.839 96.4647C106.687 95.162 106.418 93.8755 106.035 92.6207C105.624 91.1115 105.133 89.4863 103.864 88.5704C101.08 86.5607 96.483 87.2263 93.5875 88.5498C90.5654 89.9326 88.4171 92.7833 87.5898 95.9539C87.1058 97.7188 87.0509 99.5734 87.4296 101.364V101.364Z" fill="#C6866B"/>
<path d="M94.9602 92.0145C94.4044 92.5666 94.8594 93.6423 94.3294 94.2176C94.0709 94.4988 93.6288 94.5866 93.4246 94.9116C93.1661 95.3321 93.4246 95.9074 93.2592 96.3744C93.0446 96.9419 92.269 97.1096 91.9976 97.6643C91.6615 98.3402 92.1863 99.4005 91.5348 99.7849C91.2918 99.9294 90.9402 99.9113 90.7877 100.149C90.6352 100.386 90.7877 100.696 90.7877 100.977C90.7877 101.493 90.2422 101.813 89.8855 102.192C89.5287 102.571 89.4847 103.389 90.0044 103.428C89.7349 103.864 89.3327 104.203 88.8565 104.395C89.3426 104.681 89.2288 105.427 88.8798 105.881C88.5308 106.335 88.0163 106.637 87.7707 107.143C87.6467 107.401 87.6027 107.689 87.4838 107.95C87.0753 108.848 85.8241 109.124 84.9296 108.706C84.0351 108.288 83.4767 107.359 83.2027 106.412C82.5977 104.325 83.1303 102.053 82.6184 99.9423C82.3237 98.7194 81.6826 97.5534 81.7317 96.297C81.773 95.296 82.2487 94.3724 82.7399 93.4979C83.957 91.3209 85.3001 89.2165 86.7625 87.1954C88.1637 85.2579 89.8648 83.2766 92.2044 82.7813C93.5875 82.4898 95.0249 82.7607 96.3924 83.1193C100.397 84.1718 104.27 86.0422 107.15 89.0116C108.04 89.8776 108.744 90.9162 109.218 92.0635C109.655 93.2218 109.717 94.5608 109.184 95.6752C108.879 96.315 108.372 96.9652 108.574 97.6566C108.665 97.8656 108.745 98.0791 108.814 98.2963C109.003 99.3283 107.263 99.8442 107.263 100.876C107.263 101.16 107.403 101.433 107.367 101.715C107.292 102.287 106.591 102.525 106.263 103.005C105.8 103.704 106.206 104.828 105.549 105.35C105.234 105.608 104.714 105.657 104.595 106.044C104.518 106.302 104.665 106.56 104.652 106.817C104.629 107.282 104.135 107.563 103.877 107.937C103.618 108.311 103.815 109.077 104.244 108.897L103.052 109.735L103.367 110.385C103.109 110.93 102.274 110.979 101.847 110.561C101.421 110.143 101.372 109.451 101.565 108.887C101.797 108.335 102.118 107.826 102.517 107.38C103.262 106.428 103.947 105.43 104.567 104.392C105.084 103.533 105.565 102.569 105.43 101.578C105.322 100.776 104.818 99.9758 105.084 99.2096L105.945 98.9L104.489 97.1922L105.216 97.0193C104.976 96.8133 104.797 96.5456 104.699 96.2454C104.657 96.0956 104.675 95.9354 104.75 95.799C104.825 95.6625 104.95 95.5607 105.099 95.5153C105.531 94.2434 103.031 93.1935 103.696 92.0067H103.039C103.029 91.3604 102.768 90.7432 102.31 90.286C101.797 89.8031 101.127 89.521 100.423 89.4914C99.5774 89.4424 97.3205 89.574 96.6148 90.1286C96.196 90.4563 96.395 90.8536 96.1158 91.2096C95.8134 91.6327 95.3118 91.6636 94.9602 92.0145Z" fill="#8C5B79"/>
<path d="M160.79 187.808C160.483 189.356 159.523 190.953 158.683 192.274C158.559 192.468 158.44 192.661 158.319 192.855L158.13 193.164C156.757 195.423 155.589 197.8 154.64 200.266C154.418 200.842 154.208 201.42 154.017 202H143.586C142.882 200.929 142.551 199.709 142.293 198.517C141.877 196.535 141.653 194.518 141.623 192.493C141.602 191.181 141.663 189.869 141.807 188.564C141.807 188.446 141.835 188.327 141.851 188.206C142.052 186.702 142.523 185.11 144.046 184.189C144.167 184.114 144.292 184.046 144.421 183.985C144.455 183.965 144.49 183.948 144.527 183.934C145.221 183.633 145.945 183.409 146.688 183.265C147.758 183.028 148.842 182.834 149.94 182.682L150.286 182.638C150.895 182.559 151.507 182.495 152.122 182.445C152.471 182.414 152.82 182.388 153.172 182.368C155.033 182.262 157.049 182.316 158.538 183.188C159.735 183.895 160.4 184.72 160.697 185.605C160.713 185.649 160.728 185.696 160.741 185.742C160.923 186.417 160.94 187.126 160.79 187.808V187.808Z" fill="#0E0D15"/>
<path d="M176.467 187.744C175.459 188.581 174.69 189.668 174.239 190.896C174.187 191.023 174.14 191.154 174.096 191.278C173.51 192.976 173.342 194.862 173.238 196.634C173.135 198.406 173.029 200.212 172.925 202H154.741C154.697 201.422 154.661 200.844 154.64 200.266C154.578 198.786 154.584 197.304 154.658 195.821C154.68 194.83 154.818 193.845 155.069 192.885C155.1 192.782 155.131 192.679 155.167 192.576C155.204 192.473 155.268 192.3 155.325 192.163C156.142 190.236 157.936 188.851 159.896 188.105C160.191 187.994 160.488 187.896 160.79 187.808C162.494 187.313 164.298 187.182 166.08 187.125C168.962 187.032 173.918 186.446 176.467 187.744Z" fill="#0E0D15"/>
<path d="M155.234 116.138C155.269 116.88 155.177 117.623 154.963 118.334C154.534 119.528 153.458 120.398 152.272 120.857C151.085 121.316 149.787 121.373 148.518 121.373C146.876 121.35 145.013 121.264 143.865 122.428C143.12 123.174 142.867 124.26 142.644 125.289C141.84 128.999 141.057 132.992 142.538 136.488C143.477 138.707 145.271 140.497 147.35 141.72C149.428 142.943 151.786 143.626 154.164 144.042C155.109 144.212 156.068 144.297 157.029 144.297C160.307 144.266 163.368 142.749 166.294 141.286C166.944 141.006 167.538 140.612 168.049 140.123C168.507 139.566 168.858 138.929 169.083 138.245C170.657 134.251 172.077 130.203 173.344 126.099C173.68 125.01 174.008 123.896 173.988 122.745C173.967 121.595 173.546 120.423 172.636 119.732C171.247 118.7 169.308 119.103 167.581 119.301C167.46 119.34 167.33 119.349 167.204 119.329C167.078 119.308 166.959 119.258 166.856 119.182C166.753 119.107 166.669 119.008 166.611 118.894C166.554 118.781 166.524 118.655 166.524 118.527C166.033 116.658 165.972 114.702 166.346 112.805C166.581 111.624 166.969 110.339 166.416 109.268C165.655 107.798 163.649 107.638 161.99 107.674L159.146 107.736C158.727 107.709 158.307 107.792 157.931 107.978C157.295 108.371 156.861 109.01 156.196 109.405C155.64 109.738 155.291 109.697 155.061 110.344C154.831 110.992 155.154 112.297 155.18 113.001C155.222 114.054 155.24 115.1 155.234 116.138Z" fill="#FDBE92"/>
<path opacity="0.05" d="M147.295 134.342C147.684 134.907 148.157 135.411 148.697 135.835C149.819 136.63 151.341 136.671 152.66 136.274C153.978 135.877 155.139 135.095 156.279 134.324L165.606 128.008C166.899 127.136 168.192 126.256 169.668 125.751C170.043 125.587 170.461 125.549 170.86 125.642C171.237 125.812 171.557 126.09 171.777 126.44C173.011 128.031 174.267 129.664 174.88 131.579C175.459 133.356 175.454 135.263 175.433 137.13C175.405 139.683 175.361 142.235 175.301 144.787C175.267 146.229 175.223 147.69 174.805 149.07C174.215 151.018 172.902 152.723 172.556 154.727C172.196 156.804 172.923 158.896 173.59 160.901C176.29 169.116 178.014 177.62 178.724 186.237C178.789 187.037 178.835 187.894 178.434 188.587C178.116 189.142 177.558 189.516 177.005 189.841C169.921 194.013 161.116 193.69 152.962 192.63C151.295 192.413 149.537 192.132 148.249 191.054C147.337 190.28 146.763 189.204 146.241 188.136C143.746 183.028 141.877 177.453 142.104 171.777C142.223 169.918 142.444 168.066 142.769 166.231C143.286 162.923 143.737 159.608 144.123 156.286C144.41 153.863 144.656 151.345 143.865 149.034C143.069 146.637 141.218 144.684 140.483 142.259C139.405 138.686 140.91 134.814 142.363 131.571C142.828 130.539 145.207 121.768 145.656 121.695C146.975 121.458 146.241 132.959 147.295 134.342Z" fill="black"/>
<path d="M147.295 134.022C147.684 134.587 148.157 135.091 148.697 135.515C149.819 136.31 151.341 136.351 152.66 135.954C153.978 135.557 155.139 134.775 156.279 134.004L165.607 127.688C166.899 126.816 168.192 125.937 169.668 125.431C170.043 125.267 170.461 125.229 170.86 125.323C171.237 125.493 171.557 125.77 171.777 126.12C173.011 127.711 174.267 129.344 174.88 131.259C175.459 133.036 175.454 134.943 175.433 136.81C175.405 139.363 175.361 141.915 175.301 144.467C175.268 145.91 175.224 147.37 174.805 148.75C174.215 150.698 172.902 152.403 172.556 154.407C172.196 156.484 172.923 158.576 173.59 160.581C176.291 168.796 178.014 177.3 178.724 185.917C178.789 186.717 178.835 187.574 178.434 188.268C178.116 188.822 177.558 189.196 177.005 189.521C169.921 193.693 161.116 193.37 152.962 192.31C151.297 192.093 149.532 191.81 148.239 190.731C147.326 189.957 146.753 188.882 146.23 187.814C143.736 182.705 141.867 177.13 142.094 171.455C142.212 169.595 142.434 167.743 142.758 165.908C143.275 162.601 143.727 159.286 144.113 155.963C144.4 153.541 144.646 151.023 143.855 148.711C143.04 146.315 141.187 144.362 140.455 141.939C139.377 138.366 140.882 134.494 142.334 131.251C142.8 130.219 145.178 121.448 145.628 121.375C146.975 121.135 146.241 132.636 147.295 134.022Z" fill="#252036"/>
<path opacity="0.05" d="M180.841 120.527C180.696 121.917 180.42 123.346 179.621 124.497C178.468 126.156 176.451 126.948 174.556 127.652L168.502 129.894C167.348 130.358 166.158 130.728 164.945 130.998C164.364 131.11 163.775 131.179 163.184 131.205C160.88 131.262 158.591 130.813 156.481 129.889C153.818 128.772 151.429 127.1 149.144 125.335C147.74 124.249 146.362 123.117 145.217 121.765C144.333 120.733 143.565 119.459 143.627 118.094C143.691 117.437 143.844 116.792 144.082 116.177C144.951 113.545 145.587 110.842 145.985 108.1C146.407 105.182 146.546 102.231 146.398 99.287C146.344 98.206 146.248 97.1225 146.398 96.0493C146.915 92.2002 148.234 89.5533 151.31 87.1876C151.964 86.6871 154.64 86.0551 155.431 85.8255L155.578 85.7894C156.998 85.4979 159.784 86.473 161.098 86.9193C163.62 87.766 165.818 89.3699 167.391 91.5113C168.965 93.6527 169.837 96.2271 169.887 98.882C169.908 99.8365 169.875 100.923 170.438 101.645C170.509 101.74 170.591 101.826 170.681 101.903C170.997 102.161 171.4 102.318 171.731 102.569C172.646 103.262 172.796 104.581 172.643 105.716C172.491 106.851 172.111 107.981 172.261 109.116C172.295 109.37 172.354 109.619 172.436 109.862C172.762 110.837 173.419 111.701 174.06 112.524L176.658 115.878C177.131 116.487 177.656 117.132 178.388 117.361L178.463 117.384C178.905 117.503 179.383 117.459 179.804 117.642C180.833 118.047 180.955 119.428 180.841 120.527Z" fill="black"/>
<path d="M116.482 85.0051C113.15 87.2289 112.214 91.5811 110.828 95.3244C110.293 96.7691 109.655 98.188 109.35 99.7101C108.964 101.604 109.122 103.559 109.091 105.491C108.97 109.555 107.966 113.543 106.148 117.18C104.33 120.818 101.741 124.018 98.5615 126.558L117.64 132.234C118.85 132.618 120.081 132.932 121.327 133.176C123.137 133.493 124.977 133.511 126.813 133.526L138.493 133.63C139.374 133.63 140.406 133.573 140.902 132.856C141.124 132.486 141.227 132.057 141.197 131.628C141.156 129.267 139.356 127.348 138.472 125.16C137.05 121.641 140.3 118.409 140.178 114.616C140.121 112.854 140.062 110.249 140.178 108.489C140.437 104.416 140.478 100.696 140.013 96.6375C139.496 92.0816 135.465 88.8516 131.756 86.1428C127.723 83.1992 120.893 82.0719 116.482 85.0051Z" fill="#D94B25"/>
<path d="M120.774 103.797L120.693 117.101C118.522 117.214 116.367 117.54 114.259 118.073C112.497 118.512 110.961 119.589 109.951 121.096C108.941 122.602 108.53 124.43 108.796 126.223L111.322 143.384L138.63 144.996V128.387C138.238 126.519 137.14 124.872 135.564 123.789C133.988 122.707 132.055 122.271 130.166 122.572L129.095 122.743L131.52 108.876L120.774 103.797Z" fill="#FFC095"/>
<path d="M114.714 116.778C114.714 116.778 120.207 127.905 120.693 130.162C121.179 132.42 110.676 140.322 109.22 139.514C107.765 138.707 107.928 158.54 107.928 158.54L136.044 155.798L136.691 151.766C136.691 151.766 143.963 148.701 137.337 136.447L135.398 135.639C135.398 135.639 133.782 142.089 121.663 129.835L115.846 116.291L114.714 116.778Z" fill="#252036"/>
<path opacity="0.05" d="M136.448 151.526C136.448 151.526 130.954 152.011 130.468 150.881L129.499 150.718C129.499 150.718 127.883 154.266 112.695 150.556L107.91 150.393L106.875 152.818L136.492 153.786L136.448 151.526Z" fill="black"/>
<path opacity="0.05" d="M121.048 112.748C121.376 112.977 121.73 113.168 122.102 113.316C123.023 113.672 124.034 113.703 125.019 113.729C126.795 113.775 128.721 113.78 130.15 112.728C130.798 112.234 131.31 111.586 131.639 110.842L131.841 109.684L121.094 104.612L121.048 112.748Z" fill="black"/>
<path d="M114.373 96.6143C114.047 99.2738 114.357 101.972 115.278 104.489C116.199 107.006 117.705 109.269 119.672 111.092C120.279 111.686 120.991 112.163 121.771 112.498C122.692 112.854 123.703 112.885 124.688 112.911C126.464 112.957 128.39 112.963 129.819 111.91C131.515 110.664 131.96 108.368 132.278 106.291L133.27 99.8133C133.56 97.9274 133.829 95.8971 132.965 94.1944C131.492 91.2792 125.799 88.5885 122.594 88.9239C118.393 89.3702 114.926 92.4866 114.373 96.6143Z" fill="#FFC095"/>
<path opacity="0.05" d="M118.527 94.6046C117.614 96.5317 116.976 98.6807 117.317 100.796C117.609 102.602 118.589 104.191 119.574 105.724C121.802 109.186 124.245 112.741 124.695 116.832C124.856 118.295 124.742 119.822 124.103 121.146C123.465 122.469 122.239 123.563 120.784 123.8C120.384 123.888 119.966 123.841 119.595 123.669C119.137 123.411 118.889 122.923 118.656 122.462C117.537 120.238 112.229 119.6 109.784 120.096C109.442 120.165 112.382 118.548 112.038 118.499C111.035 118.352 110.851 116.997 110.924 115.989L112.333 96.5214C112.413 95.4198 112.496 94.3028 112.85 93.2554C114.142 89.4837 118.607 87.7629 122.601 87.6494C123.841 87.5975 125.082 87.7068 126.293 87.9745C129.08 88.6323 131.512 90.3969 133.397 92.5485C134.69 94.0319 135.786 95.7552 136.215 97.6772C136.706 99.8778 136.305 102.169 135.938 104.385C134.211 114.846 133.268 125.779 136.484 135.882C133.426 136.501 130.075 134.334 129.387 131.3C129.113 130.087 129.222 128.826 129.331 127.59C129.747 122.859 130.163 118.125 130.882 113.432C131.438 109.857 132.174 106.289 132.226 102.669C132.267 99.7178 131.758 96.5627 129.757 94.3879C126.502 90.8278 120.851 89.703 118.527 94.6046Z" fill="black"/>
<path d="M118.527 94.2925C117.614 96.2196 116.976 98.3686 117.317 100.484C117.609 102.29 118.589 103.879 119.574 105.411C121.802 108.874 124.245 112.429 124.695 116.52C124.856 117.983 124.742 119.51 124.103 120.834C123.465 122.157 122.239 123.251 120.784 123.488C120.384 123.575 119.966 123.529 119.595 123.357C119.137 123.099 118.889 122.611 118.656 122.149C117.537 119.926 112.229 119.288 109.784 119.784C109.442 119.853 112.382 118.236 112.038 118.187C111.035 118.04 110.851 116.685 110.924 115.677L112.333 96.2093C112.413 95.1077 112.496 93.9906 112.85 92.9432C114.142 89.1715 118.607 87.4508 122.601 87.3373C123.841 87.2854 125.082 87.3946 126.293 87.6623C129.08 88.3202 131.512 90.0848 133.397 92.2363C134.69 93.7197 135.786 95.4431 136.215 97.365C136.706 99.5656 136.305 101.856 135.938 104.073C134.211 114.534 133.268 125.467 136.484 135.57C133.426 136.189 130.075 134.022 129.387 130.988C129.113 129.775 129.222 128.514 129.331 127.278C129.747 122.547 130.163 117.813 130.882 113.12C131.438 109.544 132.174 105.976 132.226 102.357C132.267 99.4057 131.758 96.2505 129.757 94.0758C126.502 90.5053 120.851 89.3908 118.527 94.2925Z" fill="#D94B25"/>
<path d="M152.122 153.721H52.9065V202H152.122V153.721Z" fill="#F3F0DD"/>
<path d="M30.1127 120.635C29.2725 121.066 28.4142 121.502 27.7602 122.183C27.1061 122.864 26.6692 123.816 26.3254 124.737C25.4852 126.992 24.963 129.35 24.4433 131.702C22.5897 140.082 20.731 148.51 20.3277 157.08C20.2268 159.196 20.2217 161.342 20.7465 163.393C21.3204 165.632 22.5096 167.663 23.7634 169.608C27.8194 175.892 32.7065 181.602 38.2923 186.583C38.6367 186.858 38.9367 187.184 39.1816 187.55C39.3611 187.902 39.5057 188.27 39.6134 188.649C40.6475 191.593 43.5326 193.417 46.2186 195.014C47.2966 195.654 48.4057 196.304 49.644 196.513C50.2826 196.618 50.9366 196.606 51.5493 196.848C52.4852 197.222 53.1005 198.138 54.0001 198.6C54.8998 199.062 56.3992 198.517 56.1562 197.539C56.999 198.187 58.351 196.815 57.6866 195.992C58.351 196.417 59.2714 195.713 59.3567 194.929C59.442 194.144 58.9973 193.409 58.5811 192.746C57.1231 190.473 55.6159 188.149 53.4288 186.555C51.0892 184.86 48.1601 184.155 45.7507 182.561C43.4085 181.013 41.6816 178.715 40.0322 176.444C36.6576 171.801 33.3977 167.078 30.2523 162.276C29.8387 161.644 29.4173 160.986 29.2751 160.251C29.1329 159.515 29.2751 158.703 29.4457 157.955C30.9828 150.799 33.1614 143.796 35.9553 137.03C36.6716 135.197 37.5362 133.426 38.5405 131.733C39.9314 129.486 41.7358 127.51 43.075 125.232C44.4141 122.954 45.2802 120.207 44.5434 117.668C43.8273 115.197 40.6656 112.573 38.3673 114.456C37.0747 115.506 36.1802 116.941 34.7687 117.942C33.2839 118.95 31.7278 119.851 30.1127 120.635Z" fill="#FFC095"/>
<path d="M111.604 168.333C111.013 166.935 110.155 165.664 109.078 164.593C108.576 164.092 108.03 163.636 107.447 163.233L107.398 163.197C105.836 162.135 104.043 161.461 102.167 161.233C100.292 161.004 98.3887 161.228 96.6173 161.884C96.538 161.911 96.4579 161.942 96.3769 161.977C96.2993 162.005 96.2218 162.039 96.1468 162.07C93.6773 163.11 91.6364 164.958 90.3602 167.31C89.084 169.662 88.6486 172.378 89.1256 175.01C89.6027 177.642 90.9638 180.034 92.9848 181.791C95.0059 183.548 97.5663 184.566 100.244 184.676V190.54H93.8847V191.526H100.244V197.872H101.235V191.526H107.592V190.54H101.232V184.671C103.134 184.59 104.989 184.051 106.637 183.099C108.285 182.148 109.678 180.813 110.697 179.208C111.716 177.603 112.331 175.775 112.489 173.882C112.647 171.988 112.343 170.084 111.604 168.333V168.333ZM100.746 183.701C98.1797 183.699 95.698 182.786 93.7447 181.125C91.7915 179.464 90.494 177.164 90.0846 174.636C89.6751 172.108 90.1803 169.517 91.5098 167.327C92.8393 165.137 94.9063 163.49 97.3412 162.681L97.5402 162.614C98.5786 162.294 99.6592 162.131 100.746 162.131C102.51 162.129 104.248 162.56 105.805 163.388L105.857 163.416C107.978 164.552 109.658 166.363 110.631 168.561C111.604 170.758 111.813 173.217 111.226 175.547C110.639 177.877 109.289 179.945 107.391 181.422C105.492 182.899 103.153 183.701 100.746 183.701V183.701Z" fill="#6C63FF"/>
<path d="M43.1421 90.2447C42.2011 92.6827 42.7155 95.4044 43.2429 97.9842C43.5454 99.4521 43.8556 100.943 44.5717 102.262C45.1505 103.289 45.9158 104.199 46.8286 104.947C49.0844 106.822 51.9078 107.884 54.8428 107.96C55.4289 108.007 56.0179 107.919 56.5646 107.702C57.2522 107.388 57.7279 106.753 58.1726 106.154C59.2971 104.607 60.432 103.059 61.205 101.325C62.5933 98.2009 62.7303 94.6872 62.8441 91.2638C62.8957 90.7597 62.8429 90.2503 62.6889 89.7675C62.5613 89.4801 62.3942 89.2118 62.1926 88.9703C60.1244 86.2744 56.1664 81.948 52.4179 83.2096C48.9278 84.3653 44.5381 86.6252 43.1421 90.2447Z" fill="#FFC095"/>
<path opacity="0.05" d="M53.1676 197.005C52.5678 196.766 51.9008 196.778 51.2623 196.67C50.024 196.464 48.9149 195.811 47.8369 195.171C45.1482 193.574 42.2683 191.75 41.2316 188.807C41.1239 188.427 40.9793 188.059 40.7999 187.708C40.5549 187.342 40.255 187.015 39.9106 186.74C34.3247 181.76 29.4377 176.05 25.3817 169.765C24.1278 167.82 22.9386 165.79 22.3647 163.55C21.8477 161.499 21.8477 159.353 21.9459 157.238C22.3492 148.667 24.208 140.239 26.0616 131.86C26.5786 129.51 27.0957 127.152 27.9436 124.894C28.2874 123.973 28.6959 123.05 29.3784 122.34C30.0609 121.631 30.8908 121.223 31.731 120.792C33.3453 120.007 34.9005 119.106 36.3843 118.096C37.7959 117.096 38.6981 115.661 39.983 114.611C40.2668 114.378 40.5935 114.203 40.9447 114.095C40.505 113.958 40.0377 113.933 39.5859 114.023C39.1342 114.113 38.7124 114.316 38.3595 114.611C37.0668 115.661 36.1724 117.096 34.7608 118.096C33.2769 119.106 31.7217 120.007 30.1074 120.792C29.2672 121.223 28.409 121.659 27.7549 122.34C27.1008 123.021 26.6639 123.973 26.3201 124.894C25.4799 127.149 24.9577 129.507 24.4381 131.86C22.5974 140.239 20.7283 148.665 20.325 157.24C20.2242 159.356 20.219 161.502 20.7438 163.553C21.3177 165.792 22.5069 167.823 23.7607 169.768C27.8167 176.052 32.7038 181.762 38.2897 186.743C38.634 187.018 38.934 187.344 39.179 187.71C39.3584 188.062 39.503 188.43 39.6107 188.809C40.6448 191.753 43.5299 193.577 46.2159 195.174C47.294 195.814 48.403 196.464 49.6413 196.673C50.2799 196.778 50.934 196.766 51.5467 197.008C52.4825 197.382 53.0978 198.298 53.9974 198.76C54.2452 198.871 54.5144 198.926 54.7859 198.922C55.0575 198.918 55.3249 198.855 55.5693 198.737C54.6954 198.259 54.0879 197.374 53.1676 197.005Z" fill="black"/>
<path d="M46.1021 88.7149C44.5303 91.2302 44.2382 94.424 44.9879 97.2928C45.5489 99.4444 46.6657 101.678 45.9108 103.778C45.342 105.355 43.7573 106.926 44.5432 108.407C44.719 108.737 45.0034 109.01 45.1068 109.369C45.2826 109.98 44.887 110.587 44.613 111.159C43.1808 114.142 44.8922 117.57 45.7298 120.769C46.3503 123.137 46.477 125.601 46.601 128.047L45.0499 124.092C44.4108 127.41 43.0267 130.54 41.0015 133.248C42.1405 133.26 43.272 133.434 44.3623 133.764C43.5555 133.667 42.7417 133.876 42.0826 134.35C41.4235 134.825 40.9672 135.529 40.8044 136.323C40.6416 137.118 40.7842 137.944 41.2038 138.639C41.6235 139.333 42.2895 139.844 43.0696 140.071C41.4823 140.422 39.8433 139.344 39.0832 137.91C38.3232 136.475 38.2637 134.78 38.3542 133.16L37.0616 133.266C38.3539 130.167 38.9036 126.81 38.667 123.463C38.561 121.982 38.0724 120.233 36.6505 119.797L36.224 123.726L34.4893 120.238C34.3774 119.931 34.1652 119.671 33.887 119.5C33.6752 119.434 33.4593 119.382 33.2406 119.345C32.5607 119.136 32.297 118.251 32.509 117.575C32.721 116.899 33.2665 116.386 33.7861 115.901C35.5441 114.26 37.2969 112.511 38.2482 110.305C39.1324 108.257 39.259 105.974 39.3521 103.745C39.4624 101.132 39.5486 98.5182 39.6106 95.9023C39.6546 93.8384 39.683 91.7591 40.1277 89.7468C40.9032 86.3389 42.9714 83.1734 46.0142 81.4321C49.057 79.6907 53.0279 79.5333 56.0216 81.3418C57.8312 82.4304 59.1678 84.1125 60.4733 85.7584L64.2193 90.4795C64.9949 91.4572 65.786 92.4634 66.1453 93.6552C66.8071 95.8533 65.8868 98.2035 64.7648 100.213C63.6428 102.223 62.2959 104.202 62.0219 106.48C61.7065 109.114 62.8827 111.67 64.0306 114.062C65.4886 117.101 66.97 120.178 69.1648 122.738C70.2816 124.04 71.6311 125.305 71.9465 126.989C71.7086 127.183 71.4283 127.318 71.1284 127.384C70.8284 127.45 70.5171 127.445 70.2196 127.368C71.1106 130.901 71.8233 134.472 72.3576 138.082C69.1778 135.991 66.0936 133.764 63.1051 131.401C62.9806 131.988 62.7094 132.535 62.3167 132.99C61.924 133.445 61.4224 133.794 60.8585 134.004C60.768 133.003 61.117 132.017 61.1662 131.014C61.2153 130.01 60.8275 128.839 59.8736 128.537C59.3151 128.362 58.6533 128.511 58.1802 128.168C57.8338 127.91 57.6994 127.472 57.5856 127.056L55.4296 119.157C54.1193 119.094 52.8184 119.407 51.681 120.06C53.3028 119.156 54.5083 117.658 55.0418 115.883L50.5564 115.813C51.7405 114.695 52.8874 113.541 53.9974 112.349C55.6131 110.615 57.1565 108.794 58.3328 106.738C61.6341 100.977 61.6806 93.4927 58.4491 87.6907C57.914 86.7284 57.2754 85.792 56.3809 85.1599C53.1468 82.918 47.8756 85.8797 46.1021 88.7149Z" fill="#D67820"/>
<path opacity="0.05" d="M65.2534 152.444C65.2534 151.755 65.5843 151.113 65.9256 150.515C66.3961 149.694 66.9011 148.894 67.4405 148.115C67.8278 147.483 68.3397 146.935 68.9451 146.505C69.5733 146.113 70.4135 145.989 71.0546 146.351C71.195 146.462 71.363 146.533 71.5407 146.557C71.7992 146.557 71.9698 146.299 72.1999 146.201C72.6135 146.01 73.0892 146.315 73.3787 146.668C73.6683 147.021 73.8958 147.442 74.312 147.646C74.462 147.718 74.63 147.752 74.7825 147.819C75.3125 148.051 75.5943 148.621 75.8321 149.15C76.0207 149.499 76.131 149.886 76.1553 150.282C76.1553 150.974 75.6382 151.539 75.1496 152.034L73.8984 153.324C73.5809 153.685 73.2104 153.995 72.7997 154.245C72.5929 154.368 72.3611 154.444 72.1212 154.465C71.8814 154.487 71.6397 154.455 71.414 154.371C71.3042 154.301 71.1746 154.267 71.0443 154.276C70.9469 154.31 70.8634 154.376 70.8065 154.462C70.5296 154.8 70.2707 155.154 70.0309 155.519C69.8281 155.906 69.5345 156.238 69.1752 156.487C68.7926 156.698 68.2161 156.629 68.0429 156.229C68.0221 156.15 67.9821 156.077 67.9265 156.017C67.7688 155.893 67.5672 156.095 67.3836 156.172C67.076 156.304 66.7141 156.046 66.6081 155.728C66.5349 155.401 66.5546 155.06 66.6649 154.743C66.4349 154.557 66.0988 154.668 65.8015 154.684C65.1888 154.717 65.3129 154.325 65.3284 153.969C65.3775 153.448 65.2663 152.96 65.2534 152.444Z" fill="black"/>
<path d="M65.1008 152.767C65.1008 152.078 65.4317 151.436 65.773 150.837C66.2435 150.017 66.7485 149.217 67.2879 148.438C67.6752 147.805 68.1871 147.258 68.7925 146.828C69.4207 146.436 70.2609 146.312 70.9021 146.673C71.0424 146.784 71.2104 146.856 71.3881 146.88C71.6466 146.88 71.8172 146.622 72.0473 146.524C72.4609 146.333 72.9366 146.637 73.2262 146.99C73.5157 147.344 73.7432 147.764 74.1594 147.968C74.3094 148.04 74.4774 148.074 74.6299 148.141C75.1599 148.373 75.4417 148.943 75.6795 149.472C75.8682 149.822 75.9784 150.208 76.0027 150.605C76.0027 151.296 75.4856 151.861 74.997 152.357L73.7458 153.646C73.4283 154.007 73.0579 154.318 72.6471 154.567C72.4403 154.691 72.2085 154.766 71.9686 154.788C71.7288 154.81 71.4871 154.778 71.2614 154.694C71.1516 154.623 71.022 154.59 70.8917 154.598C70.7943 154.633 70.7108 154.698 70.6539 154.784C70.377 155.123 70.1181 155.476 69.8783 155.842C69.6755 156.229 69.3819 156.56 69.0226 156.809C68.64 157.021 68.0635 156.951 67.8903 156.551C67.8695 156.472 67.8295 156.4 67.7739 156.34C67.6162 156.216 67.4146 156.417 67.231 156.495C66.9234 156.626 66.5615 156.368 66.4555 156.051C66.3824 155.723 66.4021 155.382 66.5124 155.065C66.2823 154.88 65.9462 154.99 65.6489 155.006C65.0362 155.04 65.1603 154.647 65.1758 154.291C65.2146 153.77 65.106 153.283 65.1008 152.767Z" fill="#FFC095"/>
<path opacity="0.05" d="M108.494 139.757L92.8403 151.853L81.9824 160.235C75.3565 166.362 73.2573 157.655 73.2573 157.655L74.8731 132.34C74.8136 125.854 75.8813 122.072 77.2748 119.887C78.4252 118.081 79.7979 117.369 80.9406 117.121L81.1319 117.085C81.8452 116.954 82.5793 116.987 83.2776 117.183C87.931 119.002 87.7707 124.177 86.9978 127.786C86.7271 129.066 86.3474 130.32 85.8628 131.535C85.8772 131.988 85.8608 132.441 85.8137 132.892C85.4957 137.004 83.9239 147.984 83.9239 147.984L102.667 135.245L108.494 139.757Z" fill="black"/>
<path d="M108.008 139.757L92.3543 151.853L81.4963 160.235C74.8704 166.362 72.7712 157.655 72.7712 157.655L74.387 132.34C74.3275 125.854 75.3952 122.072 76.7887 119.887C77.9391 118.081 79.3118 117.369 80.4545 117.121L80.6458 117.085C81.3592 116.954 82.0932 116.987 82.7915 117.183C87.4449 119.002 87.2847 124.177 86.5117 127.786C86.241 129.066 85.8613 130.32 85.3768 131.535C85.3911 131.988 85.3747 132.441 85.3276 132.892C85.0097 137.004 83.4378 147.984 83.4378 147.984L102.181 135.245L108.008 139.757Z" fill="#C6866B"/>
<path opacity="0.05" d="M103.241 131.13C103.241 131.13 94.8387 150.641 96.1313 159.833C96.1313 159.833 94.1924 165.477 109.704 162.898L131.678 158.06L137.658 159.513L138.95 161.125V165.64C138.95 165.64 140.729 166.93 141.212 165.64C141.696 164.35 141.212 160.963 141.212 160.963L142.345 162.898L142.831 166.767C142.831 166.767 144.123 167.735 144.609 166.767L143.96 161.11C143.96 161.11 146.546 166.432 147.678 165.947C148.81 165.462 146.222 159.335 146.222 159.335C146.728 159.334 147.224 159.468 147.66 159.723C148.096 159.977 148.457 160.343 148.704 160.782C149.221 161.677 149.888 162.588 150.423 162.24C151.393 161.595 150.423 159.82 150.423 159.82L148.161 156.595C145.014 154.187 141.171 152.857 137.205 152.803L108.251 152.403C108.251 152.403 112.291 142.889 112.615 138.214C112.615 138.214 112.778 135.312 116.332 133.377C119.887 131.442 107.442 114.198 103.241 131.13Z" fill="black"/>
<path d="M115.197 120.808C115.197 120.808 107.118 114.196 102.917 131.127C102.917 131.127 94.5154 150.638 95.808 159.83C95.808 159.83 93.8691 165.475 109.38 162.895L131.355 158.058L137.334 159.51L138.627 161.123V165.637C138.627 165.637 140.406 166.927 140.889 165.637C141.373 164.348 140.889 160.96 140.889 160.96L142.021 162.895L142.507 166.765C142.507 166.765 143.8 167.732 144.286 166.765L143.637 161.11C143.637 161.11 146.222 166.432 147.355 165.947C148.487 165.462 145.912 159.348 145.912 159.348C146.417 159.347 146.914 159.481 147.35 159.735C147.786 159.99 148.146 160.356 148.394 160.795C148.911 161.69 149.578 162.601 150.113 162.253C151.083 161.608 150.113 159.833 150.113 159.833L147.851 156.608C144.703 154.2 140.861 152.87 136.895 152.816L107.94 152.416C107.94 152.416 111.981 142.901 112.304 138.227C112.304 138.227 112.467 135.325 116.022 133.39C119.577 131.455 115.197 120.808 115.197 120.808Z" fill="#FFC095"/>
<path opacity="0.05" d="M169.329 122.26C169.329 122.26 180.802 113.876 181.286 129.677L181.935 162.4L163.512 182.084C163.512 182.084 162.38 185.794 158.988 186.116L155.271 190.631C155.271 190.631 153.492 190.793 153.815 190.146C154.138 189.498 156.4 185.146 156.4 185.146L151.553 191.596C151.553 191.596 150.098 191.111 150.584 190.628C150.584 190.628 148.968 192.403 148.645 190.791C148.322 189.178 148.645 189.501 148.645 189.501C148.645 189.501 146.543 191.113 147.029 188.856C147.515 186.598 151.716 179.341 152.199 179.341C152.683 179.341 158.339 178.856 158.339 178.856L173.851 159.99C173.851 159.99 168.68 138.062 167.225 130.322C165.769 122.583 169.329 122.26 169.329 122.26Z" fill="black"/>
<path d="M169.652 122.26C169.652 122.26 181.126 113.876 181.609 129.677L182.258 162.4L163.836 182.084C163.836 182.084 162.703 185.794 159.311 186.116L155.594 190.631C155.594 190.631 153.815 190.793 154.138 190.146C154.462 189.498 156.724 185.146 156.724 185.146L151.876 191.596C151.876 191.596 150.421 191.111 150.907 190.628C150.907 190.628 149.291 192.403 148.968 190.791C148.645 189.178 148.968 189.501 148.968 189.501C148.968 189.501 146.866 191.113 147.352 188.856C147.838 186.598 152.039 179.341 152.523 179.341C153.006 179.341 158.663 178.856 158.663 178.856L174.174 159.99C174.174 159.99 169.003 138.062 167.548 130.322C166.092 122.583 169.652 122.26 169.652 122.26Z" fill="#FDBE92"/>
<path d="M180.841 120.042C180.696 121.432 180.42 122.861 179.621 124.012C178.468 125.671 176.451 126.463 174.556 127.167L168.504 129.412C167.351 129.876 166.161 130.245 164.947 130.516C164.366 130.628 163.778 130.697 163.187 130.722C160.883 130.78 158.594 130.33 156.483 129.406C153.82 128.289 151.432 126.618 149.146 124.853C147.743 123.767 146.365 122.634 145.219 121.283C144.335 120.251 143.567 118.976 143.629 117.611C143.693 116.955 143.846 116.31 144.084 115.695C144.953 113.063 145.59 110.36 145.987 107.617C146.41 104.7 146.548 101.749 146.401 98.8046C146.347 97.7236 146.251 96.6401 146.401 95.5669C146.918 91.7178 148.236 89.0709 151.313 86.7052C151.967 86.2047 154.643 85.5727 155.434 85.3431L155.581 85.307C157 85.0154 159.787 85.9906 161.1 86.4369C163.622 87.2836 165.821 88.8874 167.394 91.0289C168.968 93.1703 169.839 95.7446 169.89 98.3995C169.911 99.3541 169.877 100.44 170.441 101.163C170.512 101.257 170.593 101.344 170.684 101.421C170.999 101.678 171.402 101.836 171.733 102.086C172.649 102.78 172.799 104.098 172.646 105.233C172.493 106.369 172.113 107.499 172.263 108.634C172.298 108.887 172.357 109.137 172.439 109.379C172.765 110.354 173.422 111.219 174.063 112.042L176.661 115.395C177.134 116.004 177.659 116.649 178.39 116.879L178.465 116.902C178.907 117.021 179.386 116.977 179.807 117.16C180.833 117.562 180.955 118.945 180.841 120.042Z" fill="#F3F0DD"/>
<path opacity="0.05" d="M149.208 97.218C148.086 99.367 147.724 101.836 147.678 104.258C147.652 105.499 147.709 106.761 148.104 107.937C148.462 108.88 148.926 109.779 149.488 110.618L151.954 114.621C152.287 115.163 152.649 115.733 153.218 116.022C153.787 116.311 154.544 116.265 155.219 116.182C156.824 115.986 158.456 115.736 159.896 115.003C161.752 114.059 163.125 112.405 164.443 110.796C164.868 110.4 165.189 109.906 165.378 109.358C165.568 108.81 165.621 108.224 165.531 107.651L165.247 101.258C165.252 100.608 165.155 99.9613 164.96 99.3412C164.397 97.832 162.812 97.0193 161.462 96.1396C159.474 94.8497 157.23 92.7471 154.661 92.8942C152.303 93.0283 150.235 95.2547 149.208 97.218Z" fill="black"/>
<path d="M149.208 96.8955C148.086 99.0445 147.724 101.513 147.678 103.936C147.652 105.177 147.709 106.438 148.104 107.615C148.463 108.555 148.927 109.452 149.488 110.287L151.954 114.291C152.287 114.833 152.649 115.403 153.218 115.692C153.787 115.981 154.544 115.935 155.219 115.852C156.824 115.656 158.456 115.406 159.896 114.673C161.752 113.729 163.125 112.075 164.443 110.465C164.868 110.069 165.189 109.576 165.378 109.028C165.568 108.48 165.621 107.894 165.531 107.321L165.25 100.925C165.255 100.275 165.158 99.6285 164.963 99.0084C164.399 97.4992 162.814 96.6865 161.465 95.8068C159.477 94.5169 157.233 92.4144 154.663 92.5614C152.303 92.7059 150.235 94.9323 149.208 96.8955Z" fill="#FDBE92"/>
<g opacity="0.1">
<path opacity="0.1" d="M144.082 118.285C144.951 115.653 145.588 112.95 145.985 110.207C146.357 107.637 146.509 105.039 146.44 102.442C146.392 104.231 146.24 106.016 145.985 107.788C145.588 110.53 144.951 113.233 144.082 115.865C143.844 116.48 143.691 117.125 143.627 117.782C143.611 118.235 143.676 118.688 143.821 119.118C143.898 118.829 143.991 118.543 144.082 118.285Z" fill="white"/>
<path opacity="0.1" d="M172.382 109.323C172.248 109.942 172.211 110.58 172.274 111.211C172.308 111.464 172.367 111.714 172.449 111.956C172.775 112.932 173.432 113.796 174.073 114.619L176.671 117.973C177.144 118.581 177.669 119.226 178.401 119.456L178.476 119.479C178.918 119.598 179.396 119.554 179.817 119.737C180.058 119.849 180.269 120.016 180.433 120.225C180.597 120.434 180.708 120.679 180.758 120.939C180.792 120.7 180.82 120.462 180.846 120.222C180.96 119.123 180.846 117.743 179.812 117.317C179.391 117.142 178.913 117.186 178.47 117.059L178.395 117.036C177.664 116.807 177.139 116.162 176.666 115.553L174.068 112.199C173.427 111.376 172.775 110.512 172.444 109.537C172.424 109.467 172.4 109.395 172.382 109.323Z" fill="white"/>
<path opacity="0.1" d="M146.39 98.1441C146.908 94.295 148.226 91.6481 151.302 89.2824C151.956 88.782 154.632 88.1499 155.423 87.9203L155.571 87.8842C156.99 87.5927 159.777 88.5678 161.09 89.0142C163.612 89.8609 165.81 91.4647 167.384 93.6061C168.957 95.7475 169.829 98.3219 169.88 100.977C169.9 101.931 169.867 103.017 170.43 103.74C170.502 103.834 170.583 103.921 170.673 103.998C170.989 104.256 171.392 104.413 171.723 104.663C172.133 104.99 172.422 105.444 172.545 105.953C172.579 105.77 172.61 105.584 172.636 105.401C172.788 104.266 172.636 102.948 171.723 102.254C171.392 101.996 170.989 101.859 170.673 101.588C170.583 101.511 170.502 101.425 170.43 101.33C169.867 100.608 169.898 99.5243 169.88 98.5672C169.829 95.9123 168.957 93.338 167.384 91.1965C165.81 89.0551 163.612 87.4513 161.09 86.6046C159.777 86.1583 156.99 85.1857 155.571 85.4746L155.423 85.5108C154.632 85.7404 151.956 86.3724 151.302 86.8729C148.216 89.2386 146.889 91.8855 146.39 95.7346C146.299 96.6167 146.29 97.5055 146.365 98.3892C146.375 98.3041 146.38 98.2241 146.39 98.1441Z" fill="white"/>
</g>
<path d="M62.8261 159.933C62.3557 159.473 61.7213 159.218 61.0625 159.224C60.4036 159.23 59.7742 159.498 59.3127 159.967C58.8513 160.436 58.5956 161.069 58.6019 161.727C58.6082 162.384 58.876 163.012 59.3464 163.473L62.8933 166.945L66.373 163.406C66.8344 162.937 67.0901 162.303 67.0838 161.646C67.0775 160.988 66.8097 160.36 66.3394 159.9C65.869 159.439 65.2346 159.184 64.5758 159.191C63.9169 159.197 63.2875 159.464 62.8261 159.933V159.933Z" fill="#EB5E30"/>
<path d="M138.614 188.474C138.144 188.014 137.51 187.758 136.851 187.765C136.192 187.771 135.563 188.038 135.101 188.508C134.64 188.977 134.384 189.61 134.39 190.267C134.397 190.925 134.664 191.553 135.135 192.014L138.674 195.483L142.154 191.944C142.382 191.711 142.562 191.436 142.684 191.134C142.806 190.832 142.868 190.509 142.864 190.184C142.861 189.858 142.794 189.537 142.666 189.237C142.538 188.937 142.353 188.666 142.12 188.438C141.887 188.21 141.611 188.03 141.309 187.908C141.006 187.786 140.683 187.725 140.356 187.729C140.03 187.732 139.708 187.799 139.407 187.926C139.107 188.054 138.835 188.239 138.607 188.471L138.614 188.474Z" fill="#EB5E30"/>
<path d="M187.697 16.9572C186.712 16.9572 186.712 18.4818 187.697 18.4818C188.682 18.4818 188.682 16.9572 187.697 16.9572Z" fill="white"/>
<path d="M150.566 59.2404C149.581 59.2404 149.581 60.7651 150.566 60.7651C151.551 60.7651 151.551 59.2404 150.566 59.2404Z" fill="white"/>
<path d="M10.3486 131.599C9.36362 131.599 9.36362 133.124 10.3486 133.124C11.3336 133.124 11.3336 131.599 10.3486 131.599Z" fill="white"/>
<path d="M110.815 42.6754C109.83 42.6754 109.83 44.2001 110.815 44.2001C111.8 44.2001 111.8 42.6754 110.815 42.6754Z" fill="white"/>
<path d="M218.929 58.0099H218.815C218.678 58.0099 218.547 57.9555 218.45 57.8587C218.353 57.762 218.298 57.6307 218.298 57.4939V57.3804H218.014V57.4939C218.014 57.6307 217.959 57.762 217.862 57.8587C217.765 57.9555 217.634 58.0099 217.497 58.0099H217.383V58.2936H217.523C217.66 58.2936 217.791 58.348 217.888 58.4448C217.985 58.5415 218.04 58.6728 218.04 58.8096V58.9231H218.298V58.8096C218.298 58.6728 218.353 58.5415 218.45 58.4448C218.547 58.348 218.678 58.2936 218.815 58.2936H218.929V58.0099Z" fill="white"/>
<path d="M187.04 29.4564H186.927C186.789 29.4564 186.658 29.402 186.561 29.3053C186.464 29.2085 186.41 29.0773 186.41 28.9404V28.8269H186.125V28.9404C186.125 29.0773 186.071 29.2085 185.974 29.3053C185.877 29.402 185.745 29.4564 185.608 29.4564H185.494V29.7402H185.608C185.745 29.7402 185.877 29.7945 185.974 29.8913C186.071 29.9881 186.125 30.1193 186.125 30.2561V30.3697H186.41V30.2561C186.41 30.1193 186.464 29.9881 186.561 29.8913C186.658 29.7945 186.789 29.7402 186.927 29.7402H187.04V29.4564Z" fill="white"/>
<path d="M24.327 114.673H24.2132C24.0761 114.673 23.9446 114.619 23.8476 114.522C23.7506 114.425 23.6962 114.294 23.6962 114.157V114.044H23.4118V114.157C23.4118 114.294 23.3573 114.425 23.2604 114.522C23.1634 114.619 23.0319 114.673 22.8948 114.673H22.781V114.957H22.8948C23.0319 114.957 23.1634 115.011 23.2604 115.108C23.3573 115.205 23.4118 115.336 23.4118 115.473V115.586H23.6962V115.473C23.6962 115.336 23.7506 115.205 23.8476 115.108C23.9446 115.011 24.0761 114.957 24.2132 114.957H24.327V114.673Z" fill="white"/>
<path d="M114.965 67.3798H114.851C114.714 67.3798 114.582 67.3254 114.485 67.2286C114.388 67.1319 114.334 67.0006 114.334 66.8638V66.7503H114.049V66.8638C114.049 67.0006 113.995 67.1319 113.898 67.2286C113.801 67.3254 113.67 67.3798 113.532 67.3798H113.419V67.6635H113.532C113.67 67.6635 113.801 67.7179 113.898 67.8147C113.995 67.9114 114.049 68.0427 114.049 68.1795V68.293H114.334V68.1795C114.334 68.0427 114.388 67.9114 114.485 67.8147C114.582 67.7179 114.714 67.6635 114.851 67.6635H114.965V67.3798Z" fill="white"/>
<path d="M226.271 62.0112L226.183 61.9389C226.08 61.8525 226.014 61.729 226.001 61.595C225.987 61.461 226.027 61.3271 226.111 61.2217L226.183 61.134L225.964 60.956L225.891 61.0437C225.805 61.147 225.681 61.2123 225.547 61.2258C225.412 61.2393 225.278 61.1999 225.173 61.116L225.085 61.0437L224.906 61.263L224.994 61.3352C225.098 61.4217 225.163 61.5451 225.177 61.6791C225.19 61.8131 225.151 61.9471 225.067 62.0524L224.994 62.1402L225.214 62.3182L225.286 62.2304C225.373 62.1272 225.497 62.0618 225.631 62.0483C225.765 62.0348 225.899 62.0743 226.005 62.1582L226.093 62.2304L226.271 62.0112Z" fill="white"/>
<path d="M150.483 43.7022L150.395 43.6299C150.292 43.5435 150.226 43.4201 150.213 43.286C150.199 43.152 150.239 43.0181 150.323 42.9127L150.395 42.825L150.175 42.647L150.103 42.7347C150.016 42.838 149.893 42.9034 149.758 42.9169C149.624 42.9304 149.49 42.8909 149.384 42.807L149.296 42.7347L149.118 42.954L149.206 43.0263C149.309 43.1127 149.375 43.2361 149.388 43.3701C149.402 43.5042 149.362 43.6381 149.278 43.7434L149.206 43.8312L149.426 44.0092L149.498 43.9215C149.585 43.8182 149.708 43.7528 149.843 43.7393C149.977 43.7258 150.111 43.7653 150.217 43.8492L150.305 43.9215L150.483 43.7022Z" fill="white"/>
<path d="M201.373 150.716L201.285 150.643C201.182 150.557 201.116 150.434 201.103 150.3C201.089 150.166 201.129 150.032 201.213 149.926L201.285 149.839L201.065 149.661L200.993 149.748C200.906 149.852 200.783 149.917 200.648 149.93C200.514 149.944 200.38 149.904 200.274 149.821L200.186 149.748L200.008 149.968L200.096 150.04C200.199 150.126 200.265 150.25 200.278 150.384C200.292 150.518 200.252 150.652 200.168 150.757L200.096 150.845L200.316 151.023L200.388 150.935C200.475 150.832 200.598 150.766 200.733 150.753C200.867 150.739 201.001 150.779 201.107 150.863L201.195 150.935L201.373 150.716Z" fill="white"/>
<path d="M203.516 17.3957L203.077 16.9572L203.516 16.5186L203.317 16.3174L202.875 16.7559L202.436 16.3174L202.234 16.5186L202.676 16.9572L202.234 17.3957L202.436 17.597L202.875 17.1558L203.317 17.597L203.516 17.3957Z" fill="white"/>
<path d="M219.379 19.924C219.325 19.9298 219.275 19.9553 219.239 19.9955C219.203 20.0358 219.183 20.0879 219.183 20.142C219.183 20.196 219.203 20.2481 219.239 20.2884C219.275 20.3286 219.325 20.3541 219.379 20.36C219.433 20.3541 219.483 20.3286 219.519 20.2884C219.555 20.2481 219.575 20.196 219.575 20.142C219.575 20.0879 219.555 20.0358 219.519 19.9955C219.483 19.9553 219.433 19.9298 219.379 19.924V19.924Z" fill="white"/>
<path d="M199.724 36.9224C199.67 36.9283 199.62 36.9537 199.584 36.994C199.548 37.0342 199.528 37.0863 199.528 37.1404C199.528 37.1944 199.548 37.2466 199.584 37.2868C199.62 37.327 199.67 37.3525 199.724 37.3584C199.777 37.3525 199.827 37.327 199.863 37.2868C199.899 37.2466 199.919 37.1944 199.919 37.1404C199.919 37.0863 199.899 37.0342 199.863 36.994C199.827 36.9537 199.777 36.9283 199.724 36.9224V36.9224Z" fill="white"/>
<path d="M174.171 32.9985C174.117 33.0043 174.068 33.0298 174.031 33.0701C173.995 33.1103 173.975 33.1624 173.975 33.2165C173.975 33.2705 173.995 33.3227 174.031 33.3629C174.068 33.4031 174.117 33.4286 174.171 33.4345C174.225 33.4286 174.275 33.4031 174.311 33.3629C174.347 33.3227 174.367 33.2705 174.367 33.2165C174.367 33.1624 174.347 33.1103 174.311 33.0701C174.275 33.0298 174.225 33.0043 174.171 32.9985V32.9985Z" fill="white"/>
<path d="M129.289 36.4632H128.961C128.907 36.469 128.857 36.4945 128.821 36.5348C128.785 36.575 128.765 36.6271 128.765 36.6812C128.765 36.7352 128.785 36.7874 128.821 36.8276C128.857 36.8678 128.907 36.8933 128.961 36.8992H129.289C129.343 36.8933 129.393 36.8678 129.429 36.8276C129.465 36.7874 129.485 36.7352 129.485 36.6812C129.485 36.6271 129.465 36.575 129.429 36.5348C129.393 36.4945 129.343 36.469 129.289 36.4632V36.4632Z" fill="white"/>
<path d="M123.721 64.382C123.667 64.3879 123.617 64.4134 123.581 64.4536C123.545 64.4938 123.525 64.546 123.525 64.6C123.525 64.6541 123.545 64.7062 123.581 64.7464C123.617 64.7867 123.667 64.8122 123.721 64.818C123.775 64.8122 123.824 64.7867 123.861 64.7464C123.897 64.7062 123.917 64.6541 123.917 64.6C123.917 64.546 123.897 64.4938 123.861 64.4536C123.824 64.4134 123.775 64.3879 123.721 64.382V64.382Z" fill="white"/>
<path d="M169.257 74.5181C169.203 74.524 169.153 74.5495 169.117 74.5897C169.081 74.6299 169.061 74.6821 169.061 74.7361C169.061 74.7902 169.081 74.8423 169.117 74.8826C169.153 74.9228 169.203 74.9483 169.257 74.9541C169.311 74.9483 169.36 74.9228 169.397 74.8826C169.433 74.8423 169.453 74.7902 169.453 74.7361C169.453 74.6821 169.433 74.6299 169.397 74.5897C169.36 74.5495 169.311 74.524 169.257 74.5181V74.5181Z" fill="white"/>
<path d="M172.86 55.5565C172.807 55.5623 172.757 55.5878 172.721 55.628C172.685 55.6683 172.665 55.7204 172.665 55.7745C172.665 55.8285 172.685 55.8806 172.721 55.9209C172.757 55.9611 172.807 55.9866 172.86 55.9924C172.914 55.9866 172.964 55.9611 173 55.9209C173.036 55.8806 173.056 55.8285 173.056 55.7745C173.056 55.7204 173.036 55.6683 173 55.628C172.964 55.5878 172.914 55.5623 172.86 55.5565V55.5565Z" fill="white"/>
<path d="M203.327 59.4803C203.273 59.4862 203.224 59.5117 203.188 59.5519C203.151 59.5922 203.131 59.6443 203.131 59.6984C203.131 59.7524 203.151 59.8045 203.188 59.8448C203.224 59.885 203.273 59.9105 203.327 59.9164C203.381 59.9105 203.431 59.885 203.467 59.8448C203.503 59.8045 203.523 59.7524 203.523 59.6984C203.523 59.6443 203.503 59.5922 203.467 59.5519C203.431 59.5117 203.381 59.4862 203.327 59.4803V59.4803Z" fill="white"/>
<path d="M200.378 125.188C200.324 125.194 200.274 125.22 200.238 125.26C200.202 125.3 200.182 125.352 200.182 125.406C200.182 125.46 200.202 125.513 200.238 125.553C200.274 125.593 200.324 125.619 200.378 125.624C200.431 125.619 200.481 125.593 200.517 125.553C200.554 125.513 200.574 125.46 200.574 125.406C200.574 125.352 200.554 125.3 200.517 125.26C200.481 125.22 200.431 125.194 200.378 125.188Z" fill="white"/>
<path d="M33.6312 89.2283C33.5774 89.2341 33.5276 89.2596 33.4915 89.2998C33.4553 89.3401 33.4353 89.3922 33.4353 89.4463C33.4353 89.5003 33.4553 89.5525 33.4915 89.5927C33.5276 89.6329 33.5774 89.6584 33.6312 89.6643C33.6851 89.6584 33.7349 89.6329 33.771 89.5927C33.8072 89.5525 33.8272 89.5003 33.8272 89.4463C33.8272 89.3922 33.8072 89.3401 33.771 89.2998C33.7349 89.2596 33.6851 89.2341 33.6312 89.2283V89.2283Z" fill="white"/>
<path d="M17.5795 126.824C17.5256 126.83 17.4759 126.855 17.4397 126.896C17.4035 126.936 17.3835 126.988 17.3835 127.042C17.3835 127.096 17.4035 127.148 17.4397 127.188C17.4759 127.229 17.5256 127.254 17.5795 127.26C17.6333 127.254 17.6831 127.229 17.7193 127.188C17.7554 127.148 17.7754 127.096 17.7754 127.042C17.7754 126.988 17.7554 126.936 17.7193 126.896C17.6831 126.855 17.6333 126.83 17.5795 126.824V126.824Z" fill="white"/>
<path d="M71.3056 111.459C71.2517 111.464 71.2019 111.49 71.1658 111.53C71.1296 111.57 71.1096 111.623 71.1096 111.677C71.1096 111.731 71.1296 111.783 71.1658 111.823C71.2019 111.863 71.2517 111.889 71.3056 111.895C71.3594 111.889 71.4092 111.863 71.4453 111.823C71.4815 111.783 71.5015 111.731 71.5015 111.677C71.5015 111.623 71.4815 111.57 71.4453 111.53C71.4092 111.49 71.3594 111.464 71.3056 111.459Z" fill="white"/>
<path d="M193.173 135.65C193.119 135.655 193.069 135.681 193.033 135.721C192.997 135.761 192.977 135.814 192.977 135.868C192.977 135.922 192.997 135.974 193.033 136.014C193.069 136.054 193.119 136.08 193.173 136.086C193.227 136.08 193.276 136.054 193.313 136.014C193.349 135.974 193.369 135.922 193.369 135.868C193.369 135.814 193.349 135.761 193.313 135.721C193.276 135.681 193.227 135.655 193.173 135.65Z" fill="white"/>
<path d="M185.965 159.843C185.911 159.849 185.861 159.874 185.825 159.915C185.789 159.955 185.769 160.007 185.769 160.061C185.769 160.115 185.789 160.167 185.825 160.208C185.861 160.248 185.911 160.273 185.965 160.279C186.019 160.273 186.069 160.248 186.105 160.208C186.141 160.167 186.161 160.115 186.161 160.061C186.161 160.007 186.141 159.955 186.105 159.915C186.069 159.874 186.019 159.849 185.965 159.843Z" fill="white"/>
<path d="M135.186 73.5378C135.132 73.5436 135.083 73.5691 135.046 73.6094C135.01 73.6496 134.99 73.7017 134.99 73.7558C134.99 73.8098 135.01 73.862 135.046 73.9022C135.083 73.9425 135.132 73.9679 135.186 73.9738C135.24 73.9679 135.29 73.9425 135.326 73.9022C135.362 73.862 135.382 73.8098 135.382 73.7558C135.382 73.7017 135.362 73.6496 135.326 73.6094C135.29 73.5691 135.24 73.5436 135.186 73.5378V73.5378Z" fill="white"/>
<path d="M104.065 64.7096C104.011 64.7155 103.962 64.741 103.926 64.7812C103.889 64.8215 103.869 64.8736 103.869 64.9276C103.869 64.9817 103.889 65.0338 103.926 65.0741C103.962 65.1143 104.011 65.1398 104.065 65.1456C104.119 65.1398 104.169 65.1143 104.205 65.0741C104.241 65.0338 104.261 64.9817 104.261 64.9276C104.261 64.8736 104.241 64.8215 104.205 64.7812C104.169 64.741 104.119 64.7155 104.065 64.7096Z" fill="white"/>
<path d="M68.3556 73.5378C68.3018 73.5436 68.252 73.5691 68.2158 73.6094C68.1797 73.6496 68.1597 73.7017 68.1597 73.7558C68.1597 73.8098 68.1797 73.862 68.2158 73.9022C68.252 73.9425 68.3018 73.9679 68.3556 73.9738C68.4095 73.9679 68.4592 73.9425 68.4954 73.9022C68.5316 73.862 68.5516 73.8098 68.5516 73.7558C68.5516 73.7017 68.5316 73.6496 68.4954 73.6094C68.4592 73.5691 68.4095 73.5436 68.3556 73.5378Z" fill="white"/>
<path d="M219.051 37.25H218.722C218.578 37.25 218.439 37.3074 218.337 37.4095C218.234 37.5116 218.177 37.65 218.177 37.7944C218.177 37.9387 218.234 38.0772 218.337 38.1793C218.439 38.2814 218.578 38.3387 218.722 38.3387H219.051C219.195 38.3387 219.334 38.2814 219.436 38.1793C219.539 38.0772 219.596 37.9387 219.596 37.7944C219.596 37.65 219.539 37.5116 219.436 37.4095C219.334 37.3074 219.195 37.25 219.051 37.25V37.25Z" fill="white"/>
<path d="M187.602 55.2288C186.898 55.2288 186.898 56.3175 187.602 56.3175C188.305 56.3175 188.31 55.2288 187.602 55.2288Z" fill="white"/>
<path d="M162.716 73.5378C162.013 73.5378 162.013 74.6265 162.716 74.6265C163.419 74.6265 163.409 73.5378 162.716 73.5378Z" fill="white"/>
<path d="M187.93 114.727C187.227 114.727 187.227 115.816 187.93 115.816C188.633 115.816 188.633 114.727 187.93 114.727Z" fill="white"/>
<path d="M213.482 107.21C212.779 107.21 212.779 108.298 213.482 108.298C214.185 108.298 214.185 107.21 213.482 107.21Z" fill="white"/>
<path d="M191.862 179.13H191.534C191.389 179.13 191.25 179.187 191.148 179.289C191.046 179.391 190.988 179.53 190.988 179.674C190.988 179.819 191.046 179.957 191.148 180.059C191.25 180.161 191.389 180.219 191.534 180.219H191.862C192.007 180.219 192.145 180.161 192.248 180.059C192.35 179.957 192.407 179.819 192.407 179.674C192.407 179.53 192.35 179.391 192.248 179.289C192.145 179.187 192.007 179.13 191.862 179.13V179.13Z" fill="white"/>
<path d="M19.8726 183.054C19.1694 183.054 19.1694 184.142 19.8726 184.142C20.5758 184.142 20.5758 183.054 19.8726 183.054Z" fill="white"/>
<path d="M178.742 85.503L196.541 67.7409" stroke="url(#paint0_linear)" stroke-miterlimit="10" stroke-linecap="round"/>
<path d="M156.682 42.3478L174.481 24.5857" stroke="url(#paint1_linear)" stroke-miterlimit="10" stroke-linecap="round"/>
<path opacity="0.1" d="M212.484 95.3579H207.055C208.185 95.0561 208.989 94.326 208.989 93.4566C208.989 92.5872 208.185 91.8571 207.055 91.5553H209.426C211.109 91.5553 212.484 90.6343 212.484 89.5095C212.484 88.3847 211.109 87.4637 209.426 87.4637H190.207C188.524 87.4637 187.149 88.3847 187.149 89.5095C187.149 90.3686 187.953 91.109 189.083 91.4108H186.712C185.029 91.4108 183.654 92.3318 183.654 93.4566C183.654 94.5814 185.029 95.5024 186.712 95.5024H192.141C191.011 95.8042 190.207 96.5343 190.207 97.4037C190.207 98.5285 191.583 99.4495 193.266 99.4495H212.487C214.17 99.4495 215.545 98.5285 215.545 97.4037C215.545 96.2789 214.162 95.3579 212.484 95.3579Z" fill="white"/>
<path opacity="0.1" d="M148.916 53.5107H141.724C143.221 53.2088 144.286 52.4787 144.286 51.6093C144.286 50.7399 143.221 50.0098 141.724 49.708H144.865C147.094 49.708 148.919 48.787 148.919 47.6622C148.919 46.5374 147.096 45.6164 144.865 45.6164H119.391C117.162 45.6164 115.337 46.5374 115.337 47.6622C115.337 48.5213 116.402 49.2617 117.899 49.5635H114.76C112.532 49.5635 110.707 50.4845 110.707 51.6093C110.707 52.7341 112.529 53.6551 114.76 53.6551H121.952C120.456 53.957 119.391 54.6871 119.391 55.5565C119.391 56.6813 121.213 57.6022 123.444 57.6022H148.916C151.145 57.6022 152.97 56.6813 152.97 55.5565C152.97 54.4317 151.145 53.5107 148.916 53.5107Z" fill="white"/>
</g>
<defs>
<linearGradient id="paint0_linear" x1="178.613" y1="76.6207" x2="196.67" y2="76.6207" gradientUnits="userSpaceOnUse">
<stop stop-color="white"/>
<stop offset="0.77" stop-color="white" stop-opacity="0.15"/>
</linearGradient>
<linearGradient id="paint1_linear" x1="10935.4" y1="2328.68" x2="12178.6" y2="2328.68" gradientUnits="userSpaceOnUse">
<stop stop-color="white"/>
<stop offset="0.77" stop-color="white" stop-opacity="0.15"/>
</linearGradient>
<clipPath id="clip0">
<rect width="232" height="202" fill="white"/>
</clipPath>
</defs>
</svg>
