<svg width="340" height="213" viewBox="0 0 340 213" fill="none" xmlns="http://www.w3.org/2000/svg">
<g clip-path="url(#clip0)">
<path d="M313.846 193.715C312.11 200.142 306.162 204.122 306.162 204.122C306.162 204.122 303.03 197.682 304.766 191.255C306.503 184.828 312.451 180.848 312.451 180.848C312.451 180.848 315.583 187.287 313.846 193.715Z" fill="#459FBA"/>
<path d="M309.771 204.539C308.529 204.548 307.288 204.445 306.065 204.231L305.634 204.145L305.777 203.73C305.875 203.448 308.224 196.784 314.049 193.435C319.873 190.087 326.806 191.415 327.098 191.473L327.528 191.559L327.385 191.974C327.288 192.256 324.938 198.92 319.114 202.268C315.904 204.114 312.357 204.539 309.771 204.539ZM306.667 203.552C308.293 203.782 313.988 204.331 318.732 201.603C323.477 198.876 325.875 193.675 326.495 192.152C324.869 191.922 319.174 191.373 314.43 194.1C309.686 196.828 307.288 202.029 306.667 203.552Z" fill="#3F3D56"/>
<path d="M340 203.631H0V204.49H340V203.631Z" fill="#3F3D56"/>
<path d="M87.8294 197.723C84.506 198.328 85.1102 199.538 85.1102 199.538L86.1677 201.656L83.4485 187.135L89.7933 186.984L91.6061 200.143C90.659 199.59 89.5515 197.409 87.8294 197.723Z" fill="#FFB8B8"/>
<path d="M83.643 198.916L85.1101 198.328C85.1101 198.328 84.5059 197.118 87.8294 196.513C89.2292 196.257 90.674 196.52 91.8949 197.252L93.1167 203.925C93.1167 203.925 98.8572 213 91.606 213C84.3548 213 84.0527 210.882 84.0527 210.882V208.462C84.0527 208.462 82.2399 209.37 81.9377 206.95C81.6356 204.53 83.7506 199.387 83.7506 199.387L83.643 198.916Z" fill="#2F2E41"/>
<path d="M44.6243 197.723C47.9478 198.328 47.3435 199.538 47.3435 199.538L46.286 201.656L49.0052 188.648L42.6604 186.984L40.8477 200.143C41.7947 199.59 42.9022 197.409 44.6243 197.723Z" fill="#FFB8B8"/>
<path d="M75.1399 50.3982C80.2292 50.3982 84.3549 46.2673 84.3549 41.1715C84.3549 36.0757 80.2292 31.9448 75.1399 31.9448C70.0505 31.9448 65.9248 36.0757 65.9248 41.1715C65.9248 46.2673 70.0505 50.3982 75.1399 50.3982Z" fill="#FFB8B8"/>
<path d="M70.9099 47.8268C70.9099 47.8268 72.4205 54.4822 66.9821 56.9023C61.5437 59.3224 84.808 59.9274 84.808 59.9274C84.808 59.9274 79.0674 53.5746 80.5781 46.9193L70.9099 47.8268Z" fill="#FFB8B8"/>
<path d="M68.7949 55.6922L57.0117 58.1123L59.7309 75.9607C59.7309 75.9607 63.3565 84.1286 61.2416 87.4563C59.1267 90.784 61.8458 91.994 61.8458 91.994L89.0378 93.5066C89.0378 93.5066 92.0591 91.994 91.4549 90.4815C90.8506 88.9689 91.3038 77.322 91.3038 77.322C91.3038 77.322 91.3038 76.112 92.0591 72.3305L91.9081 60.0787L83.8475 58.7104C83.8475 58.7104 79.3696 60.5325 68.7949 55.6922Z" fill="#459FBA"/>
<path d="M61.8461 91.0865L46.7394 154.615L37.9775 186.076L57.6162 192.429C57.6162 192.429 76.6506 136.464 75.442 124.666L74.8378 192.429L95.9871 191.219C95.9871 191.219 101.123 101.977 89.038 91.6915L61.8461 91.0865Z" fill="#2F2E41"/>
<path d="M51.2712 69.3054L45.5307 88.0613C45.3665 88.7243 45.3354 89.4133 45.4391 90.0883C45.5428 90.7634 45.7794 91.4112 46.135 91.994C47.1133 93.7084 54.8242 104.939 57.7256 109.155C57.8486 109.334 58.0131 109.48 58.2049 109.581C58.3968 109.682 58.6102 109.735 58.8269 109.735C59.0437 109.736 59.2573 109.683 59.4495 109.583C59.6416 109.482 59.8066 109.337 59.9302 109.159L63.6587 103.792C63.6587 103.792 67.2843 105.91 68.1907 105.002C68.5306 104.662 67.8083 103.981 66.7727 103.263C64.4296 101.656 61.7061 100.692 58.8745 100.469L58.8246 100.464L52.4798 89.2714L58.8245 73.5406L51.2712 69.3054Z" fill="#FFB8B8"/>
<path d="M59.4287 59.0199L58.3547 57.8365L57.0117 58.1123C57.0117 58.1123 54.2925 59.0199 52.7818 63.2551C51.2711 67.4903 46.437 76.8683 46.437 76.8683L55.501 82.3135L61.2415 69.9104L59.4287 59.0199Z" fill="#459FBA"/>
<path d="M98.8571 70.9692L105.051 89.2714C105.215 89.9343 105.246 90.6233 105.142 91.2984C105.039 91.9735 104.802 92.6212 104.447 93.2041C103.468 94.9184 95.7574 106.149 92.8559 110.365C92.7329 110.544 92.5684 110.69 92.3766 110.791C92.1848 110.892 91.9713 110.945 91.7546 110.945C91.5378 110.946 91.3242 110.893 91.1321 110.793C90.9399 110.692 90.775 110.547 90.6513 110.369L86.9228 105.002C86.9228 105.002 83.2972 107.12 82.3908 106.212C82.0509 105.872 82.7732 105.191 83.8089 104.473C86.152 102.866 88.8754 101.902 91.707 101.679L91.757 101.674L98.1018 90.4815L91.757 74.7507L98.8571 70.9692Z" fill="#FFB8B8"/>
<path d="M90.2465 61.1375L91.3206 59.9541L92.6636 60.23C92.6636 60.23 95.3828 61.1375 96.8935 65.3727C98.4041 69.6079 103.691 79.1371 103.691 79.1371L94.6275 83.0698L89.4912 71.5743L90.2465 61.1375Z" fill="#459FBA"/>
<path d="M75.0585 29.3604C75.0585 29.3604 65.6075 27.6706 63.9198 36.1197C63.5153 38.0814 63.248 40.069 63.12 42.068C62.8544 46.9641 61.5141 51.7413 59.1943 56.0595L74.3835 60.4531C74.3835 60.4531 70.333 54.0317 71.0081 51.328C71.1332 50.6499 71.1238 49.9537 70.9804 49.2792C69.4057 48.3075 68.2106 46.8254 67.5939 45.0793C66.9772 43.3332 66.9761 41.4284 67.5906 39.6815C68.2052 37.9347 69.3984 36.4511 70.972 35.4775C72.5455 34.5039 74.4044 34.099 76.2397 34.33C78.075 34.5611 79.7759 35.4142 81.0598 36.7475C82.3436 38.0808 83.1329 39.814 83.2965 41.6588C83.46 43.5036 82.9879 45.3488 81.9587 46.8877C80.9295 48.4266 79.4052 49.5663 77.6393 50.1174C76.5098 52.5782 75.8953 55.2399 77.4213 57.0734C79.3496 59.433 81.626 61.4844 84.172 63.1568C84.172 63.1568 82.4843 55.0456 85.1846 50.3142C87.8849 45.5827 85.1846 30.0363 75.0585 29.3604Z" fill="#2F2E41"/>
<path d="M83.4521 40.1991L67.6153 41.1295L67.1799 33.6999L80.9629 33.2038L83.4521 40.1991Z" fill="#2F2E41"/>
<path d="M48.8108 198.916L47.3436 198.328C47.3436 198.328 47.9479 197.118 44.6244 196.513C43.2246 196.257 41.7798 196.52 40.5589 197.252L39.3371 203.925C39.3371 203.925 33.5966 213 40.8478 213C48.099 213 48.4011 210.882 48.4011 210.882V208.462C48.4011 208.462 50.2139 209.37 50.516 206.95C50.8182 204.53 48.7032 199.387 48.7032 199.387L48.8108 198.916Z" fill="#2F2E41"/>
<path d="M178.884 0C178.653 0.000249633 178.432 0.0921552 178.268 0.255551C178.105 0.418946 178.013 0.640485 178.013 0.87156V114.802C178.013 115.033 178.105 115.254 178.268 115.418C178.432 115.581 178.653 115.673 178.884 115.673H337.406C337.637 115.673 337.859 115.581 338.022 115.418C338.185 115.254 338.277 115.033 338.277 114.802V0.87156C338.277 0.640485 338.185 0.418946 338.022 0.255551C337.859 0.0921552 337.637 0.000249633 337.406 0H178.884Z" fill="#E6E6E6"/>
<path d="M328.654 9.40163V90.3666C328.654 90.6343 328.601 90.8994 328.499 91.1468C328.397 91.3941 328.247 91.6189 328.058 91.8082C327.869 91.9975 327.644 92.1476 327.397 92.25C327.15 92.3524 326.885 92.4051 326.618 92.405H189.348C189.251 92.4058 189.153 92.3982 189.057 92.3823C188.572 92.3125 188.129 92.0703 187.809 91.7001C187.489 91.3299 187.313 90.8564 187.313 90.3666V9.40163C187.312 9.13392 187.365 8.86881 187.467 8.62146C187.57 8.37411 187.72 8.14936 187.909 7.96006C188.098 7.77076 188.322 7.62062 188.569 7.51821C188.816 7.41581 189.081 7.36314 189.348 7.36324H326.618C326.885 7.36315 327.15 7.41581 327.397 7.51822C327.644 7.62063 327.869 7.77077 328.058 7.96007C328.247 8.14937 328.397 8.37412 328.499 8.62147C328.601 8.86882 328.654 9.13392 328.654 9.40163V9.40163Z" fill="white"/>
<path d="M221.914 55.5035C231.778 55.5035 239.775 47.4969 239.775 37.6203C239.775 27.7437 231.778 19.7371 221.914 19.7371C212.05 19.7371 204.054 27.7437 204.054 37.6203C204.054 47.4969 212.05 55.5035 221.914 55.5035Z" fill="#FF6584"/>
<path d="M277.923 92.7296H190.304C190.195 92.731 190.085 92.7223 189.977 92.7036L231.417 20.8336C231.67 20.386 232.037 20.0136 232.48 19.7545C232.924 19.4955 233.428 19.359 233.942 19.359C234.456 19.359 234.96 19.4955 235.404 19.7545C235.847 20.0136 236.214 20.386 236.467 20.8336L264.279 69.064L265.611 71.3718L277.923 92.7296Z" fill="#3F3D56"/>
<path opacity="0.2" d="M277.923 92.7295H248.008L262.693 71.3718L263.751 69.8333L264.279 69.0639L265.611 71.3718L277.923 92.7295Z" fill="black"/>
<path d="M326.709 92.7296H250.926L265.611 71.3718L266.668 69.8332L285.804 41.9999C287.059 40.1757 290.077 40.0621 291.552 41.6558C291.651 41.7645 291.743 41.8795 291.827 41.9999L326.709 92.7296Z" fill="#3F3D56"/>
<path d="M181.964 5.74028C183.306 5.74028 184.395 4.65036 184.395 3.30588C184.395 1.96139 183.306 0.871475 181.964 0.871475C180.621 0.871475 179.532 1.96139 179.532 3.30588C179.532 4.65036 180.621 5.74028 181.964 5.74028Z" fill="#459FBA"/>
<path d="M334.003 5.74028C335.346 5.74028 336.434 4.65036 336.434 3.30588C336.434 1.96139 335.346 0.871475 334.003 0.871475C332.66 0.871475 331.572 1.96139 331.572 3.30588C331.572 4.65036 332.66 5.74028 334.003 5.74028Z" fill="#459FBA"/>
<path d="M181.964 114.802C183.306 114.802 184.395 113.712 184.395 112.367C184.395 111.023 183.306 109.933 181.964 109.933C180.621 109.933 179.532 111.023 179.532 112.367C179.532 113.712 180.621 114.802 181.964 114.802Z" fill="#459FBA"/>
<path d="M334.003 114.802C335.346 114.802 336.434 113.712 336.434 112.367C336.434 111.023 335.346 109.933 334.003 109.933C332.66 109.933 331.572 111.023 331.572 112.367C331.572 113.712 332.66 114.802 334.003 114.802Z" fill="#459FBA"/>
</g>
<defs>
<clipPath id="clip0">
<rect width="340" height="213" fill="white"/>
</clipPath>
</defs>
</svg>
