<svg width="325" height="230" viewBox="0 0 325 230" fill="none" xmlns="http://www.w3.org/2000/svg">
<path d="M251.268 90.8302C238.069 38.9774 192.463 1.54699 138.932 0.045692C110.632 -0.747999 80.8516 8.62936 59.1696 41.4442C20.4106 100.104 61.5514 140.64 90.2337 159.902C104.091 169.227 116.577 180.438 127.33 193.213C146.704 216.182 183.975 244.725 228.363 200.003C260.535 167.589 260.06 125.369 251.268 90.8302Z" fill="#F2F2F2"/>
<path d="M162.5 230C252.246 230 325 225.794 325 220.605C325 215.417 252.246 211.211 162.5 211.211C72.7537 211.211 0 215.417 0 220.605C0 225.794 72.7537 230 162.5 230Z" fill="#3F3D56"/>
<path opacity="0.1" d="M58.4766 223.248C77.4645 223.248 92.8573 221.407 92.8573 219.137C92.8573 216.868 77.4645 215.027 58.4766 215.027C39.4887 215.027 24.0959 216.868 24.0959 219.137C24.0959 221.407 39.4887 223.248 58.4766 223.248Z" fill="black"/>
<path opacity="0.1" d="M263.879 225.009C282.867 225.009 298.26 223.169 298.26 220.899C298.26 218.629 282.867 216.789 263.879 216.789C244.891 216.789 229.498 218.629 229.498 220.899C229.498 223.169 244.891 225.009 263.879 225.009Z" fill="black"/>
<path d="M208.074 41.6122C191.651 35.8055 175.441 35.5707 162.5 44.956C149.559 35.5707 133.349 35.8055 116.926 41.6122C90.6573 50.8999 73.7885 70.925 86.4653 106.713C98.2725 140.047 154.333 167.24 161.969 170.814C162.099 171.076 162.167 171.213 162.167 171.213C162.167 171.213 162.283 171.161 162.5 171.06C162.717 171.161 162.833 171.213 162.833 171.213C162.833 171.213 162.902 171.076 163.031 170.814C170.667 167.24 226.728 140.047 238.535 106.713C251.212 70.925 234.343 50.8999 208.074 41.6122Z" fill="#8F45BA"/>
<path d="M181.013 104.347L165.847 133.162L165.132 114.317L171.903 96.4206L164.98 110.323L164.013 84.857L173.079 60.8973L163.809 79.51L162.5 45.0439L160.33 102.171L140.461 64.4203L160.215 105.207L159.093 134.724L143.106 104.347L159.001 137.166L156.623 199.761H168.377L165.935 135.479L181.013 104.347Z" fill="#3F3D56"/>
<path opacity="0.1" d="M218.92 208.638C218.92 226.897 193.445 221.249 162.255 221.249C131.064 221.249 105.968 226.897 105.968 208.638C105.968 190.379 131.439 186.407 162.63 186.407C193.82 186.407 218.92 190.379 218.92 208.638Z" fill="black"/>
<path d="M218.92 204.142C218.92 222.401 193.445 216.753 162.255 216.753C131.064 216.753 105.968 222.401 105.968 204.142C105.968 185.883 131.439 181.912 162.63 181.912C193.82 181.912 218.92 185.883 218.92 204.142Z" fill="#3F3D56"/>
<path d="M90.4348 150.105C90.4348 150.105 86.243 159.789 90.4348 160.051C94.6265 160.313 94.8885 150.105 94.8885 150.105H90.4348Z" fill="#FFB9B9"/>
<path d="M58.9966 146.44L66.332 181.252L70.262 198.527H79.9553L69.4759 145.393L58.9966 146.44Z" fill="#2F2E41"/>
<path opacity="0.1" d="M58.9966 146.44L66.332 181.252L70.262 198.527H79.9553L69.4759 145.393L58.9966 146.44Z" fill="black"/>
<path d="M70.262 199.051V203.239L75.7635 204.286L76.2874 200.098L70.262 199.051Z" fill="#FFB9B9"/>
<path d="M76.8116 202.977L69.476 202.453C69.476 202.453 67.3802 211.614 67.3802 212.4C67.3802 213.185 62.4025 221.037 65.8083 221.561C69.2141 222.084 74.1918 222.608 74.7157 221.037C75.2397 219.467 75.2397 215.017 76.2876 213.185C77.3356 211.353 78.3835 209.259 78.1215 208.212L76.8116 202.977Z" fill="#2F2E41"/>
<path d="M71.5719 147.487C71.5719 147.487 63.7124 163.192 65.8082 175.756C67.9041 188.319 67.9041 200.098 68.4281 200.621C68.952 201.145 78.9075 201.93 78.9075 201.93C78.9075 201.93 79.1694 178.111 78.3835 175.494C77.5975 172.876 82.8372 158.48 84.9331 154.816C87.029 151.152 71.5719 147.487 71.5719 147.487Z" fill="#2F2E41"/>
<path d="M62.1402 90.9507C62.1402 90.9507 50.8749 88.595 52.4468 94.6152C54.0187 100.635 60.3064 102.206 60.3064 102.206L62.1402 90.9507Z" fill="#FF6584"/>
<path d="M64.7603 121.575C64.7603 121.575 59.2586 123.407 59.2586 132.83C59.2586 142.252 56.6388 149.32 59.2586 149.581C61.8785 149.843 77.0736 150.105 77.0736 150.105L64.7603 121.575Z" fill="#FF6584"/>
<path d="M66.332 95.1386L73.1438 89.9037L82.5753 93.3063L88.8628 91.9978L92.7925 97.7561L84.4092 104.038L73.1438 107.441L65.8081 102.206L66.332 95.1386Z" fill="#FF6584"/>
<path d="M75.2396 84.6689C75.2396 84.6689 75.5016 89.1186 74.1917 89.9038C72.8818 90.689 86.243 92.5212 86.243 92.5212L87.2909 85.4541L75.2396 84.6689Z" fill="#FFB9B9"/>
<path opacity="0.1" d="M75.2396 84.6689C75.2396 84.6689 75.5016 89.1186 74.1917 89.9038C72.8818 90.689 86.243 92.5212 86.243 92.5212L87.2909 85.4541L75.2396 84.6689Z" fill="black"/>
<path d="M82.3132 89.9038C87.3774 89.9038 91.4827 85.8022 91.4827 80.7428C91.4827 75.6833 87.3774 71.5817 82.3132 71.5817C77.2491 71.5817 73.1438 75.6833 73.1438 80.7428C73.1438 85.8022 77.2491 89.9038 82.3132 89.9038Z" fill="#FFB9B9"/>
<path d="M90.9586 97.7561L94.4954 97.8869C94.4954 97.8869 97.5082 97.7561 98.0322 111.367C98.5562 124.977 98.0322 144.085 98.0322 144.085C98.0322 144.085 99.6041 153.769 95.4123 153.246C91.2206 152.722 87.0288 152.984 88.8627 151.413C90.6966 149.843 91.4826 140.944 91.4826 140.944L87.2908 109.011L90.9586 97.7561Z" fill="#FF6584"/>
<path d="M73.1438 90.3995C73.1438 90.3995 63.1884 89.642 61.6165 90.4273C60.0446 91.2125 58.7346 98.8031 58.7346 98.8031L58.4727 104.823C58.4727 104.823 60.202 117.39 62.2191 117.781C64.2363 118.172 63.9743 120.266 62.9264 121.051C61.8785 121.836 71.3099 161.883 74.1917 162.145C77.0736 162.407 80.2174 158.742 80.2174 158.742C80.2174 158.742 85.981 157.434 87.2909 156.387C88.6009 155.34 90.1728 125.239 87.8149 124.716C87.8149 124.716 85.1951 124.192 85.457 123.407C85.719 122.622 89.0307 121.123 89.0307 121.123L87.8149 109.011C87.8149 109.011 89.6488 98.8031 94.3645 97.7561C94.3645 97.7561 92.2686 95.1387 91.4827 95.1387C90.6967 95.1387 85.719 96.1856 84.1471 97.7561C82.5752 99.3265 81.0033 104.3 77.3355 102.206C73.6677 100.112 70.7859 96.7091 71.5719 95.1387C72.3578 93.5682 73.1438 90.3995 73.1438 90.3995Z" fill="#3F3D56"/>
<path d="M55.8304 70.1694C56.8396 71.0095 57.8596 71.861 58.5707 72.8668C59.499 74.1801 59.853 75.692 59.9773 77.1852C60.0819 78.4423 60.007 79.7782 59.1364 80.8433C58.5079 81.6123 57.4971 82.196 57.0775 83.0456C56.614 83.984 56.9781 85.0513 57.5743 85.9439C58.1706 86.8364 58.9911 87.6353 59.5211 88.5524C59.9043 89.2007 60.1287 89.9303 60.176 90.6817C60.2232 91.4332 60.092 92.1851 59.7931 92.8762C59.2346 94.1658 58.0886 95.4256 58.4543 96.7557C58.7508 97.8346 60.013 98.9132 59.3341 99.8834C58.9556 100.424 58.0972 100.649 57.3042 100.701C55.3649 100.827 53.3683 100.154 52.1698 98.9695C50.9833 97.797 50.3984 96.0875 48.5902 95.5741C47.9265 95.3856 47.1896 95.3988 46.5244 95.2134C45.909 95.0402 45.3599 94.6861 44.9485 94.1971C44.537 93.7082 44.2822 93.107 44.2171 92.4715C44.0137 90.5706 45.216 88.7506 46.6101 87.1763C47.6176 86.0426 48.715 84.9919 49.8915 84.0343C51.5546 82.6764 53.457 81.4077 54.414 79.6907C55.513 77.7188 55.1278 75.2994 53.4428 73.5921C52.8186 72.9596 52.0337 72.421 51.4989 71.7415C50.8551 70.9235 49.734 67.9971 51.065 67.3033C52.5197 66.545 55.0211 69.4956 55.8304 70.1694Z" fill="#3F3D56"/>
<path d="M41.7055 189.89L39.0857 206.903C39.0857 206.903 43.5394 217.634 47.4692 217.634C51.399 217.634 53.7568 217.111 53.7568 216.587C53.7568 216.064 51.137 212.923 49.827 212.4C48.5171 211.876 47.2072 206.118 47.2072 204.547C47.2072 202.977 48.5171 189.89 48.5171 189.89H41.7055Z" fill="#A0616A"/>
<path opacity="0.1" d="M41.7055 189.89L39.0857 206.903C39.0857 206.903 43.5394 217.634 47.4692 217.634C51.399 217.634 53.7568 217.111 53.7568 216.587C53.7568 216.064 51.137 212.923 49.827 212.4C48.5171 211.876 47.2072 206.118 47.2072 204.547C47.2072 202.977 48.5171 189.89 48.5171 189.89H41.7055Z" fill="black"/>
<path d="M48.2554 206.118C48.2554 206.118 39.8719 204.809 39.0859 204.286C38.3 203.762 35.6801 214.494 39.8719 217.634C44.0636 220.775 46.9455 220.252 47.7314 220.252C48.5174 220.252 52.4471 220.252 53.2331 219.728C54.019 219.205 54.543 216.064 53.7571 214.755C52.9711 213.447 49.8273 212.138 49.5653 210.829C49.3033 209.52 48.2554 206.118 48.2554 206.118Z" fill="#2F2E41"/>
<path opacity="0.1" d="M48.2554 206.118C48.2554 206.118 39.8719 204.809 39.0859 204.286C38.3 203.762 35.6801 214.494 39.8719 217.634C44.0636 220.775 46.9455 220.252 47.7314 220.252C48.5174 220.252 52.4471 220.252 53.2331 219.728C54.019 219.205 54.543 216.064 53.7571 214.755C52.9711 213.447 49.8273 212.138 49.5653 210.829C49.3033 209.52 48.2554 206.118 48.2554 206.118Z" fill="black"/>
<path d="M35.68 190.675C35.68 190.675 35.942 201.406 31.4883 202.977C27.0345 204.547 36.466 211.091 36.466 211.091L40.6577 207.688L43.8015 188.843L35.68 190.675Z" fill="#A0616A"/>
<path d="M33.3222 199.051C33.3222 199.051 34.1843 206.54 40.6958 204.759C40.6958 204.759 41.4437 214.494 42.4916 215.802C43.5396 217.111 46.4214 221.037 41.7057 221.037C36.99 221.037 33.8462 220.775 32.2743 218.943C30.7024 217.111 27.0346 212.923 25.9866 212.4C24.9387 211.876 29.3924 200.621 30.1784 200.621C30.9643 200.621 33.3222 199.051 33.3222 199.051Z" fill="#2F2E41"/>
<path d="M29.9163 136.494C29.9163 136.494 28.6064 143.038 32.0122 150.628C35.418 158.219 38.5618 176.279 36.9899 178.896C35.418 181.514 32.5362 192.507 35.418 194.078C38.2998 195.648 58.2106 196.695 59.5205 195.125C60.8305 193.554 59.5205 176.803 57.1627 174.447C54.8048 172.091 58.9966 146.44 58.9966 146.44L57.6866 140.42L29.9163 136.494Z" fill="#3F3D56"/>
<path d="M49.3032 87.8098C54.3674 87.8098 58.4727 83.7083 58.4727 78.6488C58.4727 73.5893 54.3674 69.4878 49.3032 69.4878C44.2391 69.4878 40.1338 73.5893 40.1338 78.6488C40.1338 83.7083 44.2391 87.8098 49.3032 87.8098Z" fill="#A0616A"/>
<path d="M43.5395 81.7897C43.5395 81.7897 40.1337 90.1655 35.418 91.2125C30.7023 92.2595 29.3923 107.441 29.3923 107.441L50.875 103.253L57.4246 100.373C57.4246 100.373 57.9486 94.0917 55.5908 92.783C53.2329 91.4742 48.5172 91.9977 48.5172 91.9977C48.5172 91.9977 48.5172 86.7629 50.875 85.7159C53.2329 84.6689 43.5395 81.7897 43.5395 81.7897Z" fill="#A0616A"/>
<path d="M43.5395 101.159C43.5395 101.159 43.0155 90.9508 35.418 92.2595C35.418 92.2595 33.8461 91.736 30.4403 96.7091L29.3924 94.6152C29.3924 94.6152 33.8461 90.4969 36.4659 90.8547C39.0858 91.2125 40.6577 89.642 46.1594 101.159L53.7569 100.112L52.9709 90.9508H53.7569L55.8528 98.8031C55.8528 98.8031 58.7346 98.8031 58.9966 101.159V103.514C58.9966 103.514 63.4503 106.655 62.6644 113.461C61.8784 120.266 61.6164 126.286 61.6164 126.286C61.6164 126.286 60.5685 135.185 61.6164 138.326C62.6644 141.467 68.69 149.843 63.9743 150.628C59.2586 151.413 57.4247 151.413 57.4247 151.413L56.3767 144.608C56.3767 144.608 57.1627 147.487 52.185 147.749C47.2073 148.011 32.5362 143.823 32.5362 143.299C32.5362 142.776 33.0601 137.541 31.7502 138.588C30.4403 139.635 29.9163 145.132 28.0824 145.132C26.2486 145.132 30.9643 123.669 30.9643 123.669L29.3924 107.441V105.608C29.3924 105.608 39.6097 106.655 43.5395 101.159Z" fill="#D0CDE1"/>
<path d="M34.894 93.5682C34.894 93.5682 29.3923 98.2796 28.8684 113.199C28.3444 128.118 45.6354 140.682 45.6354 140.682C45.6354 140.682 50.3511 156.387 53.7569 152.722C57.1627 149.058 49.3031 137.018 49.3031 137.018L37.2519 121.051L40.9196 97.756C40.9196 97.756 40.9196 92.2594 34.894 93.5682Z" fill="#A0616A"/>
<path d="M30.2511 101.532C30.2511 101.532 28.0825 101.944 27.5586 105.347C27.0346 108.749 29.6544 111.89 30.9644 111.89C32.2743 111.89 45.1115 109.534 46.6834 107.441C48.2553 105.347 52.4471 106.132 52.4471 106.132L43.5396 101.42C43.5396 101.42 37.0263 107.35 29.6726 105.04L30.2511 101.532Z" fill="#D0CDE1"/>
<path d="M59.521 88.5524C58.9909 87.6353 58.1704 86.8364 57.5742 85.9438C57.1176 85.3289 56.8718 84.5831 56.8734 83.8174C56.0342 85.0459 54.9079 86.0514 53.592 86.747C52.2762 87.4425 50.8105 87.8071 49.3218 87.8092C48.5182 89.7062 48.5171 92.2595 48.5171 92.2595C48.5171 92.2595 50.0545 95.1461 48.2522 95.4961C48.3662 95.5182 48.4794 95.5426 48.59 95.5741C50.3983 96.0875 50.9831 97.797 52.1696 98.9695C53.3682 100.154 55.3648 100.827 57.304 100.701C58.0971 100.649 58.9554 100.424 59.3339 99.8834C60.0129 98.9132 58.7506 97.8345 58.4541 96.7557C58.0885 95.4256 59.2344 94.1658 59.7929 92.8762C60.0919 92.1851 60.2231 91.4331 60.1758 90.6817C60.1285 89.9303 59.9042 89.2007 59.521 88.5524V88.5524Z" fill="#3F3D56"/>
<path d="M40.3345 66.062C39.3895 66.4765 38.5071 67.021 37.713 67.6796C35.7175 69.2613 33.9842 71.2463 33.0357 73.6082C32.0872 75.9701 31.9902 78.7357 33.1111 81.021C33.6098 82.0378 34.3545 83.0215 34.3141 84.1531C34.2626 85.5945 32.9622 86.6581 31.6911 87.3416C30.4199 88.0251 28.9829 88.603 28.2057 89.8184C26.9056 91.8516 28.0522 94.6464 27.1749 96.8942C26.8771 97.6572 26.3421 98.4531 26.6235 99.2223C28.4061 99.4067 30.1446 98.5556 31.5674 97.4669C32.9901 96.3781 34.2085 95.0367 35.664 93.9921C37.6249 92.5848 40.0076 91.7196 41.6279 89.9313C42.4325 89.0253 43.0023 87.9359 43.2871 86.7586C43.5719 85.5813 43.5632 84.3521 43.2616 83.179C43.0944 82.5547 42.8416 81.9369 42.8594 81.2909C42.8889 80.2272 43.6404 79.3258 44.4386 78.6213C45.2368 77.9167 46.1433 77.287 46.6756 76.3653C47.2104 75.4391 47.3015 74.3307 47.6328 73.3139C47.9641 72.2972 48.7023 71.2607 49.7689 71.1732C50.4182 71.12 51.0349 71.4328 51.611 71.7367L54.6381 73.3338C54.9427 73.5388 55.3065 73.6376 55.6731 73.6147C56.3407 73.4944 56.5867 72.658 56.5594 71.9808C56.4691 69.748 54.8912 67.7646 52.9226 66.7037C51.0924 65.7174 48.9355 65.3918 46.8765 65.3952C44.6983 65.3988 42.3904 65.2154 40.3345 66.062Z" fill="#3F3D56"/>
<path d="M86.2502 69.6772C89.1087 70.6162 91.413 72.9149 92.6945 75.6349C93.1786 76.6249 93.4917 77.6894 93.6207 78.7836C93.8299 80.8256 93.2204 82.8581 92.5207 84.7881C91.9697 86.3079 91.3537 87.9765 91.9177 89.4915C92.1132 90.0168 92.4427 90.4879 92.6046 91.0246C92.7481 91.5321 92.7388 92.0705 92.578 92.5728C92.4172 93.075 92.1119 93.5188 91.7003 93.8488C91.1236 94.295 90.3305 94.5351 90.0072 95.1882C90.6411 95.1943 91.0873 95.7899 91.4283 96.3239L93.0531 98.868L86.9648 102.413C86.8514 100.206 86.4286 98.0266 85.7088 95.9373C85.6739 95.7912 85.5948 95.6595 85.4823 95.5599C85.3346 95.4783 85.1629 95.451 84.9972 95.4827C83.8055 95.5822 82.6386 95.8699 81.4576 96.058C78.8007 96.4811 75.9893 96.3779 73.5427 95.2595C72.65 94.896 71.8734 94.296 71.2969 93.5241C70.7596 92.7311 70.5736 91.6525 71.0145 90.8023C71.6857 89.5079 73.4162 89.2222 74.4852 88.23C74.9608 90.1224 77.1008 91.2385 79.0488 91.1004C79.5209 91.0768 79.9846 90.9653 80.4158 90.7718C81.3048 90.3494 81.9067 89.5018 82.4142 88.6591C83.7825 86.2963 84.8557 83.7749 85.6097 81.1512C85.8499 80.4394 86.0137 79.7041 86.0983 78.9577C86.2913 76.6607 85.0179 74.3437 83.0547 73.1329C81.0914 71.922 79.0833 72.4237 76.9424 73.2831C77.6624 72.9941 77.6151 71.5457 78.1883 71.0515C78.9078 70.4532 79.7339 69.996 80.6231 69.7039C82.4469 69.0892 84.4207 69.0798 86.2502 69.6772V69.6772Z" fill="#D0CDE1"/>
<path d="M249.113 103.996C249.113 103.996 264.046 107.922 264.308 109.754C264.57 111.586 256.71 116.582 256.71 116.582L240.205 108.707L249.113 103.996Z" fill="#3F3D56"/>
<path opacity="0.1" d="M249.113 103.996C249.113 103.996 264.046 107.922 264.308 109.754C264.57 111.586 256.71 116.582 256.71 116.582L240.205 108.707L249.113 103.996Z" fill="black"/>
<path d="M256.841 100.985C256.841 100.985 252.126 106.744 246.362 106.22C240.598 105.697 253.435 118.522 253.435 118.522L259.985 112.764C259.985 112.764 261.819 105.173 263.391 104.912C264.963 104.65 256.841 100.985 256.841 100.985Z" fill="#CF9595"/>
<path opacity="0.1" d="M256.841 100.985C256.841 100.985 252.126 106.744 246.362 106.22C240.598 105.697 253.435 118.522 253.435 118.522L259.985 112.764C259.985 112.764 261.819 105.173 263.391 104.912C264.963 104.65 256.841 100.985 256.841 100.985Z" fill="black"/>
<path d="M285.922 178.985C285.922 178.985 286.708 183.696 284.35 184.743C281.992 185.79 277.276 201.757 277.276 201.757L281.73 206.206L294.305 185.79C294.305 185.79 297.973 178.461 296.663 178.461C295.353 178.461 285.922 178.985 285.922 178.985Z" fill="#FFB9B9"/>
<path opacity="0.1" d="M285.922 178.985C285.922 178.985 286.708 183.696 284.35 184.743C281.992 185.79 277.276 201.757 277.276 201.757L281.73 206.206L294.305 185.79C294.305 185.79 297.973 178.461 296.663 178.461C295.353 178.461 285.922 178.985 285.922 178.985Z" fill="black"/>
<path d="M278.324 201.233L277.276 200.71C277.276 200.71 271.25 203.851 272.036 205.421C272.822 206.991 274.656 210.132 274.656 211.179C274.656 212.226 275.704 218.508 279.11 219.032C282.516 219.555 282.516 216.414 281.992 215.105C281.468 213.797 281.206 209.347 281.468 207.777C281.696 206.68 282.105 205.628 282.679 204.665L278.324 201.233Z" fill="#2F2E41"/>
<path d="M273.084 177.676C273.084 177.676 272.299 197.307 277.8 205.421C277.8 205.421 279.896 211.179 280.158 211.703C280.42 212.226 284.874 209.871 284.874 209.871C284.874 209.871 282.516 194.166 282.778 191.549C283.04 188.931 281.468 185.529 281.468 185.529L281.206 177.676H273.084Z" fill="#FFB9B9"/>
<path d="M285.398 208.562L279.927 211.145C279.927 211.145 280.42 215.105 280.682 215.891C280.944 216.676 277.014 222.434 281.206 222.958C285.398 223.481 289.589 222.958 288.541 221.649C287.494 220.34 285.922 214.582 286.184 213.012C286.446 211.441 285.398 208.562 285.398 208.562Z" fill="#2F2E41"/>
<path d="M274.394 104.65C274.394 104.65 270.989 104.388 270.465 114.334C270.143 120.088 270.143 125.856 270.465 131.609L278.848 131.871L278.062 116.167L274.394 104.65Z" fill="#FFB9B9"/>
<path d="M284.35 97.0593C284.35 97.0593 285.136 102.818 281.468 103.341C277.8 103.865 285.66 111.979 285.66 111.979L295.877 106.22C295.877 106.22 291.947 99.1533 294.043 95.7506C296.139 92.3479 284.35 97.0593 284.35 97.0593Z" fill="#FFB9B9"/>
<path opacity="0.1" d="M284.35 97.0593C284.35 97.0593 285.136 102.818 281.468 103.341C277.8 103.865 285.66 111.979 285.66 111.979L295.877 106.22C295.877 106.22 291.947 99.1533 294.043 95.7506C296.139 92.3479 284.35 97.0593 284.35 97.0593Z" fill="black"/>
<path d="M263.391 108.576C268.455 108.576 272.56 104.474 272.56 99.415C272.56 94.3555 268.455 90.254 263.391 90.254C258.327 90.254 254.221 94.3555 254.221 99.415C254.221 104.474 258.327 108.576 263.391 108.576Z" fill="#CF9595"/>
<path d="M288.018 100.2C293.082 100.2 297.187 96.0987 297.187 91.0392C297.187 85.9797 293.082 81.8782 288.018 81.8782C282.953 81.8782 278.848 85.9797 278.848 91.0392C278.848 96.0987 282.953 100.2 288.018 100.2Z" fill="#FFB9B9"/>
<path d="M235.883 123.234C235.883 123.234 235.621 132.918 235.883 134.489C236.145 136.059 234.311 149.408 234.311 149.408L240.074 145.22C240.074 145.22 244.528 131.086 242.694 127.422C240.86 123.757 235.883 123.234 235.883 123.234Z" fill="#CF9595"/>
<path d="M266.011 127.422C266.011 127.422 264.963 135.274 268.369 135.797C271.774 136.321 272.56 129.777 272.56 129.777L271.25 123.234L266.011 127.422Z" fill="#CF9595"/>
<path d="M258.431 97.4065C258.903 97.8348 259.375 98.3023 259.983 98.4945C261.001 98.8164 262.24 98.3155 263.108 98.9362C263.934 99.5266 263.999 100.874 264.902 101.337C265.279 101.492 265.688 101.554 266.093 101.517L269.287 101.479C269.208 101.682 269.173 101.899 269.184 102.116C269.196 102.333 269.254 102.545 269.354 102.738C269.454 102.93 269.594 103.1 269.765 103.234C269.935 103.369 270.133 103.465 270.344 103.518C270.678 103.581 271.097 103.565 271.263 103.862C271.442 104.183 271.358 104.821 271.716 104.736C272.131 104.025 272.709 103.422 273.401 102.974C273.791 102.723 274.235 102.504 274.468 102.102C274.789 101.548 274.602 100.857 274.579 100.217C274.508 98.2266 276.117 96.3653 275.707 94.4161C275.583 93.9298 275.397 93.4616 275.153 93.023L273.11 88.9485C272.749 88.2284 272.329 87.4519 271.583 87.1454C270.455 86.6815 269.245 87.5076 268.043 87.7191C266.677 87.9594 265.319 87.3887 263.985 87.0101C262.651 86.6315 261.058 86.4952 260.025 87.4193C259.605 87.7947 259.314 88.3199 258.824 88.5975C257.988 89.0712 256.667 88.7937 256.241 89.6546C256.032 90.0769 256.17 90.5927 256.034 91.0437C255.848 91.6587 255.219 92.0036 254.694 92.375C254.17 92.7464 253.66 93.3618 253.874 93.9676C253.965 94.2256 254.176 94.4287 254.261 94.6887C254.418 95.1671 254.114 95.6583 253.88 96.1043C253.099 97.5915 254.384 97.8796 255.358 97.2118C256.544 96.3983 257.238 96.3235 258.431 97.4065Z" fill="#3F3D56"/>
<path d="M281.73 101.509C281.73 101.509 282.254 106.744 286.445 106.744C290.637 106.744 294.525 103.247 294.525 103.247C294.525 103.247 301.903 105.173 301.903 106.22C301.903 107.267 295.877 114.858 295.877 114.858C295.877 114.858 293.257 134.75 294.305 135.797C295.353 136.844 306.356 174.274 304.522 177.414C302.688 180.555 303.474 180.555 291.161 181.341C278.848 182.126 277.8 184.743 272.56 180.817C267.321 176.891 266.535 174.535 264.439 174.274C262.343 174.012 259.985 145.22 262.081 141.294C264.177 137.368 267.845 132.395 269.154 131.348C270.464 130.301 273.566 120.324 273.566 120.324L273.608 104.126L281.73 101.509Z" fill="#FF6584"/>
<path d="M299.545 105.697C299.545 105.697 305.57 104.912 303.737 111.193C301.903 117.475 299.283 128.992 295.091 129.515C290.899 130.039 295.877 114.334 295.877 114.334L299.545 105.697Z" fill="#FFB9B9"/>
<path d="M286.62 81.2921C289.508 80.6573 292.57 80.5107 295.391 81.3982C298.212 82.2857 300.762 84.3148 301.804 87.0803C302.845 89.8459 302.112 93.3146 299.74 95.0809C298.505 96.001 296.927 96.4381 295.837 97.5264C294.661 98.7002 294.088 100.586 292.524 101.149C292.179 99.9928 292.143 98.7661 292.42 97.5914C292.616 96.9793 292.756 96.3507 292.837 95.7132C292.869 95.0714 292.64 94.3617 292.078 94.0486C291.481 93.7159 290.741 93.9291 290.06 93.8788C288.364 93.7538 287.266 92.0545 286.628 90.4792C285.991 88.9039 285.421 87.1155 283.95 86.2628C282.564 85.4598 281.028 85.829 279.551 86.0349C279.329 85.224 281.607 83.4594 282.276 83.0065C283.603 82.1673 285.077 81.5857 286.62 81.2921Z" fill="#3F3D56"/>
<path d="M298.235 123.234C298.235 123.234 295.877 112.764 295.877 111.455C295.877 110.146 294.567 103.865 295.353 102.294C296.139 100.724 297.973 91.8244 295.091 92.6097C292.209 93.3949 290.899 104.65 290.899 104.65C290.899 104.65 291.423 111.193 290.899 113.287C290.375 115.381 290.637 129.254 292.471 129.515C294.305 129.777 298.235 128.468 298.235 123.234Z" fill="#FFB9B9"/>
<path d="M300.724 90.9083C303.907 90.9083 306.487 88.3303 306.487 85.15C306.487 81.9698 303.907 79.3916 300.724 79.3916C297.54 79.3916 294.96 81.9698 294.96 85.15C294.96 88.3303 297.54 90.9083 300.724 90.9083Z" fill="#3F3D56"/>
<path d="M238.895 108.707C238.895 108.707 233.787 116.167 233.787 124.804C233.787 124.804 240.074 124.542 243.742 129.777C247.41 135.012 238.895 108.707 238.895 108.707Z" fill="#3F3D56"/>
<path d="M238.24 199.401C238.24 199.401 242.17 207.777 242.17 211.965C242.17 216.153 250.292 212.75 250.292 212.75C250.292 212.75 245.052 199.139 245.576 197.307C246.1 195.475 238.24 199.401 238.24 199.401Z" fill="#CF9595"/>
<path d="M252.65 198.877C252.65 198.877 253.751 214.472 252.414 215.836C251.078 217.199 257.627 216.414 257.627 216.414C257.627 216.414 257.627 204.636 259.723 199.924L252.65 198.877Z" fill="#CF9595"/>
<path d="M241.384 144.173C241.384 144.173 233.525 147.838 233.525 149.408C233.525 150.978 232.215 158.831 231.691 159.616C231.167 160.401 231.167 167.468 231.691 168.515C232.215 169.562 233.263 201.757 237.192 201.757C241.122 201.757 246.624 199.924 246.886 198.354C246.886 198.354 243.218 183.958 244.528 180.294C245.838 176.629 246.362 164.589 248.982 163.019C251.602 161.448 251.602 164.589 251.602 164.589L251.078 186.575C251.078 186.575 250.554 200.71 251.602 200.971C252.65 201.233 259.461 202.28 260.247 201.233C261.033 200.186 263.653 185.79 263.653 184.22C263.653 182.649 266.273 165.898 266.535 164.066C266.797 162.233 267.583 146.529 265.749 145.482C263.915 144.435 241.384 144.173 241.384 144.173Z" fill="#2F2E41"/>
<path d="M245.576 211.703C245.576 211.703 242.956 209.609 241.384 213.535C240.481 215.844 239.045 217.906 237.193 219.555C237.193 219.555 236.145 222.173 240.598 221.649C245.052 221.126 252.65 216.414 252.65 216.414C252.65 216.414 250.78 211.63 249.881 211.666C248.982 211.703 248.458 213.535 245.576 211.703Z" fill="#2F2E41"/>
<path d="M256.579 214.582C256.579 214.582 252.652 213.535 251.865 214.582C251.078 215.629 250.03 221.649 251.34 222.434C252.65 223.22 258.413 222.958 259.199 222.434C259.985 221.911 259.199 218.508 259.199 218.508L256.579 214.582Z" fill="#2F2E41"/>
<path d="M252.126 110.408C252.126 110.408 248.196 107.006 249.244 104.126C249.244 104.126 237.454 108.053 237.716 111.193C237.978 114.334 242.694 127.422 242.694 127.422C242.694 127.422 235.097 142.079 239.026 145.22C242.956 148.361 241.908 144.697 248.72 147.052C255.531 149.408 258.413 148.361 261.033 147.838C263.653 147.314 264.177 147.576 266.011 147.576C267.845 147.576 266.797 142.341 266.011 139.462C265.225 136.583 264.177 132.395 264.963 131.348C265.749 130.301 272.56 111.979 272.56 111.979C272.56 111.979 267.27 107.747 261.008 109.209C261.008 109.209 256.579 112.764 252.126 110.408Z" fill="#3F3D56"/>
<path d="M269.94 112.764C269.94 112.502 272.56 111.979 272.56 111.979C272.56 111.979 274.132 122.448 273.346 124.542C272.56 126.636 266.011 128.992 264.963 128.73C263.915 128.469 269.94 112.764 269.94 112.764Z" fill="#3F3D56"/>
<path d="M264.173 92.9814C267.581 92.9814 270.343 90.2211 270.343 86.8162C270.343 83.4112 267.581 80.651 264.173 80.651C260.765 80.651 258.002 83.4112 258.002 86.8162C258.002 90.2211 260.765 92.9814 264.173 92.9814Z" fill="#3F3D56"/>
</svg>
