<svg width="309" height="182" viewBox="0 0 309 182" fill="none" xmlns="http://www.w3.org/2000/svg">
<g clip-path="url(#clip0)">
<rect width="13.3038" height="11.762" transform="matrix(0.945334 -0.326103 0.322678 0.946509 27.0547 88.224)" fill="#FFB8B8"/>
<path d="M-26.5006 131.251L-5.9408 117.713C-5.9408 117.713 6.54509 98.7104 9.24613 86.2114C11.9472 73.7125 21.9392 51.7792 21.9392 51.7792L22.685 39.9475C22.685 39.9475 32.8426 36.6356 32.9213 47.5299C32.9999 58.4242 29.2591 72.2428 29.2591 72.2428C29.2591 72.2428 25.2821 89.808 31.4753 94.7567L52.5816 136.294C52.5816 136.294 28.5502 156.342 10.6542 157.973L-29.7818 183.31L-26.5006 131.251Z" fill="#FFB8B8"/>
<path d="M85.6228 68.5874H86.4859C94.2627 68.5874 98.6341 76.101 93.5241 80.8984C91.8794 82.4425 89.3795 83.5115 85.6228 83.5664V68.5874Z" fill="#FFB8B8"/>
<path d="M86.6864 83.5664H87.3769C93.5983 83.5664 97.0955 90.8546 93.0075 95.5081C91.6917 97.0059 89.6918 98.0428 86.6864 98.0961V83.5664Z" fill="#FFB8B8"/>
<path d="M86.6864 98.0105H87.3769C93.5983 98.0105 97.0955 105.299 93.0075 109.952C91.6917 111.45 89.6918 112.487 86.6864 112.54V98.0105Z" fill="#FFB8B8"/>
<path d="M87.2182 112.455H87.9451C94.4939 112.455 98.1752 119.968 93.872 124.766C92.487 126.31 90.3818 127.379 87.2182 127.434V112.455Z" fill="#FFB8B8"/>
<path d="M87.9042 55.4502H87.2989V38.6966C87.2989 37.4232 87.0507 36.1623 86.5683 34.9858C86.086 33.8094 85.3791 32.7405 84.4879 31.84C83.5967 30.9396 82.5387 30.2254 81.3743 29.7381C80.2099 29.2508 78.9619 29 77.7016 29H42.5701C41.3098 29 40.0618 29.2508 38.8974 29.7381C37.733 30.2254 36.675 30.9396 35.7838 31.84C34.8926 32.7405 34.1856 33.8094 33.7033 34.9858C33.221 36.1623 32.9728 37.4232 32.9728 38.6966V130.608C32.9728 131.882 33.221 133.143 33.7033 134.319C34.1856 135.496 34.8926 136.565 35.7838 137.465C36.675 138.365 37.733 139.08 38.8974 139.567C40.0618 140.054 41.3098 140.305 42.5701 140.305H77.7016C78.9619 140.305 80.2099 140.054 81.3743 139.567C82.5387 139.08 83.5967 138.365 84.4879 137.465C85.3791 136.565 86.086 135.496 86.5683 134.319C87.0507 133.143 87.2989 131.882 87.2989 130.608V67.3758H87.9042V55.4502Z" fill="#3F3D56"/>
<path d="M84.7354 38.9164V130.692C84.7339 131.766 84.4971 132.825 84.042 133.795C83.587 134.765 82.925 135.622 82.1036 136.302C81.9219 136.453 81.7325 136.593 81.5361 136.724C80.3611 137.515 78.9801 137.936 77.568 137.934H42.2675C41.6952 137.935 41.125 137.866 40.5692 137.728C39.0092 137.344 37.6222 136.442 36.6305 135.166C35.6387 133.89 35.0998 132.315 35.1 130.692V38.9164C35.1001 36.9959 35.8553 35.1541 37.1995 33.796C38.5436 32.438 40.3666 31.675 42.2675 31.6748H46.5509C46.34 32.1971 46.2595 32.7639 46.3164 33.325C46.3734 33.8862 46.5661 34.4246 46.8776 34.8928C47.1891 35.3609 47.6097 35.7445 48.1025 36.0097C48.5953 36.2749 49.1451 36.4136 49.7034 36.4135H69.8289C70.3871 36.4129 70.9365 36.2738 71.429 36.0085C71.9215 35.7431 72.342 35.3597 72.6535 34.8918C72.965 34.4238 73.158 33.8858 73.2155 33.3249C73.2731 32.764 73.1934 32.1974 72.9835 31.6748H77.568C79.4688 31.675 81.2918 32.438 82.6359 33.796C83.9801 35.1541 84.7353 36.9959 84.7354 38.9164V38.9164Z" fill="#FDFDFF"/>
<path d="M17.4412 152.372C25.8988 153.003 33.8994 138.01 35.3112 118.882C36.7229 99.7547 31.0111 83.7369 22.5535 83.1052C14.0959 82.4736 6.09519 97.4674 4.68346 116.595C3.27173 135.722 8.98354 151.74 17.4412 152.372Z" fill="#FFB8B8"/>
<rect x="31.9091" y="43.979" width="1.06364" height="14.4441" fill="#3F3D56"/>
<g clip-path="url(#clip1)">
<path d="M61.2075 70.0712C60.7738 70.0712 60.3988 70.2255 60.0824 70.5339L51.7584 75.7259H45.209C44.7753 75.7259 44.4003 75.8803 44.0839 76.1886C43.767 76.4973 43.6091 76.8623 43.6091 77.2845V86.6386C43.6091 87.0612 43.7674 87.4267 44.0839 87.7349C44.4002 88.0437 44.7753 88.1976 45.2089 88.1976H51.7584L60.0829 93.3892C60.3992 93.698 60.7743 93.8519 61.208 93.8519C61.6412 93.8519 62.0159 93.6975 62.3327 93.3892C62.649 93.081 62.8075 92.7154 62.8075 92.2928V71.6302C62.8075 71.2081 62.649 70.8425 62.3327 70.5339C62.0154 70.2259 61.6408 70.0712 61.2075 70.0712Z" fill="#686666"/>
<path d="M70.1836 85.4086C70.8918 84.3452 71.2458 83.1963 71.2458 81.9618C71.2458 80.7277 70.8918 79.5745 70.1836 78.5028C69.4751 77.431 68.5379 76.6758 67.3712 76.2374C67.2042 76.1564 66.9962 76.1155 66.7462 76.1155C66.3125 76.1155 65.9379 76.2657 65.6215 76.5661C65.3047 76.8669 65.1467 77.2361 65.1467 77.6746C65.1467 78.0154 65.2469 78.3041 65.4469 78.5394C65.6468 78.7752 65.8883 78.9779 66.1716 79.1485C66.4547 79.3192 66.7381 79.5061 67.0214 79.7088C67.3045 79.912 67.5463 80.2003 67.7462 80.5737C67.9462 80.9475 68.0464 81.4102 68.0464 81.9621C68.0464 82.5146 67.9462 82.9772 67.7462 83.3506C67.5463 83.7244 67.3045 84.0127 67.0214 84.2155C66.738 84.4186 66.4546 84.6051 66.1716 84.7758C65.8882 84.9464 65.6468 85.1495 65.4469 85.3849C65.2469 85.6207 65.1467 85.9085 65.1467 86.2498C65.1467 86.6883 65.3051 87.0579 65.6215 87.3583C65.9379 87.6591 66.3129 87.8088 66.7461 87.8088C66.9961 87.8088 67.2042 87.7683 67.3712 87.687C68.5379 87.2318 69.4751 86.4725 70.1836 85.4086Z" fill="#686666"/>
<path d="M69.8962 70.4883C69.6797 70.4074 69.4626 70.3665 69.2464 70.3665C68.8128 70.3665 68.4377 70.5209 68.1213 70.8292C67.8044 71.1379 67.6465 71.5034 67.6465 71.9255C67.6465 72.5588 67.9714 73.0382 68.6214 73.3628C69.5547 73.8342 70.1875 74.1909 70.5214 74.4345C71.7543 75.3115 72.7167 76.4117 73.4086 77.7354C74.1001 79.0592 74.4459 80.4676 74.4459 81.9616C74.4459 83.4561 74.1001 84.8645 73.4086 86.1883C72.7167 87.5121 71.7544 88.6122 70.5214 89.4892C70.1878 89.7328 69.5547 90.0899 68.6214 90.561C67.9714 90.886 67.6465 91.3649 67.6465 91.9982C67.6465 92.4209 67.805 92.7864 68.1213 93.0947C68.4377 93.4034 68.8212 93.5573 69.2713 93.5573C69.4711 93.5573 69.6792 93.5169 69.8962 93.4355C72.2291 92.4776 74.1039 90.9469 75.5205 88.8439C76.9368 86.7407 77.6454 84.447 77.6454 81.9621C77.6454 79.4773 76.9368 77.184 75.5205 75.0804C74.104 72.9769 72.2291 71.4466 69.8962 70.4883Z" fill="#686666"/>
</g>
</g>
<path d="M234.88 54.6026H234.047C233.801 54.6026 233.601 54.7913 233.601 55.0241V67.6213C233.601 67.854 233.801 68.0428 234.047 68.0428H234.88C235.126 68.0428 235.326 67.854 235.326 67.6213V55.0241C235.326 54.7913 235.126 54.6026 234.88 54.6026Z" fill="#3A3768"/>
<path d="M176.813 44.0725H176.737C176.491 44.0725 176.291 44.2612 176.291 44.494V48.0758C176.291 48.3086 176.491 48.4973 176.737 48.4973H176.813C177.059 48.4973 177.259 48.3086 177.259 48.0758V44.494C177.259 44.2612 177.059 44.0725 176.813 44.0725Z" fill="#3A3768"/>
<path d="M176.9 52.1748H176.702C176.456 52.1748 176.256 52.3636 176.256 52.5963V59.4545C176.256 59.6872 176.456 59.876 176.702 59.876H176.9C177.147 59.876 177.346 59.6872 177.346 59.4545V52.5963C177.346 52.3636 177.147 52.1748 176.9 52.1748Z" fill="#3A3768"/>
<path d="M176.866 62.5706H176.72C176.473 62.5706 176.274 62.7593 176.274 62.9921V69.9165C176.274 70.1493 176.473 70.338 176.72 70.338H176.866C177.112 70.338 177.311 70.1493 177.311 69.9165V62.9921C177.311 62.7593 177.112 62.5706 176.866 62.5706Z" fill="#3A3768"/>
<path d="M226.943 29.4507H184.429C180.238 29.4507 176.84 32.6637 176.84 36.6272V133.151C176.84 137.114 180.238 140.327 184.429 140.327H226.943C231.134 140.327 234.532 137.114 234.532 133.151V36.6272C234.532 32.6637 231.134 29.4507 226.943 29.4507Z" fill="#3F3D56"/>
<path d="M207.424 32.7619H200.874C200.458 32.7619 200.121 33.0808 200.121 33.4742V33.5957C200.121 33.9891 200.458 34.308 200.874 34.308H207.424C207.84 34.308 208.177 33.9891 208.177 33.5957V33.4742C208.177 33.0808 207.84 32.7619 207.424 32.7619Z" fill="#E6E8EC"/>
<path d="M210.322 34.4129C210.835 34.4129 211.251 34.0199 211.251 33.535C211.251 33.0501 210.835 32.657 210.322 32.657C209.809 32.657 209.394 33.0501 209.394 33.535C209.394 34.0199 209.809 34.4129 210.322 34.4129Z" fill="#E6E8EC"/>
<path d="M226.38 32.3386H219.782V33.0914C219.782 34.0374 219.384 34.9448 218.677 35.6137C217.97 36.2827 217.01 36.6585 216.01 36.6585H194.953C193.953 36.6585 192.994 36.2827 192.286 35.6137C191.579 34.9448 191.181 34.0374 191.181 33.0914V32.3386H184.984C184.382 32.3386 183.787 32.4507 183.231 32.6684C182.675 32.8862 182.17 33.2054 181.745 33.6077C181.319 34.0101 180.982 34.4878 180.752 35.0134C180.522 35.5391 180.404 36.1025 180.404 36.6714V133.107C180.404 133.675 180.522 134.239 180.752 134.764C180.982 135.29 181.319 135.768 181.745 136.17C182.17 136.573 182.675 136.892 183.231 137.11C183.787 137.327 184.382 137.439 184.984 137.439H226.38C227.595 137.439 228.761 136.983 229.62 136.17C230.479 135.358 230.962 134.256 230.962 133.107V36.6714C230.962 35.5222 230.479 34.4202 229.62 33.6076C228.761 32.7951 227.595 32.3386 226.38 32.3386V32.3386Z" fill="#6BCED7"/>
<path opacity="0.1" d="M215.522 51.0602H186.52V55.4776H215.522V51.0602Z" fill="black" stroke="#6BCED7" stroke-miterlimit="10"/>
<path opacity="0.1" d="M189.531 79.8282C192.971 79.8282 195.759 77.1912 195.759 73.9382C195.759 70.6853 192.971 68.0483 189.531 68.0483C186.091 68.0483 183.302 70.6853 183.302 73.9382C183.302 77.1912 186.091 79.8282 189.531 79.8282Z" fill="black" stroke="#6BCED7" stroke-miterlimit="10"/>
<path d="M187.779 72.8339V75.0426H189.336L191.282 76.966V70.9086L189.336 72.8339H187.779Z" fill="white"/>
<path opacity="0.1" d="M206.075 79.8282C209.515 79.8282 212.304 77.1912 212.304 73.9382C212.304 70.6853 209.515 68.0483 206.075 68.0483C202.635 68.0483 199.847 70.6853 199.847 73.9382C199.847 77.1912 202.635 79.8282 206.075 79.8282Z" fill="black" stroke="#6BCED7" stroke-miterlimit="10"/>
<path d="M206.075 76.3973C205.928 76.3966 205.784 76.4372 205.661 76.514C205.538 76.5908 205.442 76.7004 205.386 76.8288C205.329 76.9572 205.313 77.0987 205.342 77.2353C205.37 77.3719 205.44 77.4976 205.544 77.5963C205.648 77.695 205.78 77.7623 205.925 77.7897C206.069 77.8171 206.219 77.8034 206.355 77.7503C206.491 77.6972 206.607 77.6071 206.689 77.4914C206.771 77.3757 206.815 77.2396 206.815 77.1004C206.815 76.9146 206.737 76.7363 206.598 76.6045C206.46 76.4728 206.272 76.3983 206.075 76.3973V76.3973ZM203.895 70.0729C203.748 70.0719 203.604 70.1122 203.481 70.1887C203.358 70.2653 203.261 70.3748 203.204 70.5031C203.147 70.6315 203.131 70.7731 203.159 70.9098C203.187 71.0466 203.258 71.1724 203.362 71.2713C203.465 71.3701 203.598 71.4377 203.742 71.4652C203.887 71.4928 204.036 71.4792 204.173 71.4262C204.309 71.3731 204.425 71.283 204.507 71.1673C204.589 71.0515 204.633 70.9154 204.633 70.7761C204.633 70.5905 204.555 70.4125 204.417 70.2808C204.279 70.1491 204.091 70.0744 203.895 70.0729V70.0729ZM203.895 72.1823C203.748 72.1812 203.603 72.2215 203.48 72.2982C203.357 72.3749 203.261 72.4844 203.204 72.6129C203.147 72.7414 203.131 72.883 203.16 73.0198C203.188 73.1566 203.258 73.2824 203.362 73.3812C203.466 73.4801 203.599 73.5474 203.743 73.5748C203.888 73.6022 204.038 73.5883 204.174 73.535C204.31 73.4816 204.426 73.3912 204.508 73.2753C204.59 73.1593 204.633 73.0229 204.633 72.8836C204.633 72.6982 204.555 72.5204 204.417 72.389C204.279 72.2576 204.091 72.1833 203.895 72.1823V72.1823ZM203.895 74.2898C203.748 74.2887 203.604 74.329 203.481 74.4056C203.358 74.4822 203.261 74.5916 203.204 74.72C203.147 74.8484 203.131 74.9899 203.159 75.1267C203.187 75.2634 203.258 75.3892 203.362 75.4881C203.465 75.587 203.598 75.6545 203.742 75.6821C203.887 75.7097 204.036 75.696 204.173 75.643C204.309 75.5899 204.425 75.4998 204.507 75.3841C204.589 75.2684 204.633 75.1322 204.633 74.9929C204.633 74.8074 204.555 74.6294 204.417 74.4977C204.279 74.366 204.091 74.2912 203.895 74.2898V74.2898ZM208.255 71.4792C208.402 71.4799 208.547 71.4393 208.669 71.3625C208.792 71.2857 208.888 71.1761 208.945 71.0477C209.002 70.9193 209.017 70.7778 208.989 70.6412C208.961 70.5045 208.89 70.3789 208.786 70.2802C208.682 70.1815 208.55 70.1142 208.406 70.0867C208.261 70.0593 208.112 70.073 207.975 70.1261C207.839 70.1792 207.723 70.2694 207.641 70.3851C207.559 70.5008 207.516 70.6368 207.516 70.7761C207.515 70.8682 207.534 70.9594 207.571 71.0446C207.608 71.1297 207.663 71.2072 207.731 71.2725C207.8 71.3378 207.882 71.3896 207.972 71.4251C208.061 71.4606 208.158 71.4789 208.255 71.4792V71.4792ZM206.075 74.2898C205.928 74.2891 205.784 74.3297 205.661 74.4065C205.538 74.4833 205.442 74.5929 205.386 74.7213C205.329 74.8497 205.313 74.9912 205.342 75.1278C205.37 75.2644 205.44 75.3901 205.544 75.4888C205.648 75.5875 205.78 75.6548 205.925 75.6822C206.069 75.7096 206.219 75.6959 206.355 75.6428C206.491 75.5897 206.607 75.4996 206.689 75.3839C206.771 75.2682 206.815 75.1321 206.815 74.9929C206.815 74.8071 206.737 74.6288 206.598 74.497C206.46 74.3653 206.272 74.2908 206.075 74.2898V74.2898ZM208.255 74.2898C208.108 74.2891 207.964 74.3297 207.841 74.4065C207.718 74.4833 207.622 74.5929 207.565 74.7213C207.509 74.8497 207.493 74.9912 207.522 75.1278C207.55 75.2644 207.62 75.3901 207.724 75.4888C207.828 75.5875 207.96 75.6548 208.105 75.6822C208.249 75.7096 208.399 75.6959 208.535 75.6428C208.671 75.5897 208.787 75.4996 208.869 75.3839C208.951 75.2682 208.995 75.1321 208.995 74.9929C208.995 74.8071 208.917 74.6288 208.778 74.497C208.64 74.3653 208.452 74.2908 208.255 74.2898V74.2898ZM208.255 72.1823C208.108 72.1816 207.964 72.2222 207.841 72.2991C207.718 72.376 207.622 72.4857 207.565 72.6142C207.508 72.7427 207.493 72.8843 207.522 73.021C207.55 73.1577 207.621 73.2833 207.725 73.3819C207.829 73.4805 207.962 73.5477 208.106 73.5749C208.25 73.6022 208.4 73.5882 208.536 73.5348C208.672 73.4814 208.789 73.391 208.87 73.2751C208.952 73.1591 208.995 73.0229 208.995 72.8836C208.995 72.6979 208.917 72.5198 208.778 72.3883C208.64 72.2569 208.452 72.1828 208.255 72.1823V72.1823ZM206.075 72.1823C205.928 72.1816 205.784 72.2222 205.661 72.2991C205.538 72.376 205.442 72.4857 205.385 72.6142C205.329 72.7427 205.313 72.8843 205.342 73.021C205.37 73.1577 205.441 73.2833 205.545 73.3819C205.649 73.4805 205.782 73.5477 205.926 73.5749C206.07 73.6022 206.22 73.5882 206.356 73.5348C206.492 73.4814 206.609 73.391 206.69 73.2751C206.772 73.1591 206.815 73.0229 206.815 72.8836C206.815 72.6979 206.737 72.5198 206.598 72.3883C206.46 72.2569 206.272 72.1828 206.075 72.1823V72.1823ZM206.075 70.0729C205.928 70.0722 205.784 70.1128 205.661 70.1896C205.538 70.2665 205.442 70.376 205.386 70.5044C205.329 70.6328 205.313 70.7743 205.342 70.911C205.37 71.0476 205.44 71.1732 205.544 71.2719C205.648 71.3706 205.78 71.438 205.925 71.4654C206.069 71.4928 206.219 71.4791 206.355 71.426C206.491 71.3729 206.607 71.2828 206.689 71.1671C206.771 71.0514 206.815 70.9153 206.815 70.7761C206.815 70.5902 206.737 70.4119 206.598 70.2802C206.46 70.1484 206.272 70.0739 206.075 70.0729V70.0729Z" fill="white"/>
<g opacity="0.4">
<path opacity="0.1" d="M189.531 97.498C192.971 97.498 195.759 94.861 195.759 91.6081C195.759 88.3552 192.971 85.7181 189.531 85.7181C186.091 85.7181 183.302 88.3552 183.302 91.6081C183.302 94.861 186.091 97.498 189.531 97.498Z" fill="black" stroke="#6BCED7" stroke-miterlimit="10"/>
<path opacity="0.4" d="M192.45 91.9762H189.92V94.369H189.142V91.9762H186.611V91.24H189.142V88.8472H189.92V91.24H192.45V91.9762Z" fill="white"/>
</g>
<path opacity="0.1" d="M222.62 79.8282C226.06 79.8282 228.848 77.1912 228.848 73.9382C228.848 70.6853 226.06 68.0483 222.62 68.0483C219.18 68.0483 216.391 70.6853 216.391 73.9382C216.391 77.1912 219.18 79.8282 222.62 79.8282Z" fill="black" stroke="#6BCED7" stroke-miterlimit="10"/>
<path d="M222.62 70.3472C222.153 70.353 221.693 70.4455 221.265 70.6196C220.836 70.7936 220.448 71.0458 220.123 71.3617C219.798 71.6775 219.541 72.0509 219.368 72.4605C219.196 72.87 219.11 73.3077 219.116 73.7486V76.3936C219.114 76.5406 219.143 76.6865 219.2 76.823C219.258 76.9595 219.343 77.084 219.452 77.1893C219.56 77.2946 219.69 77.3786 219.832 77.4366C219.975 77.4946 220.129 77.5255 220.284 77.5274H221.452V74.4886H219.895V73.7523C219.895 73.0689 220.182 72.4135 220.693 71.9302C221.204 71.447 221.897 71.1755 222.62 71.1755C223.342 71.1755 224.036 71.447 224.547 71.9302C225.058 72.4135 225.345 73.0689 225.345 73.7523V74.4886H223.788V77.5256H224.955C225.111 77.5239 225.265 77.4932 225.407 77.4353C225.55 77.3773 225.68 77.2933 225.788 77.188C225.897 77.0826 225.982 76.9581 226.04 76.8214C226.097 76.6848 226.126 76.5388 226.123 76.3918V73.7486C226.129 73.3077 226.044 72.87 225.871 72.4605C225.698 72.0509 225.442 71.6775 225.117 71.3617C224.791 71.0458 224.403 70.7936 223.975 70.6196C223.546 70.4455 223.086 70.353 222.62 70.3472Z" fill="white"/>
<g opacity="0.4">
<path opacity="0.1" d="M206.075 97.498C209.515 97.498 212.304 94.861 212.304 91.6081C212.304 88.3552 209.515 85.7181 206.075 85.7181C202.635 85.7181 199.847 88.3552 199.847 91.6081C199.847 94.861 202.635 97.498 206.075 97.498Z" fill="black" stroke="#6BCED7" stroke-miterlimit="10"/>
<path opacity="0.4" d="M208.411 90.9768V89.5043C208.41 89.4484 208.398 89.3933 208.374 89.342C208.351 89.2907 208.317 89.2442 208.275 89.2052C208.233 89.1663 208.183 89.1356 208.128 89.1149C208.073 89.0942 208.014 89.0839 207.955 89.0846H202.439C202.32 89.0836 202.206 89.1272 202.121 89.2059C202.036 89.2845 201.987 89.3918 201.986 89.5043V93.7027C201.988 93.815 202.037 93.922 202.121 94.0006C202.206 94.0791 202.32 94.1229 202.439 94.1224H207.953C208.073 94.1234 208.187 94.0798 208.273 94.0012C208.358 93.9226 208.407 93.8153 208.409 93.7027V92.2302L210.161 93.9089V89.2981L208.411 90.9768Z" fill="white"/>
</g>
<path opacity="0.1" d="M222.62 97.498C226.06 97.498 228.848 94.861 228.848 91.6081C228.848 88.3552 226.06 85.7181 222.62 85.7181C219.18 85.7181 216.391 88.3552 216.391 91.6081C216.391 94.861 219.18 97.498 222.62 97.498Z" fill="black" stroke="#6BCED7" stroke-miterlimit="10"/>
<path d="M222.312 93.1248C221.977 93.3045 221.599 93.399 221.213 93.399C220.828 93.399 220.45 93.3045 220.115 93.1248C219.254 93.3732 218.727 94.196 218.532 94.9194H223.895C223.7 94.196 223.174 93.3732 222.312 93.1248ZM221.214 89.2595C220.832 89.2591 220.458 89.366 220.14 89.5667C219.822 89.7674 219.574 90.0529 219.427 90.3869C219.281 90.721 219.242 91.0886 219.317 91.4433C219.391 91.798 219.575 92.1239 219.846 92.3796C220.116 92.6353 220.461 92.8094 220.836 92.8799C221.211 92.9504 221.6 92.914 221.953 92.7755C222.306 92.6369 222.608 92.4023 222.82 92.1015C223.033 91.8006 223.146 91.447 223.145 91.0854C223.145 90.6011 222.942 90.1367 222.58 89.7943C222.218 89.4519 221.726 89.2595 221.214 89.2595V89.2595ZM221.214 92.4769C220.924 92.4718 220.641 92.3865 220.401 92.2315C220.161 92.0765 219.974 91.8585 219.864 91.6044H222.563C222.453 91.8586 222.267 92.0767 222.027 92.232C221.787 92.3874 221.505 92.4731 221.214 92.4787V92.4769Z" fill="white"/>
<path d="M223.834 93.815H226.707C226.618 93.433 226.425 93.0795 226.147 92.7891C225.87 92.4987 225.518 92.2814 225.125 92.1584C224.789 92.3381 224.411 92.4326 224.025 92.4327C223.766 92.4349 223.509 92.3938 223.266 92.3112C223.13 92.5364 222.958 92.7401 222.756 92.9149C223.201 93.1079 223.576 93.421 223.834 93.815V93.815ZM223.542 90.6399H225.376C225.265 90.8933 225.077 91.1105 224.837 91.2648C224.598 91.4192 224.315 91.5039 224.025 91.5087C223.867 91.5076 223.711 91.4815 223.562 91.4314C223.538 91.579 223.498 91.7239 223.443 91.8639C223.709 91.9442 223.99 91.969 224.267 91.9367C224.544 91.9044 224.81 91.8158 225.048 91.6769C225.285 91.538 225.488 91.3521 225.642 91.1321C225.796 90.912 225.898 90.663 225.941 90.4022C225.983 90.1413 225.966 89.8749 225.889 89.6211C225.813 89.3673 225.679 89.1322 225.497 88.9319C225.315 88.7317 225.089 88.5711 224.836 88.4611C224.582 88.3512 224.306 88.2945 224.027 88.295C223.702 88.2954 223.383 88.3732 223.098 88.5212C222.813 88.6692 222.572 88.8826 222.398 89.1417C222.69 89.3008 222.943 89.5166 223.14 89.7748C223.337 90.0331 223.474 90.3279 223.542 90.6399V90.6399Z" fill="white"/>
<path d="M206.075 121.058C209.515 121.058 212.304 118.421 212.304 115.168C212.304 111.915 209.515 109.278 206.075 109.278C202.635 109.278 199.847 111.915 199.847 115.168C199.847 118.421 202.635 121.058 206.075 121.058Z" fill="#FF6F61"/>
<path d="M202.877 116.622C203.218 116.318 203.606 116.064 204.028 115.871C204.093 115.844 204.148 115.799 204.187 115.742C204.225 115.685 204.245 115.618 204.244 115.551L204.277 114.406C205.467 114.071 206.739 114.104 207.909 114.498L207.876 115.643C207.875 115.709 207.892 115.775 207.926 115.833C207.96 115.891 208.01 115.94 208.07 115.974C208.493 116.182 208.876 116.456 209.203 116.784C209.238 116.819 209.28 116.847 209.327 116.867C209.374 116.887 209.424 116.898 209.475 116.899C209.526 116.901 209.577 116.893 209.625 116.875C209.673 116.858 209.717 116.832 209.754 116.799L210.743 115.912C210.817 115.845 210.861 115.752 210.864 115.655C210.867 115.558 210.829 115.463 210.758 115.392C210.161 114.796 209.444 114.316 208.651 113.981C207.857 113.646 207.001 113.462 206.133 113.44C205.264 113.418 204.399 113.558 203.587 113.852C202.775 114.146 202.033 114.588 201.402 115.153C201.365 115.187 201.335 115.226 201.314 115.271C201.293 115.315 201.282 115.363 201.281 115.411C201.28 115.459 201.288 115.507 201.307 115.553C201.325 115.598 201.353 115.639 201.388 115.674L202.325 116.609C202.36 116.644 202.402 116.672 202.449 116.692C202.496 116.712 202.546 116.722 202.597 116.724C202.648 116.725 202.699 116.716 202.747 116.699C202.795 116.682 202.838 116.655 202.875 116.622H202.877Z" fill="white"/>
<path opacity="0.1" d="M223.398 57.9249C226.086 57.9249 228.264 55.8647 228.264 53.3234C228.264 50.782 226.086 48.7219 223.398 48.7219C220.711 48.7219 218.532 50.782 218.532 53.3234C218.532 55.8647 220.711 57.9249 223.398 57.9249Z" fill="black" stroke="#6BCED7" stroke-miterlimit="10"/>
<path d="M224.498 54.356C224.163 54.5357 223.784 54.6301 223.398 54.6301C223.013 54.6301 222.634 54.5357 222.298 54.356C221.438 54.6045 220.911 55.4272 220.716 56.1524H226.08C225.886 55.4272 225.358 54.6045 224.498 54.356ZM223.398 50.4907C223.016 50.4903 222.642 50.5972 222.324 50.7978C222.006 50.9984 221.758 51.2838 221.611 51.6177C221.465 51.9516 221.426 52.3192 221.5 52.6739C221.575 53.0285 221.759 53.3544 222.029 53.6102C222.299 53.866 222.643 54.0402 223.018 54.1109C223.393 54.1816 223.782 54.1455 224.135 54.0072C224.489 53.8689 224.791 53.6346 225.003 53.334C225.216 53.0334 225.329 52.68 225.329 52.3184C225.329 51.8341 225.125 51.3698 224.763 51.0272C224.401 50.6846 223.91 50.4917 223.398 50.4907ZM223.398 53.7099C223.108 53.7043 222.825 53.6189 222.585 53.4639C222.346 53.309 222.159 53.0913 222.047 52.8375H224.749C224.638 53.0914 224.451 53.3092 224.211 53.4644C223.971 53.6196 223.689 53.7056 223.398 53.7118V53.7099Z" fill="white"/>
<path d="M245.65 155.982C247.361 154.472 248.783 152.598 249.83 150.47C250.877 148.342 251.529 146.003 251.748 143.591C251.78 143.232 251.934 142.9 252.178 142.662C252.422 142.423 252.739 142.297 253.065 142.307L255.043 142.371C255.219 142.377 255.393 142.423 255.553 142.506C255.713 142.589 255.856 142.707 255.973 142.854C256.09 143 256.178 143.172 256.233 143.358C256.287 143.544 256.307 143.741 256.29 143.936C255.782 149.884 253.228 155.387 249.158 159.304C245.087 163.221 239.812 165.252 234.427 164.975C234.25 164.966 234.078 164.917 233.919 164.831C233.76 164.745 233.619 164.624 233.504 164.475C233.39 164.326 233.304 164.153 233.252 163.966C233.2 163.778 233.183 163.581 233.202 163.387L233.423 161.212C233.458 160.855 233.614 160.526 233.859 160.291C234.105 160.056 234.421 159.932 234.746 159.945C238.693 160.125 242.566 158.717 245.65 155.982V155.982Z" fill="#6BCED7"/>
<path d="M243.965 153.52C240.876 156.164 237.009 157.549 233.053 157.428C232.872 157.422 232.693 157.376 232.529 157.293C232.365 157.209 232.219 157.09 232.1 156.943C231.982 156.797 231.892 156.625 231.839 156.44C231.785 156.254 231.768 156.059 231.789 155.866L231.956 154.268C231.992 153.92 232.148 153.6 232.394 153.37C232.639 153.139 232.957 153.015 233.283 153.021C236.402 153.08 239.431 151.903 241.787 149.718C244.143 147.532 245.66 144.493 246.045 141.183C246.084 140.835 246.243 140.515 246.491 140.285C246.739 140.056 247.058 139.934 247.386 139.943L248.889 139.99C249.07 139.995 249.248 140.04 249.413 140.122C249.577 140.204 249.723 140.322 249.842 140.468C249.962 140.614 250.052 140.784 250.106 140.969C250.161 141.154 250.179 141.349 250.159 141.541C249.914 143.875 249.241 146.135 248.178 148.19C247.115 150.246 245.684 152.057 243.965 153.52V153.52Z" fill="#6BCED7"/>
<path d="M237.839 145.306C239.639 143.698 240.835 141.391 241.19 138.842C241.236 138.486 241.396 138.161 241.642 137.928C241.887 137.695 242.2 137.571 242.521 137.579L243.242 137.603C243.427 137.61 243.608 137.66 243.775 137.75C243.941 137.841 244.088 137.97 244.206 138.129C244.325 138.289 244.412 138.474 244.461 138.674C244.511 138.873 244.522 139.082 244.495 139.287C244.058 142.617 242.568 145.66 240.297 147.863C238.026 150.066 235.124 151.282 232.12 151.289C231.938 151.287 231.759 151.242 231.593 151.157C231.428 151.072 231.28 150.949 231.16 150.795C231.04 150.642 230.95 150.462 230.896 150.267C230.842 150.073 230.825 149.867 230.846 149.665L230.926 148.859C230.964 148.502 231.118 148.172 231.358 147.933C231.598 147.694 231.908 147.561 232.23 147.561C234.271 147.529 236.245 146.736 237.839 145.306Z" fill="#6BCED7"/>
<path d="M161.478 9.58215C159.593 11.1862 158.027 13.1774 156.872 15.4383C155.718 17.6993 155 20.1842 154.759 22.7467C154.723 23.1282 154.554 23.4811 154.285 23.7343C154.015 23.9876 153.666 24.1222 153.307 24.1111L151.128 24.0429C150.933 24.037 150.742 23.9884 150.565 23.9003C150.389 23.8121 150.232 23.6862 150.103 23.5304C149.974 23.3745 149.876 23.192 149.816 22.9943C149.756 22.7965 149.734 22.5876 149.753 22.3806C150.312 16.0611 153.127 10.2141 157.613 6.05215C162.099 1.89018 167.912 -0.267498 173.847 0.0265467C174.041 0.0361622 174.232 0.0882822 174.407 0.179689C174.582 0.271096 174.737 0.399847 174.864 0.557985C174.99 0.716124 175.085 0.90029 175.142 1.09911C175.199 1.29792 175.218 1.50716 175.196 1.7139L174.954 4.02434C174.915 4.40397 174.743 4.75377 174.472 5.00349C174.202 5.25321 173.853 5.38435 173.496 5.37059C169.146 5.17978 164.878 6.67555 161.478 9.58215V9.58215Z" fill="#6BCED7"/>
<path d="M163.026 11.903C166.353 8.97354 170.517 7.43884 174.777 7.57252C174.973 7.57921 175.165 7.6304 175.341 7.72287C175.518 7.81534 175.675 7.94707 175.803 8.10976C175.931 8.27244 176.027 8.46254 176.085 8.66806C176.143 8.87358 176.161 9.09004 176.139 9.3038L175.959 11.0747C175.92 11.4595 175.751 11.8144 175.487 12.0699C175.222 12.3254 174.881 12.4631 174.529 12.456C171.17 12.3909 167.908 13.6947 165.371 16.1164C162.834 18.5382 161.201 21.9067 160.786 25.5736C160.744 25.9595 160.573 26.3144 160.306 26.5687C160.039 26.8229 159.695 26.9582 159.341 26.9479L157.723 26.8965C157.528 26.891 157.336 26.8411 157.159 26.7498C156.982 26.6586 156.825 26.5281 156.696 26.3665C156.568 26.2049 156.471 26.0158 156.412 25.8111C156.353 25.6063 156.334 25.3904 156.355 25.1769C156.619 22.5906 157.344 20.0868 158.488 17.8091C159.633 15.5314 161.175 13.5244 163.026 11.903V11.903Z" fill="#6BCED7"/>
<path d="M169.837 21.0526C167.85 22.771 166.53 25.2368 166.139 27.9615C166.088 28.3425 165.911 28.6902 165.64 28.939C165.37 29.1878 165.025 29.3204 164.67 29.3119L163.874 29.2862C163.67 29.2794 163.47 29.2258 163.287 29.1288C163.103 29.0319 162.941 28.8938 162.81 28.7237C162.68 28.5536 162.584 28.3554 162.529 28.1421C162.474 27.9288 162.461 27.7053 162.492 27.4864C162.974 23.927 164.618 20.6739 167.124 18.3191C169.63 15.9643 172.832 14.6645 176.146 14.6562C176.347 14.6586 176.546 14.7069 176.728 14.7979C176.911 14.8889 177.074 15.0205 177.206 15.1843C177.339 15.3481 177.438 15.5403 177.498 15.7485C177.557 15.9567 177.576 16.1762 177.552 16.3928L177.464 17.254C177.422 17.6361 177.252 17.9883 176.987 18.244C176.722 18.4997 176.38 18.6412 176.026 18.6419C173.773 18.6756 171.595 19.5239 169.837 21.0526Z" fill="#6BCED7"/>
<defs>
<clipPath id="clip0">
<rect y="29" width="117" height="153" fill="white"/>
</clipPath>
<clipPath id="clip1">
<rect x="43.6091" y="65.3776" width="34.0364" height="33.1678" fill="white"/>
</clipPath>
</defs>
</svg>
