<svg width="360" height="349" viewBox="0 0 360 349" fill="none" xmlns="http://www.w3.org/2000/svg">
<path d="M237.575 115.493H235.808C235.286 115.493 234.863 115.892 234.863 116.384V143.029C234.863 143.522 235.286 143.921 235.808 143.921H237.575C238.097 143.921 238.521 143.522 238.521 143.029V116.384C238.521 115.892 238.097 115.493 237.575 115.493Z" fill="#3A3768"/>
<path d="M114.41 93.22H114.249C113.727 93.22 113.304 93.6191 113.304 94.1115V101.688C113.304 102.18 113.727 102.579 114.249 102.579H114.41C114.933 102.579 115.356 102.18 115.356 101.688V94.1115C115.356 93.6191 114.933 93.22 114.41 93.22Z" fill="#3A3768"/>
<path d="M114.596 110.358H114.175C113.653 110.358 113.23 110.757 113.23 111.249V125.755C113.23 126.248 113.653 126.647 114.175 126.647H114.596C115.118 126.647 115.542 126.248 115.542 125.755V111.249C115.542 110.757 115.118 110.358 114.596 110.358Z" fill="#3A3768"/>
<path d="M114.522 132.346H114.212C113.69 132.346 113.267 132.745 113.267 133.238V147.884C113.267 148.376 113.69 148.776 114.212 148.776H114.522C115.044 148.776 115.467 148.376 115.467 147.884V133.238C115.467 132.745 115.044 132.346 114.522 132.346Z" fill="#3A3768"/>
<path d="M220.739 62.2926H130.565C121.675 62.2926 114.468 69.0887 114.468 77.4721V281.634C114.468 290.017 121.675 296.813 130.565 296.813H220.739C229.629 296.813 236.836 290.017 236.836 281.634V77.4721C236.836 69.0887 229.629 62.2926 220.739 62.2926Z" fill="#3F3D56"/>
<path d="M179.339 69.2964H165.447C164.564 69.2964 163.849 69.971 163.849 70.8031V71.06C163.849 71.8921 164.564 72.5667 165.447 72.5667H179.339C180.221 72.5667 180.937 71.8921 180.937 71.06V70.8031C180.937 69.971 180.221 69.2964 179.339 69.2964Z" fill="#E6E8EC"/>
<path d="M185.486 72.7886C186.574 72.7886 187.456 71.9572 187.456 70.9316C187.456 69.906 186.574 69.0745 185.486 69.0745C184.399 69.0745 183.517 69.906 183.517 70.9316C183.517 71.9572 184.399 72.7886 185.486 72.7886Z" fill="#E6E8EC"/>
<path d="M219.546 68.401H205.551V69.9933C205.551 71.9944 204.708 73.9135 203.207 75.3284C201.707 76.7434 199.672 77.5383 197.55 77.5383H152.888C150.766 77.5383 148.731 76.7434 147.23 75.3284C145.73 73.9135 144.887 71.9944 144.887 69.9933V68.401H131.742C130.466 68.401 129.202 68.6381 128.023 69.0987C126.844 69.5593 125.773 70.2344 124.871 71.0855C123.969 71.9365 123.254 72.9468 122.766 74.0587C122.278 75.1706 122.027 76.3622 122.027 77.5655V281.54C122.027 282.744 122.278 283.935 122.766 285.047C123.254 286.159 123.969 287.169 124.871 288.021C125.773 288.872 126.844 289.547 128.023 290.007C129.202 290.468 130.466 290.705 131.742 290.705H219.546C222.124 290.705 224.596 289.739 226.418 288.021C228.241 286.302 229.265 283.971 229.265 281.54V77.5655C229.265 75.1349 228.241 72.8039 226.418 71.0852C224.596 69.3665 222.124 68.401 219.546 68.401Z" fill="#6BCED7"/>
<path opacity="0.1" d="M196.514 108H135V117.344H196.514V108Z" fill="black" stroke="#6BCED7" stroke-miterlimit="10"/>
<path opacity="0.1" d="M141.386 168.849C148.682 168.849 154.597 163.271 154.597 156.391C154.597 149.51 148.682 143.932 141.386 143.932C134.09 143.932 128.175 149.51 128.175 156.391C128.175 163.271 134.09 168.849 141.386 168.849Z" fill="black" stroke="#6BCED7" stroke-miterlimit="10"/>
<path d="M137.67 154.055V158.726H140.973L145.102 162.795V149.982L140.973 154.055H137.67Z" fill="white"/>
<path opacity="0.1" d="M176.478 168.849C183.774 168.849 189.689 163.271 189.689 156.391C189.689 149.51 183.774 143.932 176.478 143.932C169.182 143.932 163.267 149.51 163.267 156.391C163.267 163.271 169.182 168.849 176.478 168.849Z" fill="black" stroke="#6BCED7" stroke-miterlimit="10"/>
<path d="M176.478 161.592C176.166 161.59 175.86 161.676 175.6 161.839C175.339 162.001 175.136 162.233 175.015 162.504C174.894 162.776 174.862 163.075 174.922 163.364C174.982 163.653 175.131 163.919 175.352 164.128C175.572 164.337 175.853 164.479 176.159 164.537C176.465 164.595 176.783 164.566 177.071 164.454C177.36 164.341 177.607 164.151 177.78 163.906C177.954 163.661 178.047 163.373 178.047 163.079C178.047 162.686 177.882 162.309 177.588 162.03C177.294 161.751 176.895 161.594 176.478 161.592ZM171.854 148.215C171.542 148.213 171.236 148.298 170.975 148.46C170.714 148.622 170.51 148.853 170.388 149.125C170.267 149.396 170.234 149.696 170.293 149.985C170.353 150.274 170.502 150.54 170.722 150.75C170.942 150.959 171.223 151.101 171.529 151.16C171.836 151.218 172.153 151.189 172.442 151.077C172.731 150.965 172.978 150.774 173.152 150.53C173.326 150.285 173.419 149.997 173.419 149.702C173.419 149.31 173.254 148.933 172.961 148.655C172.668 148.376 172.27 148.218 171.854 148.215ZM171.854 152.676C171.542 152.674 171.235 152.76 170.974 152.922C170.713 153.084 170.509 153.316 170.388 153.587C170.267 153.859 170.234 154.159 170.294 154.448C170.354 154.737 170.503 155.003 170.724 155.212C170.944 155.421 171.225 155.564 171.532 155.622C171.839 155.68 172.156 155.65 172.445 155.538C172.734 155.425 172.981 155.234 173.154 154.988C173.328 154.743 173.42 154.455 173.419 154.16C173.419 153.768 173.254 153.392 172.961 153.114C172.668 152.836 172.27 152.679 171.854 152.676ZM171.854 157.134C171.542 157.132 171.236 157.217 170.975 157.379C170.714 157.541 170.51 157.773 170.388 158.044C170.267 158.316 170.234 158.615 170.293 158.904C170.353 159.194 170.502 159.46 170.722 159.669C170.942 159.878 171.223 160.021 171.529 160.079C171.836 160.137 172.153 160.109 172.442 159.996C172.731 159.884 172.978 159.694 173.152 159.449C173.326 159.204 173.419 158.916 173.419 158.621C173.419 158.229 173.254 157.852 172.961 157.574C172.668 157.295 172.27 157.137 171.854 157.134ZM181.102 151.189C181.414 151.191 181.72 151.105 181.98 150.942C182.241 150.78 182.444 150.548 182.565 150.277C182.685 150.005 182.718 149.706 182.658 149.417C182.598 149.128 182.448 148.862 182.228 148.653C182.008 148.445 181.727 148.302 181.421 148.244C181.115 148.186 180.797 148.215 180.509 148.327C180.22 148.44 179.973 148.63 179.799 148.875C179.626 149.12 179.533 149.408 179.533 149.702C179.533 149.897 179.573 150.09 179.651 150.27C179.73 150.45 179.845 150.614 179.991 150.752C180.137 150.89 180.31 151 180.5 151.075C180.691 151.15 180.895 151.189 181.102 151.189ZM176.478 157.134C176.166 157.133 175.86 157.219 175.6 157.381C175.339 157.543 175.136 157.775 175.015 158.047C174.894 158.318 174.862 158.618 174.922 158.907C174.982 159.196 175.131 159.461 175.352 159.67C175.572 159.879 175.853 160.021 176.159 160.079C176.465 160.137 176.783 160.108 177.071 159.996C177.36 159.884 177.607 159.693 177.78 159.448C177.954 159.204 178.047 158.916 178.047 158.621C178.047 158.228 177.882 157.851 177.588 157.572C177.294 157.294 176.895 157.136 176.478 157.134ZM181.102 157.134C180.79 157.133 180.484 157.219 180.224 157.381C179.963 157.543 179.76 157.775 179.639 158.047C179.518 158.318 179.486 158.618 179.546 158.907C179.606 159.196 179.755 159.461 179.976 159.67C180.196 159.879 180.477 160.021 180.783 160.079C181.089 160.137 181.407 160.108 181.695 159.996C181.984 159.884 182.231 159.693 182.404 159.448C182.578 159.204 182.671 158.916 182.671 158.621C182.671 158.228 182.506 157.851 182.212 157.572C181.918 157.294 181.519 157.136 181.102 157.134ZM181.102 152.676C180.789 152.675 180.484 152.761 180.223 152.924C179.963 153.086 179.759 153.318 179.639 153.59C179.518 153.862 179.486 154.161 179.546 154.45C179.606 154.74 179.756 155.005 179.977 155.214C180.198 155.422 180.479 155.565 180.785 155.622C181.092 155.68 181.41 155.65 181.698 155.537C181.987 155.424 182.233 155.233 182.406 154.988C182.58 154.743 182.672 154.454 182.671 154.16C182.671 153.767 182.506 153.39 182.211 153.112C181.917 152.834 181.518 152.678 181.102 152.676ZM176.478 152.676C176.166 152.675 175.86 152.761 175.599 152.924C175.339 153.086 175.135 153.318 175.015 153.59C174.894 153.862 174.862 154.161 174.922 154.45C174.983 154.74 175.132 155.005 175.353 155.214C175.574 155.422 175.855 155.565 176.162 155.622C176.468 155.68 176.786 155.65 177.074 155.537C177.363 155.424 177.609 155.233 177.782 154.988C177.956 154.743 178.048 154.454 178.047 154.16C178.047 153.767 177.882 153.39 177.588 153.112C177.293 152.834 176.894 152.678 176.478 152.676ZM176.478 148.215C176.166 148.213 175.86 148.299 175.6 148.462C175.339 148.624 175.136 148.856 175.015 149.128C174.894 149.399 174.862 149.698 174.922 149.987C174.982 150.276 175.131 150.542 175.352 150.751C175.572 150.96 175.853 151.102 176.159 151.16C176.465 151.218 176.783 151.189 177.071 151.077C177.36 150.964 177.607 150.774 177.78 150.529C177.954 150.284 178.047 149.997 178.047 149.702C178.047 149.309 177.882 148.932 177.588 148.653C177.294 148.375 176.895 148.217 176.478 148.215Z" fill="white"/>
<g opacity="0.4">
<path opacity="0.1" d="M141.386 206.223C148.682 206.223 154.597 200.645 154.597 193.765C154.597 186.885 148.682 181.307 141.386 181.307C134.09 181.307 128.175 186.885 128.175 193.765C128.175 200.645 134.09 206.223 141.386 206.223Z" fill="black" stroke="#6BCED7" stroke-miterlimit="10"/>
<path opacity="0.4" d="M147.579 194.544H142.212V199.605H140.56V194.544H135.193V192.986H140.56V187.925H142.212V192.986H147.579V194.544Z" fill="white"/>
</g>
<path opacity="0.1" d="M211.57 168.849C218.866 168.849 224.781 163.271 224.781 156.391C224.781 149.51 218.866 143.932 211.57 143.932C204.274 143.932 198.359 149.51 198.359 156.391C198.359 163.271 204.274 168.849 211.57 168.849Z" fill="black" stroke="#6BCED7" stroke-miterlimit="10"/>
<path d="M211.57 148.795C210.581 148.807 209.605 149.003 208.696 149.371C207.787 149.739 206.964 150.273 206.274 150.941C205.584 151.609 205.04 152.399 204.674 153.265C204.308 154.131 204.126 155.057 204.139 155.99V161.584C204.134 161.895 204.195 162.204 204.317 162.492C204.439 162.781 204.621 163.044 204.851 163.267C205.081 163.49 205.355 163.667 205.658 163.79C205.961 163.913 206.286 163.978 206.616 163.982H209.093V157.555H205.79V155.997C205.79 154.552 206.399 153.165 207.483 152.143C208.567 151.121 210.037 150.547 211.57 150.547C213.103 150.547 214.573 151.121 215.657 152.143C216.741 153.165 217.35 154.552 217.35 155.997V157.555H214.047V163.978H216.524C216.854 163.975 217.18 163.91 217.483 163.787C217.786 163.665 218.061 163.487 218.291 163.264C218.521 163.041 218.702 162.778 218.824 162.489C218.946 162.2 219.006 161.891 219.001 161.58V155.99C219.015 155.057 218.833 154.131 218.466 153.265C218.1 152.399 217.556 151.609 216.866 150.941C216.176 150.273 215.353 149.739 214.444 149.371C213.536 149.003 212.559 148.807 211.57 148.795Z" fill="white"/>
<g opacity="0.4">
<path opacity="0.1" d="M176.478 206.223C183.774 206.223 189.689 200.645 189.689 193.765C189.689 186.885 183.774 181.307 176.478 181.307C169.182 181.307 163.267 186.885 163.267 193.765C163.267 200.645 169.182 206.223 176.478 206.223Z" fill="black" stroke="#6BCED7" stroke-miterlimit="10"/>
<path opacity="0.4" d="M181.432 192.43V189.315C181.43 189.197 181.404 189.08 181.355 188.972C181.305 188.863 181.234 188.765 181.144 188.683C181.054 188.6 180.948 188.535 180.832 188.491C180.716 188.448 180.591 188.426 180.466 188.427H168.766C168.514 188.425 168.271 188.518 168.091 188.684C167.91 188.85 167.807 189.077 167.804 189.315V198.195C167.808 198.433 167.912 198.659 168.092 198.825C168.272 198.992 168.514 199.084 168.766 199.083H180.462C180.715 199.085 180.958 198.993 181.139 198.827C181.32 198.661 181.424 198.434 181.428 198.195V195.081L185.144 198.631V188.879L181.432 192.43Z" fill="white"/>
</g>
<path opacity="0.1" d="M211.57 206.223C218.866 206.223 224.781 200.645 224.781 193.765C224.781 186.885 218.866 181.307 211.57 181.307C204.274 181.307 198.359 186.885 198.359 193.765C198.359 200.645 204.274 206.223 211.57 206.223Z" fill="black" stroke="#6BCED7" stroke-miterlimit="10"/>
<path d="M210.918 196.973C210.207 197.353 209.404 197.553 208.587 197.553C207.77 197.553 206.967 197.353 206.257 196.973C204.432 197.499 203.313 199.239 202.9 200.769H214.274C213.861 199.239 212.747 197.499 210.918 196.973ZM208.589 188.797C207.778 188.797 206.985 189.023 206.31 189.447C205.635 189.872 205.109 190.475 204.798 191.182C204.488 191.889 204.406 192.666 204.564 193.416C204.722 194.167 205.113 194.856 205.686 195.397C206.26 195.938 206.991 196.306 207.786 196.455C208.582 196.604 209.407 196.527 210.156 196.234C210.905 195.941 211.545 195.445 211.995 194.809C212.446 194.172 212.685 193.424 212.685 192.659C212.685 191.635 212.253 190.653 211.485 189.928C210.717 189.204 209.675 188.797 208.589 188.797ZM208.589 195.603C207.973 195.592 207.373 195.411 206.864 195.084C206.355 194.756 205.959 194.295 205.724 193.757H211.45C211.216 194.295 210.821 194.756 210.313 195.085C209.804 195.413 209.205 195.595 208.589 195.606V195.603Z" fill="white"/>
<path d="M214.146 198.433H220.24C220.05 197.625 219.641 196.877 219.052 196.263C218.464 195.649 217.717 195.189 216.883 194.929C216.172 195.309 215.368 195.509 214.551 195.509C214.002 195.514 213.457 195.427 212.941 195.252C212.653 195.729 212.288 196.159 211.859 196.529C212.804 196.937 213.599 197.6 214.146 198.433ZM213.527 191.717H217.416C217.18 192.253 216.783 192.713 216.274 193.039C215.765 193.365 215.166 193.545 214.551 193.555C214.216 193.552 213.884 193.497 213.568 193.391C213.517 193.703 213.433 194.01 213.316 194.306C213.88 194.476 214.477 194.528 215.064 194.46C215.652 194.392 216.217 194.204 216.72 193.91C217.224 193.617 217.653 193.224 217.98 192.758C218.307 192.293 218.524 191.766 218.614 191.214C218.705 190.663 218.667 190.099 218.505 189.562C218.342 189.025 218.058 188.528 217.673 188.104C217.287 187.681 216.809 187.341 216.27 187.109C215.732 186.876 215.147 186.756 214.555 186.757C213.866 186.758 213.188 186.923 212.584 187.236C211.98 187.549 211.47 188 211.099 188.548C211.718 188.885 212.255 189.341 212.673 189.887C213.092 190.434 213.383 191.057 213.527 191.717Z" fill="white"/>
<path d="M176.478 256.056C183.774 256.056 189.689 250.478 189.689 243.598C189.689 236.717 183.774 231.139 176.478 231.139C169.182 231.139 163.267 236.717 163.267 243.598C163.267 250.478 169.182 256.056 176.478 256.056Z" fill="#FF6F61"/>
<path d="M169.695 246.673C170.417 246.029 171.24 245.494 172.135 245.085C172.273 245.027 172.39 244.932 172.472 244.811C172.553 244.691 172.596 244.55 172.593 244.407L172.663 241.986C175.188 241.278 177.886 241.346 180.367 242.18L180.297 244.602C180.295 244.743 180.332 244.881 180.404 245.004C180.477 245.127 180.582 245.23 180.71 245.303C181.606 245.743 182.419 246.322 183.112 247.016C183.187 247.09 183.276 247.15 183.375 247.192C183.474 247.234 183.581 247.257 183.69 247.26C183.798 247.263 183.906 247.245 184.008 247.209C184.109 247.172 184.202 247.117 184.281 247.047L186.378 245.17C186.536 245.029 186.629 244.834 186.635 244.628C186.641 244.422 186.561 244.223 186.411 244.073C185.143 242.81 183.624 241.796 181.941 241.088C180.257 240.379 178.442 239.99 176.599 239.943C174.757 239.896 172.922 240.192 171.2 240.814C169.479 241.435 167.904 242.371 166.565 243.566C166.487 243.637 166.424 243.721 166.38 243.815C166.335 243.909 166.311 244.009 166.309 244.112C166.306 244.214 166.325 244.316 166.364 244.411C166.403 244.507 166.462 244.594 166.537 244.668L168.522 246.646C168.597 246.72 168.687 246.78 168.786 246.821C168.885 246.863 168.992 246.885 169.101 246.888C169.209 246.891 169.317 246.873 169.418 246.836C169.52 246.799 169.612 246.744 169.691 246.673H169.695Z" fill="white"/>
<path opacity="0.1" d="M213.221 122.52C218.922 122.52 223.543 118.162 223.543 112.787C223.543 107.412 218.922 103.054 213.221 103.054C207.521 103.054 202.9 107.412 202.9 112.787C202.9 118.162 207.521 122.52 213.221 122.52Z" fill="black" stroke="#6BCED7" stroke-miterlimit="10"/>
<path d="M215.554 114.971C214.843 115.351 214.039 115.551 213.221 115.551C212.404 115.551 211.6 115.351 210.889 114.971C209.064 115.497 207.945 117.237 207.532 118.771H218.911C218.498 117.237 217.379 115.497 215.554 114.971ZM213.221 106.795C212.411 106.795 211.617 107.021 210.943 107.445C210.268 107.869 209.742 108.473 209.431 109.179C209.12 109.886 209.038 110.663 209.196 111.413C209.354 112.163 209.744 112.853 210.317 113.394C210.89 113.935 211.621 114.303 212.416 114.453C213.211 114.602 214.036 114.526 214.785 114.233C215.535 113.941 216.175 113.445 216.626 112.81C217.076 112.174 217.317 111.426 217.317 110.661C217.316 109.637 216.884 108.655 216.116 107.93C215.349 107.206 214.308 106.798 213.221 106.795ZM213.221 113.605C212.605 113.593 212.006 113.412 211.497 113.084C210.989 112.757 210.592 112.296 210.356 111.759H216.087C215.851 112.296 215.454 112.757 214.945 113.085C214.437 113.414 213.838 113.595 213.221 113.609V113.605Z" fill="white"/>
<path d="M260.419 329.925C264.049 326.731 267.063 322.767 269.284 318.266C271.506 313.765 272.889 308.819 273.352 303.717C273.421 302.958 273.747 302.255 274.265 301.751C274.784 301.247 275.456 300.979 276.146 301.001L280.341 301.137C280.716 301.149 281.084 301.245 281.423 301.421C281.763 301.596 282.066 301.847 282.314 302.157C282.562 302.468 282.75 302.831 282.866 303.225C282.982 303.618 283.023 304.034 282.988 304.446C281.911 317.027 276.493 328.666 267.859 336.952C259.225 345.237 248.037 349.533 236.614 348.947C236.24 348.928 235.873 348.824 235.536 348.642C235.2 348.46 234.9 348.204 234.657 347.889C234.414 347.574 234.231 347.208 234.121 346.812C234.011 346.416 233.975 346 234.017 345.588L234.484 340.989C234.559 340.233 234.89 339.537 235.41 339.039C235.931 338.542 236.602 338.281 237.29 338.309C245.662 338.688 253.877 335.711 260.419 329.925Z" fill="#6BCED7"/>
<path d="M256.845 324.719C250.292 330.31 242.09 333.24 233.7 332.985C233.315 332.972 232.937 332.874 232.589 332.698C232.241 332.521 231.931 332.27 231.679 331.959C231.427 331.649 231.238 331.286 231.125 330.893C231.011 330.501 230.974 330.088 231.018 329.68L231.373 326.3C231.45 325.565 231.781 324.888 232.302 324.4C232.823 323.912 233.496 323.65 234.189 323.663C240.804 323.787 247.229 321.299 252.226 316.676C257.223 312.053 260.44 305.624 261.257 298.624C261.339 297.888 261.676 297.21 262.202 296.725C262.729 296.24 263.406 295.981 264.102 296.001L267.289 296.099C267.674 296.11 268.052 296.205 268.4 296.379C268.748 296.553 269.058 296.802 269.311 297.111C269.565 297.419 269.755 297.78 269.871 298.171C269.987 298.562 270.025 298.974 269.984 299.381C269.464 304.318 268.036 309.097 265.782 313.445C263.527 317.793 260.49 321.624 256.845 324.719Z" fill="#6BCED7"/>
<path d="M243.85 307.344C247.67 303.943 250.207 299.064 250.959 293.673C251.056 292.919 251.397 292.231 251.917 291.739C252.437 291.246 253.101 290.984 253.782 291.001L255.312 291.052C255.704 291.065 256.089 291.171 256.441 291.363C256.794 291.555 257.106 291.828 257.357 292.165C257.608 292.501 257.792 292.893 257.898 293.316C258.003 293.738 258.027 294.18 257.969 294.613C257.042 301.656 253.882 308.093 249.065 312.752C244.248 317.412 238.093 319.984 231.722 320C231.336 319.995 230.955 319.9 230.604 319.72C230.253 319.54 229.94 319.279 229.685 318.955C229.43 318.631 229.239 318.25 229.124 317.839C229.01 317.427 228.974 316.992 229.019 316.564L229.189 314.86C229.27 314.104 229.596 313.407 230.105 312.901C230.615 312.395 231.272 312.115 231.954 312.113C236.284 312.047 240.47 310.368 243.85 307.344Z" fill="#6BCED7"/>
<path d="M81.8847 20.2677C77.8848 23.6604 74.5629 27.8721 72.1151 32.6544C69.6672 37.4367 68.1429 42.6927 67.632 48.1127C67.5569 48.9196 67.1974 49.6661 66.626 50.2017C66.0546 50.7373 65.3138 51.0221 64.553 50.9987L59.93 50.8544C59.5173 50.8419 59.1114 50.7392 58.7374 50.5527C58.3634 50.3662 58.0294 50.0999 57.756 49.7703C57.4826 49.4406 57.2756 49.0547 57.1479 48.6364C57.0202 48.218 56.9744 47.7762 57.0136 47.3383C58.2005 33.9716 64.1705 21.6044 73.6856 12.8012C83.2007 3.99801 95.5309 -0.565798 108.119 0.0561503C108.532 0.0764886 108.936 0.18673 109.307 0.38007C109.678 0.573409 110.008 0.845737 110.276 1.18022C110.544 1.51471 110.745 1.90425 110.867 2.32477C110.988 2.7453 111.027 3.18788 110.982 3.62516L110.467 8.51209C110.384 9.31506 110.019 10.0549 109.446 10.5831C108.872 11.1113 108.132 11.3887 107.374 11.3596C98.1475 10.956 89.0946 14.1198 81.8847 20.2677Z" fill="#6BCED7"/>
<path d="M85.167 25.1767C92.2236 18.9804 101.057 15.7343 110.092 16.017C110.507 16.0312 110.914 16.1395 111.289 16.335C111.664 16.5306 111.997 16.8093 112.268 17.1534C112.54 17.4975 112.743 17.8996 112.866 18.3343C112.989 18.769 113.028 19.2268 112.981 19.6789L112.598 23.4247C112.516 24.2386 112.159 24.9892 111.598 25.5296C111.037 26.07 110.312 26.3613 109.566 26.3464C102.442 26.2086 95.523 28.9663 90.1413 34.0887C84.7597 39.2111 81.2956 46.336 80.4159 54.092C80.3276 54.9083 79.9643 55.659 79.3975 56.1968C78.8307 56.7345 78.1012 57.0206 77.352 56.9988L73.9191 56.8903C73.5053 56.8786 73.0981 56.7729 72.7233 56.5799C72.3485 56.387 72.0142 56.1109 71.7416 55.7692C71.4689 55.4274 71.2638 55.0274 71.1391 54.5943C71.0144 54.1613 70.9729 53.7046 71.0172 53.253C71.5769 47.7825 73.1148 42.4867 75.5428 37.669C77.9708 32.8513 81.2413 28.6062 85.167 25.1767Z" fill="#6BCED7"/>
<path d="M99.6134 44.5294C95.3987 48.1642 92.599 53.3797 91.7691 59.1428C91.662 59.9486 91.286 60.684 90.7121 61.2103C90.1383 61.7365 89.4062 62.0172 88.6543 61.9992L86.9665 61.9447C86.5339 61.9304 86.1091 61.817 85.7201 61.6119C85.331 61.4068 84.9866 61.1147 84.7095 60.755C84.4324 60.3952 84.229 59.9759 84.1126 59.5248C83.9963 59.0737 83.9697 58.601 84.0346 58.1379C85.0571 50.6093 88.5435 43.7284 93.859 38.7476C99.1746 33.7669 105.966 31.0175 112.997 31C113.423 31.0051 113.843 31.1073 114.23 31.2997C114.618 31.4922 114.963 31.7707 115.244 32.1171C115.526 32.4636 115.736 32.8702 115.863 33.3106C115.99 33.7509 116.029 34.2152 115.979 34.6732L115.791 36.4949C115.702 37.3031 115.342 38.0479 114.78 38.5887C114.218 39.1296 113.493 39.429 112.741 39.4305C107.963 39.5017 103.343 41.296 99.6134 44.5294Z" fill="#6BCED7"/>
</svg>
