<svg width="269" height="247" viewBox="0 0 269 247" fill="none" xmlns="http://www.w3.org/2000/svg">
<g clip-path="url(#clip0)">
<path d="M125.495 246.323C184.951 246.323 233.15 191.333 233.15 123.5C233.15 55.6664 184.951 0.676514 125.495 0.676514C66.0379 0.676514 17.8388 55.6664 17.8388 123.5C17.8388 191.333 66.0379 246.323 125.495 246.323Z" stroke="white" stroke-width="4" stroke-miterlimit="10" stroke-dasharray="12.07 15.09"/>
<path opacity="0.2" d="M135.895 37.1823H22.6107V119.393H135.895V37.1823Z" fill="#D43434"/>
<path d="M129.913 25.363H0V109.549H129.913V25.363Z" fill="url(#paint0_linear)"/>
<path d="M128.182 37.6176H1.38501V107.576H128.182V37.6176Z" fill="white"/>
<path d="M54.0444 43.5461H10.0479V96.5095H54.0444V43.5461Z" fill="url(#paint1_linear)"/>
<path d="M53.0064 44.7314H11.4329V95.3224H53.0064V44.7314Z" fill="#9439BF"/>
<path d="M43.8304 64.7088C43.5042 61.7041 43.0563 58.6826 42.051 55.881C41.0456 53.0793 39.4233 50.4875 37.1694 48.8904C36.3661 48.274 35.436 47.9067 34.4706 47.8246C32.6911 47.7536 31.0748 49.1104 30.1644 50.8394C29.8565 51.4374 29.5879 52.0605 29.3606 52.7038C28.5198 52.8667 27.7513 53.3472 27.1785 54.0682C26.6058 54.7892 26.2619 55.7088 26.2021 56.6795C24.3378 57.5856 22.7689 59.1349 21.7155 61.1099C20.6621 63.085 20.1771 65.3868 20.3285 67.6923C20.48 69.9979 21.2602 72.1915 22.5599 73.9653C23.8596 75.7392 25.6134 77.0044 27.5753 77.5833V79.4714C25.4964 80.0917 23.6557 81.479 22.3399 83.4172C21.024 85.3554 20.307 87.7357 20.3004 90.1872V95.3269H39.7021V90.1872C39.6955 87.7357 38.9784 85.3554 37.6626 83.4172C36.3468 81.479 34.5061 80.0917 32.4272 79.4714V77.5833C34.5096 76.9691 36.3541 75.583 37.6709 73.6427C38.9877 71.7024 39.7022 69.318 39.7021 66.8641C39.7021 66.837 39.7021 66.8134 39.7021 66.7863L40.7935 69.5575C41.8315 72.1967 42.8962 75.0321 42.4929 77.8879C44.4799 74.0035 44.3138 69.1819 43.8304 64.7088Z" fill="white"/>
<path d="M128.182 26.9478H1.38501V37.6193H128.182V26.9478Z" fill="#8E34D4"/>
<path d="M118.134 59.5546H69.9792V63.1112H118.134V59.5546Z" fill="#E0E0E0"/>
<path d="M118.134 74.5738H69.9792V78.1299H118.134V74.5738Z" fill="#F5F5F5"/>
<path opacity="0.2" d="M98.0409 67.0623H69.6322V70.6184H98.0409V67.0623Z" fill="#D43434"/>
<path opacity="0.2" d="M89.034 82.0814H69.6322V85.6376H89.034V82.0814Z" fill="#69F0AE"/>
<path d="M111.9 82.0814H92.498V85.6376H111.9V82.0814Z" fill="#69F0AE"/>
<path opacity="0.2" d="M261.847 46.2428H197.92V80.2543H261.847V46.2428Z" fill="#FF6E40"/>
<path d="M256.419 38.1132H187.87V75.0588H256.419V38.1132Z" fill="url(#paint2_linear)"/>
<path d="M254.317 38.9933H190.391V73.0048H254.317V38.9933Z" fill="white"/>
<path opacity="0.3" d="M237.368 46.4293H200.077V50.4659H237.368V46.4293Z" fill="#762778"/>
<path d="M219.416 55.667H200.077V59.7035H219.416V55.667Z" fill="#B640FF"/>
<path opacity="0.2" d="M269 188.614H119.875V234.376H269V188.614Z" fill="#D43434"/>
<path d="M262.004 178.628H110.707V227.355H262.004V178.628Z" fill="url(#paint3_linear)"/>
<path d="M260.918 180.279H111.793V225.703H260.918V180.279Z" fill="white"/>
<path d="M148.236 220.012C156.474 220.012 163.153 212.392 163.153 202.993C163.153 193.593 156.474 185.974 148.236 185.974C139.997 185.974 133.318 193.593 133.318 202.993C133.318 212.392 139.997 220.012 148.236 220.012Z" fill="url(#paint4_linear)"/>
<path d="M148.236 218.121C155.559 218.121 161.495 211.348 161.495 202.994C161.495 194.639 155.559 187.866 148.236 187.866C140.913 187.866 134.976 194.639 134.976 202.994C134.976 211.348 140.913 218.121 148.236 218.121Z" fill="#A134D4"/>
<g opacity="0.2">
<path opacity="0.2" d="M197.959 191.648H174.34V196.375H197.959V191.648Z" fill="#D43434"/>
<path opacity="0.2" d="M239.393 200.627H174.34V205.354H239.393V200.627Z" fill="#D43434"/>
<path opacity="0.2" d="M239.393 209.61H174.34V214.337H239.393V209.61Z" fill="#D43434"/>
</g>
<path d="M156.937 196.926L154.025 194.392L146.35 205.865L142.067 202.136L139.846 205.456L145.587 210.457L145.602 210.433L147.055 211.698L156.937 196.926Z" fill="white"/>
</g>
<defs>
<linearGradient id="paint0_linear" x1="64.9553" y1="109.553" x2="64.9553" y2="25.363" gradientUnits="userSpaceOnUse">
<stop stop-color="#808080" stop-opacity="0.25"/>
<stop offset="0.54" stop-color="#808080" stop-opacity="0.12"/>
<stop offset="1" stop-color="#808080" stop-opacity="0.1"/>
</linearGradient>
<linearGradient id="paint1_linear" x1="1500.65" y1="11004.8" x2="8027.53" y2="11004.8" gradientUnits="userSpaceOnUse">
<stop stop-color="#808080" stop-opacity="0.25"/>
<stop offset="0.54" stop-color="#808080" stop-opacity="0.12"/>
<stop offset="1" stop-color="#808080" stop-opacity="0.1"/>
</linearGradient>
<linearGradient id="paint2_linear" x1="51534.4" y1="8233.75" x2="51534.4" y2="4199.66" gradientUnits="userSpaceOnUse">
<stop stop-color="#808080" stop-opacity="0.25"/>
<stop offset="0.54" stop-color="#808080" stop-opacity="0.12"/>
<stop offset="1" stop-color="#808080" stop-opacity="0.1"/>
</linearGradient>
<linearGradient id="paint3_linear" x1="95179.3" y1="32920.5" x2="95179.3" y2="25902.9" gradientUnits="userSpaceOnUse">
<stop stop-color="#808080" stop-opacity="0.25"/>
<stop offset="0.54" stop-color="#808080" stop-opacity="0.12"/>
<stop offset="1" stop-color="#808080" stop-opacity="0.1"/>
</linearGradient>
<linearGradient id="paint4_linear" x1="15045.8" y1="22319.2" x2="15045.8" y2="18895" gradientUnits="userSpaceOnUse">
<stop stop-color="#808080" stop-opacity="0.25"/>
<stop offset="0.54" stop-color="#808080" stop-opacity="0.12"/>
<stop offset="1" stop-color="#808080" stop-opacity="0.1"/>
</linearGradient>
<clipPath id="clip0">
<rect width="269" height="247" fill="white"/>
</clipPath>
</defs>
</svg>
