<svg width="313" height="350" viewBox="0 0 313 350" fill="none" xmlns="http://www.w3.org/2000/svg">
<path d="M295.705 299.975C308.551 283.769 314.13 264.194 311.427 244.799C308.725 225.404 297.921 207.472 280.975 194.256C264.029 181.041 242.063 173.416 219.06 172.764C196.058 172.113 173.541 178.478 155.595 190.706C137.648 202.933 125.459 220.213 121.239 239.413C117.018 258.612 121.046 278.459 132.592 295.355C144.137 312.25 162.435 325.075 184.168 331.505C205.9 337.934 229.629 337.542 251.05 330.399C252.439 334.605 255.035 338.453 258.606 341.6C262.178 344.746 266.612 347.09 271.514 348.426C276.415 349.76 281.63 350.043 286.692 349.248C291.754 348.454 296.504 346.606 300.518 343.872C304.532 341.136 307.685 337.6 309.693 333.577C311.701 329.555 312.502 325.173 312.025 320.824C311.548 316.474 309.808 312.293 306.96 308.655C304.111 305.016 300.244 302.033 295.705 299.975Z" fill="#E367F8"/>
<path d="M205.478 246.009V270.991L226.522 258.5L205.478 246.009Z" fill="white"/>
<path d="M255.871 220.889H176.129C172.197 220.889 169 224.056 169 227.942V289.055C169 292.941 172.197 296.107 176.129 296.107H255.871C259.803 296.107 263 292.941 263 289.055V227.942C263 224.056 259.803 220.889 255.871 220.889ZM244.388 225.912C245.915 225.912 247.158 227.141 247.158 228.656C247.158 230.167 245.915 231.397 244.388 231.397C242.86 231.397 241.621 230.167 241.621 228.656C241.617 227.141 242.854 225.912 244.388 225.912ZM236.469 225.912C237.996 225.912 239.242 227.141 239.242 228.656C239.242 230.167 237.996 231.397 236.469 231.397C234.938 231.397 233.698 230.167 233.698 228.656C233.695 227.141 234.935 225.912 236.469 225.912ZM254.682 283.185C254.682 285.769 252.544 287.888 249.932 287.888H182.068C179.456 287.888 177.318 285.769 177.318 283.185V233.818C177.318 231.234 179.456 229.116 182.068 229.116H220.232C222.844 229.116 224.982 230.702 224.982 232.642C224.982 234.585 227.123 236.168 229.732 236.168H249.929C252.541 236.168 254.679 238.287 254.679 240.871L254.682 283.185ZM252.307 231.397C250.773 231.397 249.533 230.167 249.533 228.656C249.533 227.141 250.773 225.912 252.307 225.912C253.835 225.912 255.074 227.141 255.074 228.656C255.078 230.167 253.835 231.397 252.307 231.397Z" fill="white"/>
<path d="M199.159 280.91H184.513V284.008H199.159V284.68H203.65V280.234H199.159V280.91Z" fill="white"/>
<path d="M204.608 281.429H246.965V283.494H204.608V284.008H247.484V280.91H204.608V281.429Z" fill="white"/>
<path d="M17.9195 137.321C4.60902 119.932 -1.17032 98.9277 1.62946 78.1158C4.42924 57.3039 15.6228 38.0629 33.1802 23.8819C50.7376 9.70094 73.4963 1.51907 97.3292 0.82004C121.162 0.121012 144.491 6.95111 163.085 20.0717C181.679 33.1924 194.308 51.7347 198.68 72.3362C203.053 92.9377 198.88 114.234 186.918 132.364C174.956 150.493 155.998 164.255 133.481 171.154C110.964 178.053 86.3793 177.632 64.1854 169.967C62.7465 174.481 60.0566 178.61 56.3565 181.986C52.6563 185.362 48.0614 187.878 42.983 189.311C37.9047 190.743 32.5015 191.046 27.2571 190.193C22.0126 189.341 17.0907 187.358 12.9319 184.424C8.77308 181.489 5.50716 177.694 3.42655 173.378C1.34594 169.062 0.515554 164.36 1.00974 159.693C1.50393 155.026 3.30728 150.539 6.25832 146.635C9.20935 142.731 13.216 139.53 17.9195 137.321V137.321Z" fill="#E367F8"/>
<path d="M51 77.0993L156.34 77.0993V69L51 69V77.0993Z" fill="white"/>
<path d="M51 96.0993L156.34 96.0993V88L51 88V96.0993Z" fill="white"/>
<path d="M51 115.099L156.34 115.099V107L51 107V115.099Z" fill="white"/>
</svg>
