<svg width="312" height="219" viewBox="0 0 312 219" fill="none" xmlns="http://www.w3.org/2000/svg">
<path d="M10.1693 81.2556C2.22971 70.9085 -1.21762 58.4094 0.452431 46.025C2.12248 33.6406 8.79932 22.1909 19.2722 13.7523C29.745 5.31374 43.3204 0.445005 57.5365 0.0290389C71.7525 -0.386928 85.668 3.67742 96.7592 11.485C107.851 19.2927 115.383 30.3265 117.991 42.5858C120.6 54.845 118.11 67.5178 110.975 78.306C103.84 89.0942 92.5319 97.2835 79.1007 101.389C65.6695 105.494 51.005 105.243 37.7665 100.682C36.9082 103.368 35.3037 105.826 33.0966 107.834C30.8895 109.843 28.1487 111.341 25.1195 112.193C22.0903 113.045 18.8673 113.226 15.7391 112.718C12.6108 112.211 9.67494 111.031 7.19424 109.285C4.71354 107.539 2.76544 105.28 1.52438 102.712C0.283313 100.144 -0.212004 97.3459 0.082775 94.5687C0.377554 91.7915 1.45324 89.1217 3.21351 86.7983C4.97377 84.475 7.36368 82.5706 10.1693 81.2556Z" fill="#E367F8"/>
<path d="M29.9015 45.4201L92.7361 45.4201V40.6005L29.9015 40.6005V45.4201Z" fill="white"/>
<path d="M29.9015 56.7263L92.7361 56.7263V51.9067L29.9015 51.9067V56.7263Z" fill="white"/>
<path d="M29.9015 68.0326L92.7361 68.0326V63.2129L29.9015 63.2129V68.0326Z" fill="white"/>
<path d="M301.569 91.6475C309.317 81.815 312.681 69.9382 311.052 58.1702C309.422 46.4022 302.906 35.5225 292.686 27.5039C282.466 19.4854 269.219 14.859 255.346 14.4637C241.473 14.0684 227.893 17.9305 217.07 25.3494C206.247 32.7685 198.895 43.2531 196.35 54.9021C193.805 66.5512 196.234 78.593 203.197 88.8446C210.16 99.0955 221.195 106.877 234.302 110.778C247.409 114.679 261.72 114.441 274.638 110.107C275.476 112.659 277.042 114.994 279.195 116.903C281.349 118.812 284.024 120.235 286.98 121.045C289.936 121.855 293.081 122.026 296.134 121.544C299.187 121.062 302.052 119.941 304.473 118.282C306.893 116.622 308.794 114.476 310.005 112.036C311.217 109.595 311.7 106.937 311.412 104.298C311.125 101.659 310.075 99.1215 308.357 96.914C306.639 94.7065 304.307 92.8965 301.569 91.6475Z" fill="#E367F8"/>
<g clip-path="url(#clip0)">
<path d="M279.673 49.7511C278.194 48.2662 276.41 47.5235 274.32 47.5235H267.696L266.188 43.4846C265.813 42.5145 265.128 41.6778 264.132 40.9746C263.136 40.2717 262.116 39.92 261.071 39.92H245.93C244.885 39.92 243.864 40.2717 242.869 40.9746C241.873 41.6778 241.188 42.5145 240.813 43.4846L239.305 47.5235H232.681C230.591 47.5235 228.807 48.2662 227.328 49.7511C225.85 51.2361 225.11 53.0278 225.11 55.1268V81.7383C225.11 83.8373 225.85 85.6293 227.328 87.1139C228.807 88.5991 230.591 89.3417 232.681 89.3417H274.319C276.409 89.3417 278.193 88.5991 279.672 87.1139C281.15 85.6293 281.89 83.8373 281.89 81.7383V55.1268C281.89 53.0278 281.151 51.2361 279.673 49.7511ZM262.86 77.833C260.267 80.4368 257.148 81.739 253.5 81.739C249.853 81.739 246.733 80.4368 244.14 77.833C241.548 75.2296 240.252 72.0958 240.252 68.4333C240.252 64.7697 241.548 61.6369 244.14 59.033C246.733 56.4291 249.853 55.1274 253.5 55.1274C257.148 55.1274 260.267 56.4294 262.86 59.033C265.453 61.6366 266.749 64.7697 266.749 68.4333C266.749 72.0958 265.453 75.2293 262.86 77.833Z" fill="white"/>
<path d="M253.5 59.8789C251.154 59.8789 249.148 60.7155 247.482 62.3889C245.816 64.0621 244.983 66.0765 244.983 68.4333C244.983 70.7892 245.816 72.8039 247.482 74.4771C249.148 76.1499 251.154 76.9865 253.5 76.9865C255.846 76.9865 257.852 76.1499 259.518 74.4771C261.184 72.8039 262.017 70.7893 262.017 68.4333C262.017 66.0766 261.184 64.0622 259.518 62.3889C257.852 60.7156 255.846 59.8789 253.5 59.8789Z" fill="white"/>
</g>
<path d="M86.1693 187.256C78.2297 176.909 74.7824 164.409 76.4524 152.025C78.1225 139.641 84.7993 128.191 95.2722 119.752C105.745 111.314 119.32 106.445 133.536 106.029C147.753 105.613 161.668 109.677 172.759 117.485C183.851 125.293 191.383 136.327 193.991 148.586C196.6 160.845 194.11 173.518 186.975 184.306C179.84 195.094 168.532 203.284 155.101 207.389C141.67 211.494 127.005 211.243 113.766 206.682C112.908 209.368 111.304 211.826 109.097 213.834C106.889 215.843 104.149 217.341 101.119 218.193C98.0903 219.045 94.8673 219.226 91.7391 218.718C88.6108 218.211 85.6749 217.031 83.1942 215.285C80.7135 213.539 78.7654 211.28 77.5244 208.712C76.2833 206.144 75.788 203.346 76.0828 200.569C76.3776 197.791 77.4532 195.122 79.2135 192.798C80.9738 190.475 83.3637 188.571 86.1693 187.256Z" fill="#E367F8"/>
<path d="M136 130C122.82 130 112.097 140.56 112.097 153.54C112.097 169.649 133.488 193.298 134.399 194.297C135.254 195.235 136.748 195.233 137.601 194.297C138.512 193.298 159.903 169.649 159.903 153.54C159.902 140.56 149.18 130 136 130ZM136 165.384C129.369 165.384 123.974 160.071 123.974 153.54C123.974 147.01 129.369 141.697 136 141.697C142.631 141.697 148.026 147.01 148.026 153.541C148.026 160.071 142.631 165.384 136 165.384Z" fill="white"/>
<defs>
<clipPath id="clip0">
<rect x="225.11" y="39.92" width="56.7794" height="57.024" fill="white"/>
</clipPath>
</defs>
</svg>
