<svg width="269" height="216" viewBox="0 0 269 216" fill="none" xmlns="http://www.w3.org/2000/svg">
<g clip-path="url(#clip0)">
<path d="M125.495 215.408C184.951 215.408 233.15 167.32 233.15 108C233.15 48.6801 184.951 0.591782 125.495 0.591782C66.0379 0.591782 17.8388 48.6801 17.8388 108C17.8388 167.32 66.0379 215.408 125.495 215.408Z" stroke="white" stroke-width="4" stroke-miterlimit="10" stroke-dasharray="12.07 15.09"/>
<path opacity="0.2" d="M135.895 32.5154H22.6107V104.408H135.895V32.5154Z" fill="#D43434"/>
<path d="M129.913 22.1799H0V95.8004H129.913V22.1799Z" fill="url(#paint0_linear)"/>
<path d="M128.182 32.8971H1.38501V94.0754H128.182V32.8971Z" fill="white"/>
<path d="M54.0444 38.0811H10.0479V84.3968H54.0444V38.0811Z" fill="url(#paint1_linear)"/>
<path d="M53.0064 39.1167H11.4329V83.3582H53.0064V39.1167Z" fill="#9439BF"/>
<path d="M43.8304 56.5861C43.5042 53.9586 43.0563 51.3163 42.051 48.8663C41.0456 46.4163 39.4233 44.1498 37.1694 42.7532C36.3661 42.2141 35.436 41.8929 34.4706 41.8212C32.6911 41.759 31.0748 42.9455 30.1644 44.4575C29.8565 44.9805 29.5879 45.5254 29.3606 46.0879C28.5198 46.2304 27.7513 46.6506 27.1785 47.2811C26.6058 47.9116 26.2619 48.7158 26.2021 49.5646C24.3378 50.357 22.7689 51.7118 21.7155 53.439C20.6621 55.1662 20.1771 57.179 20.3285 59.1952C20.48 61.2113 21.2602 63.1296 22.5599 64.6808C23.8596 66.2321 25.6134 67.3384 27.5753 67.8447V69.4958C25.4964 70.0383 23.6557 71.2514 22.3399 72.9464C21.024 74.6413 20.307 76.7228 20.3004 78.8666V83.3612H39.7021V78.8666C39.6955 76.7228 38.9784 74.6413 37.6626 72.9464C36.3468 71.2514 34.5061 70.0383 32.4272 69.4958V67.8447C34.5096 67.3076 36.3541 66.0954 37.6709 64.3987C38.9877 62.702 39.7022 60.6168 39.7021 58.4709C39.7021 58.4472 39.7021 58.4265 39.7021 58.4029L40.7935 60.8262C41.8315 63.1341 42.8962 65.6137 42.4929 68.111C44.4799 64.7142 44.3138 60.4978 43.8304 56.5861Z" fill="white"/>
<path d="M128.182 23.5647H1.38501V32.8971H128.182V23.5647Z" fill="#8E34D4"/>
<path d="M118.134 52.0797H69.9792V55.1895H118.134V52.0797Z" fill="#E0E0E0"/>
<path d="M118.134 65.2142H69.9792V68.3241H118.134V65.2142Z" fill="#F5F5F5"/>
<path opacity="0.2" d="M98.0409 58.6455H69.6322V61.7553H98.0409V58.6455Z" fill="#D43434"/>
<path opacity="0.2" d="M89.034 71.7801H69.6322V74.8899H89.034V71.7801Z" fill="#69F0AE"/>
<path d="M111.9 71.7801H92.498V74.8899H111.9V71.7801Z" fill="#69F0AE"/>
<path opacity="0.2" d="M261.847 40.4393H197.92V70.1823H261.847V40.4393Z" fill="#FF6E40"/>
<path d="M256.419 33.3291H187.87V65.6374H256.419V33.3291Z" fill="url(#paint2_linear)"/>
<path d="M254.317 34.0984H190.391V63.8413H254.317V34.0984Z" fill="white"/>
<path opacity="0.3" d="M237.368 40.6021H200.077V44.1321H237.368V40.6021Z" fill="#762778"/>
<path d="M219.416 48.6799H200.077V52.2099H219.416V48.6799Z" fill="#B640FF"/>
<path opacity="0.2" d="M269 164.941H119.875V204.96H269V164.941Z" fill="#D43434"/>
<path d="M262.004 156.209H110.707V198.821H262.004V156.209Z" fill="url(#paint3_linear)"/>
<path d="M260.918 157.653H111.793V197.377H260.918V157.653Z" fill="white"/>
<path d="M148.236 192.4C156.474 192.4 163.153 185.736 163.153 177.516C163.153 169.297 156.474 162.633 148.236 162.633C139.997 162.633 133.318 169.297 133.318 177.516C133.318 185.736 139.997 192.4 148.236 192.4Z" fill="url(#paint4_linear)"/>
<path d="M148.236 190.746C155.559 190.746 161.495 184.823 161.495 177.516C161.495 170.21 155.559 164.287 148.236 164.287C140.913 164.287 134.976 170.21 134.976 177.516C134.976 184.823 140.913 190.746 148.236 190.746Z" fill="#A134D4"/>
<g opacity="0.2">
<path opacity="0.2" d="M197.959 167.595H174.34V171.729H197.959V167.595Z" fill="#D43434"/>
<path opacity="0.2" d="M239.393 175.448H174.34V179.582H239.393V175.448Z" fill="#D43434"/>
<path opacity="0.2" d="M239.393 183.304H174.34V187.438H239.393V183.304Z" fill="#D43434"/>
</g>
<path d="M156.937 172.211L154.025 169.995L146.35 180.029L142.067 176.768L139.846 179.671L145.587 184.044L145.602 184.023L147.055 185.13L156.937 172.211Z" fill="white"/>
</g>
<defs>
<linearGradient id="paint0_linear" x1="64.9553" y1="95.8034" x2="64.9553" y2="22.1799" gradientUnits="userSpaceOnUse">
<stop stop-color="#808080" stop-opacity="0.25"/>
<stop offset="0.54" stop-color="#808080" stop-opacity="0.12"/>
<stop offset="1" stop-color="#808080" stop-opacity="0.1"/>
</linearGradient>
<linearGradient id="paint1_linear" x1="1500.65" y1="9623.58" x2="8027.53" y2="9623.58" gradientUnits="userSpaceOnUse">
<stop stop-color="#808080" stop-opacity="0.25"/>
<stop offset="0.54" stop-color="#808080" stop-opacity="0.12"/>
<stop offset="1" stop-color="#808080" stop-opacity="0.1"/>
</linearGradient>
<linearGradient id="paint2_linear" x1="51534.4" y1="7200.27" x2="51534.4" y2="3672.53" gradientUnits="userSpaceOnUse">
<stop stop-color="#808080" stop-opacity="0.25"/>
<stop offset="0.54" stop-color="#808080" stop-opacity="0.12"/>
<stop offset="1" stop-color="#808080" stop-opacity="0.1"/>
</linearGradient>
<linearGradient id="paint3_linear" x1="95179.3" y1="28788.8" x2="95179.3" y2="22651.9" gradientUnits="userSpaceOnUse">
<stop stop-color="#808080" stop-opacity="0.25"/>
<stop offset="0.54" stop-color="#808080" stop-opacity="0.12"/>
<stop offset="1" stop-color="#808080" stop-opacity="0.1"/>
</linearGradient>
<linearGradient id="paint4_linear" x1="15045.8" y1="19518" x2="15045.8" y2="16523.5" gradientUnits="userSpaceOnUse">
<stop stop-color="#808080" stop-opacity="0.25"/>
<stop offset="0.54" stop-color="#808080" stop-opacity="0.12"/>
<stop offset="1" stop-color="#808080" stop-opacity="0.1"/>
</linearGradient>
<clipPath id="clip0">
<rect width="269" height="216" fill="white"/>
</clipPath>
</defs>
</svg>
