<svg width="220" height="286" viewBox="0 0 220 286" fill="none" xmlns="http://www.w3.org/2000/svg">
<g clip-path="url(#clip0)">
<rect x="50.8722" y="110.706" width="25" height="22" transform="rotate(-18.9285 50.8722 110.706)" fill="#FFB8B8"/>
<path d="M-49.8302 191.135L-11.1708 165.829C-11.1708 165.829 12.307 130.308 17.3859 106.944C22.4647 83.5802 41.2532 42.5807 41.2532 42.5807L42.6555 20.4639C42.6555 20.4639 61.7553 14.273 61.9032 34.6376C62.0511 55.0021 55.017 80.8329 55.017 80.8329C55.017 80.8329 47.539 113.667 59.1842 122.918L98.8713 200.563C98.8713 200.563 53.6842 238.038 20.0335 241.086L-56 288.449L-49.8302 191.135Z" fill="#FFB8B8"/>
<path d="M161 74H162.623C177.246 74 185.466 88.045 175.857 97.0127C172.765 99.8991 168.064 101.897 161 102V74Z" fill="#FFB8B8"/>
<path d="M163 102H164.298C175.997 102 182.573 115.624 174.886 124.322C172.412 127.122 168.651 129.06 163 129.16V102Z" fill="#FFB8B8"/>
<path d="M163 129H164.298C175.997 129 182.573 142.624 174.886 151.322C172.412 154.122 168.651 156.06 163 156.16V129Z" fill="#FFB8B8"/>
<path d="M164 156H165.367C177.681 156 184.603 170.045 176.511 179.013C173.907 181.899 169.949 183.897 164 184V156Z" fill="#FFB8B8"/>
<path d="M165.29 49.4429H164.152V18.1256C164.152 15.7453 163.685 13.3883 162.778 11.1892C161.871 8.99013 160.542 6.99197 158.866 5.30885C157.19 3.62573 155.201 2.29061 153.011 1.37972C150.822 0.468822 148.475 -5.7257e-06 146.105 0H80.0462C77.6764 -5.7257e-06 75.3297 0.468822 73.1402 1.37972C70.9508 2.29061 68.9614 3.62573 67.2856 5.30885C65.6099 6.99197 64.2806 8.99013 63.3737 11.1892C62.4668 13.3883 62 15.7453 62 18.1256V189.935C62 192.315 62.4668 194.672 63.3737 196.871C64.2806 199.07 65.6099 201.068 67.2856 202.751C68.9614 204.435 70.9508 205.77 73.1402 206.681C75.3297 207.591 77.6764 208.06 80.0462 208.06H146.105C148.475 208.06 150.822 207.591 153.011 206.681C155.201 205.77 157.19 204.435 158.866 202.751C160.542 201.068 161.871 199.07 162.778 196.871C163.685 194.672 164.152 192.315 164.152 189.935V71.7351H165.29V49.4429Z" fill="#3F3D56"/>
<path d="M159.332 18.5366V190.092C159.329 192.098 158.883 194.079 158.028 195.892C157.172 197.705 155.927 199.306 154.383 200.578C154.041 200.859 153.685 201.122 153.316 201.366C151.106 202.845 148.51 203.632 145.854 203.628H79.4773C78.4013 203.63 77.329 203.501 76.2839 203.244C73.3507 202.526 70.7426 200.839 68.8778 198.454C67.0131 196.069 65.9996 193.124 66 190.092V18.5366C66.0003 14.9466 67.4204 11.5037 69.9478 8.96515C72.4752 6.42661 75.903 5.00033 79.4773 5H87.5316C87.135 5.97636 86.9836 7.03571 87.0908 8.08468C87.1979 9.13366 87.5603 10.1401 88.146 11.0152C88.7316 11.8904 89.5226 12.6074 90.4492 13.1032C91.3758 13.5989 92.4096 13.8581 93.4595 13.858H131.302C132.352 13.8568 133.385 13.5968 134.311 13.1008C135.237 12.6048 136.028 11.888 136.613 11.0133C137.199 10.1387 137.562 9.13289 137.67 8.08439C137.779 7.03589 137.629 5.97675 137.234 5H145.854C149.429 5.00032 152.856 6.4266 155.384 8.96514C157.911 11.5037 159.331 14.9466 159.332 18.5366Z" fill="#FDFDFF"/>
<path d="M32.7953 230.616C48.6985 231.797 63.7425 203.769 66.397 168.015C69.0516 132.26 58.3114 102.319 42.4082 101.138C26.505 99.9572 11.461 127.985 8.80645 163.739C6.15192 199.494 16.8921 229.436 32.7953 230.616Z" fill="#FFB8B8"/>
<rect x="60" y="28" width="2" height="27" fill="#3F3D56"/>
<path d="M115.091 76.7736C114.276 76.7736 113.57 77.0621 112.976 77.6384L97.3235 87.3439H85.0084C84.1929 87.3439 83.4877 87.6325 82.8929 88.2088C82.297 88.7858 82 89.4682 82 90.2573V107.743C82 108.533 82.2978 109.216 82.8928 109.792C83.4876 110.369 84.1929 110.657 85.0083 110.657H97.3235L112.976 120.362C113.571 120.939 114.276 121.226 115.092 121.226C115.907 121.226 116.611 120.938 117.207 120.362C117.802 119.785 118.1 119.102 118.1 118.312V79.6879C118.1 78.8987 117.802 78.2154 117.207 77.6384C116.61 77.0629 115.906 76.7736 115.091 76.7736Z" fill="#686666"/>
<path d="M131.969 105.444C133.301 103.456 133.967 101.308 133.967 99.0004C133.967 96.6936 133.301 94.538 131.969 92.5346C130.637 90.5312 128.875 89.1195 126.681 88.2999C126.367 88.1486 125.976 88.0722 125.506 88.0722C124.69 88.0722 123.986 88.3529 123.391 88.9144C122.795 89.4767 122.498 90.1668 122.498 90.9865C122.498 91.6236 122.687 92.1633 123.063 92.6032C123.438 93.0438 123.892 93.4228 124.425 93.7417C124.958 94.0607 125.49 94.4101 126.023 94.7891C126.555 95.1688 127.01 95.7077 127.386 96.4057C127.762 97.1046 127.95 97.9694 127.95 99.0011C127.95 100.034 127.762 100.899 127.386 101.597C127.01 102.295 126.555 102.834 126.023 103.213C125.49 103.593 124.957 103.942 124.425 104.261C123.892 104.58 123.438 104.959 123.063 105.399C122.687 105.84 122.498 106.378 122.498 107.016C122.498 107.836 122.796 108.526 123.391 109.088C123.986 109.65 124.691 109.93 125.506 109.93C125.976 109.93 126.367 109.855 126.681 109.703C128.875 108.852 130.637 107.432 131.969 105.444Z" fill="#686666"/>
<path d="M131.429 77.5533C131.022 77.4021 130.613 77.3256 130.207 77.3256C129.392 77.3256 128.686 77.6142 128.091 78.1905C127.496 78.7676 127.199 79.4507 127.199 80.2399C127.199 81.4237 127.81 82.3198 129.032 82.9265C130.787 83.8078 131.976 84.4745 132.604 84.9299C134.923 86.5692 136.732 88.6257 138.033 91.1001C139.334 93.5747 139.984 96.2075 139.984 99.0002C139.984 101.794 139.334 104.427 138.033 106.901C136.732 109.376 134.923 111.432 132.604 113.071C131.977 113.527 130.787 114.194 129.032 115.075C127.81 115.682 127.199 116.578 127.199 117.761C127.199 118.551 127.497 119.235 128.091 119.811C128.686 120.388 129.408 120.676 130.254 120.676C130.63 120.676 131.021 120.6 131.429 120.448C135.815 118.657 139.341 115.796 142.004 111.865C144.668 107.934 146 103.646 146 99.0011C146 94.3563 144.668 90.0694 142.004 86.1373C139.341 82.2052 135.815 79.3447 131.429 77.5533Z" fill="#686666"/>
</g>
<defs>
<clipPath id="clip0">
<rect width="220" height="286" fill="white"/>
</clipPath>
</defs>
</svg>


