<svg width="66" height="66" viewBox="0 0 66 66" fill="none" xmlns="http://www.w3.org/2000/svg">
<g clip-path="url(#clip0)">
<path d="M51.7859 23.4735C51.7885 22.4051 50.9221 21.5387 49.851 21.5387C49.6995 21.5387 49.5533 21.5519 49.4178 21.5892C47.4324 22.041 45.657 23.043 44.267 24.4303C42.3454 26.3519 41.1574 29.007 41.1574 31.9386L41.16 34.599L23.2785 16.7174C21.2108 14.6497 17.8274 14.6497 15.7623 16.7174C13.6945 18.7852 13.6945 22.1686 15.7623 24.2336L24.0307 32.502C22.5024 32.3452 20.9211 32.8316 19.749 34.001C18.9357 34.8143 18.452 35.8322 18.2792 36.8873L14.8693 49.666C14.4015 51.4334 14.8533 53.3922 16.2354 54.7769L22.4174 60.9589C29.1389 67.6804 40.0305 67.6804 46.752 60.9589C50.0078 57.7031 51.6716 53.4692 51.7699 49.2062L51.7885 49.2221V48.8048C51.7885 48.7969 51.7885 48.7889 51.7885 48.7862L51.7859 23.4735ZM49.1095 49.1424C49.0191 52.9058 47.5121 56.4353 44.8676 59.0772C39.1933 64.7515 29.9655 64.7515 24.2938 59.0772L18.1118 52.8952C17.45 52.2334 17.2028 51.2819 17.4473 50.349L20.8971 37.3206C20.9609 36.9325 21.139 36.3664 21.6227 35.88C22.3749 35.1279 23.2812 35.096 23.7569 35.1438L27.4698 35.5186C28.028 35.5744 28.5622 35.2741 28.804 34.7664C29.0459 34.2588 28.9396 33.6555 28.5436 33.2568L17.6387 22.3519C16.6022 21.3154 16.6022 19.6277 17.6387 18.5938C18.6752 17.5573 20.3629 17.5573 21.3968 18.5938L40.1846 37.3817C40.9846 38.1817 42.1567 38.3491 43.1295 37.9132C43.5467 37.7245 43.8152 37.3099 43.8152 36.8528V31.9412C43.8152 29.815 44.6444 27.8163 46.146 26.312C46.9939 25.4642 48.0091 24.8237 49.1254 24.4277L49.1095 49.1424Z" fill="white"/>
<path d="M46.4756 6.68963H32.9581L37.7687 1.87905L35.8897 0L27.8712 8.01852L35.879 16.0291L37.7581 14.15L32.9581 9.34741H46.4756V6.68963Z" fill="white"/>
</g>
<defs>
<clipPath id="clip0">
<rect width="66" height="66" fill="white"/>
</clipPath>
</defs>
</svg>

